SplineFontDB: 3.0
FontName: LektonCode-Regular
FullName: LektonCode
FamilyName: LektonCode
Weight: Book
Copyright: Copyright (c) 2008, 2009, 2010, Accademia di Belle Arti di Urbino. Licensed under the SIL Open Font License, Version 1.1\n
FontLog: "Changed the glyph for zero to zero with a dot in order to differentiate it from the capital O.  This is desirable for a font used for programming." 
Version: 34.000
ItalicAngle: 0
UnderlinePosition: -50
UnderlineWidth: 50
Ascent: 800
Descent: 200
sfntRevision: 0x00010000
LayerCount: 2
Layer: 0 1 "Back"  1
Layer: 1 1 "Fore"  0
XUID: [1021 961 2074909929 6887626]
FSType: 0
OS2Version: 2
OS2_WeightWidthSlopeOnly: 0
OS2_UseTypoMetrics: 1
CreationTime: 1274875962
ModificationTime: 1490179645
PfmFamily: 17
TTFWeight: 400
TTFWidth: 5
LineGap: 0
VLineGap: 0
Panose: 2 0 0 0 0 0 0 0 0 0
OS2TypoAscent: 900
OS2TypoAOffset: 0
OS2TypoDescent: -300
OS2TypoDOffset: 0
OS2TypoLinegap: 0
OS2WinAscent: 900
OS2WinAOffset: 0
OS2WinDescent: 300
OS2WinDOffset: 0
HheadAscent: 900
HheadAOffset: 0
HheadDescent: -300
HheadDOffset: 0
OS2SubXSize: 700
OS2SubYSize: 650
OS2SubXOff: 0
OS2SubYOff: 140
OS2SupXSize: 700
OS2SupYSize: 650
OS2SupXOff: 0
OS2SupYOff: 477
OS2StrikeYSize: 50
OS2StrikeYPos: 250
OS2FamilyClass: 2048
OS2Vendor: 'PfEd'
OS2CodePages: 20000193.00000000
OS2UnicodeRanges: a000008f.4000204a.00000000.00000000
Lookup: 1 0 0 "'calt' Contextual Alternates in Latin lookup 0"  {"'calt' Contextual Alternates in Latin lookup 0 subtable"  } ['calt' ('latn' <'dflt' > ) ]
Lookup: 1 0 0 "'salt' Stylistic Alternatives in Latin lookup 1"  {"'salt' Stylistic Alternatives in Latin lookup 1 subtable"  } ['salt' ('latn' <'dflt' > ) ]
Lookup: 1 0 0 "'onum' Oldstyle Figures in Latin lookup 2"  {"'onum' Oldstyle Figures in Latin lookup 2 subtable" ("oldstyle" ) } ['onum' ('latn' <'dflt' > ) ]
Lookup: 1 0 0 "'smcp' Lowercase to Small Capitals in Latin lookup 3"  {"'smcp' Lowercase to Small Capitals in Latin lookup 3 subtable"  } ['smcp' ('latn' <'dflt' > ) ]

StartChar: exclam
Encoding: 33 33 4
Width: 500
GlyphClass: 2
Flags: W
LayerCount: 2
Fore
SplineSet
195 -6 m 1,0,-1
 195 80 l 1,1,-1
 271 80 l 1,2,-1
 271 -6 l 1,3,-1
 195 -6 l 1,0,-1
209 188 m 1,4,-1
 200 688 l 1,5,-1
 266 688 l 1,6,-1
 257 188 l 1,7,-1
 209 188 l 1,4,-1
EndSplineSet
Substitution2: "'ss01' Style Set 1 in Latin lookup 9 subtable" exclam.bi
EndChar

StartChar: quotedbl
Encoding: 34 34 5
Width: 500
GlyphClass: 2
Flags: W
LayerCount: 2
Fore
SplineSet
143 463 m 1,0,-1
 143 680 l 1,1,-1
 196 680 l 1,2,-1
 196 463 l 1,3,-1
 143 463 l 1,0,-1
303 463 m 1,4,-1
 303 680 l 1,5,-1
 356 680 l 1,6,-1
 356 463 l 1,7,-1
 303 463 l 1,4,-1
EndSplineSet
EndChar

StartChar: numbersign
Encoding: 35 35 6
Width: 500
GlyphClass: 2
Flags: W
LayerCount: 2
Fore
SplineSet
312 236 m 1,0,-1
 334 438 l 1,1,-1
 190 438 l 1,2,-1
 168 236 l 1,3,-1
 312 236 l 1,0,-1
477 192 m 1,4,-1
 359 192 l 1,5,-1
 338 0 l 1,6,-1
 285 0 l 1,7,-1
 307 192 l 1,8,-1
 163 192 l 1,9,-1
 141 0 l 1,10,-1
 89 0 l 1,11,-1
 111 192 l 1,12,-1
 0 192 l 1,13,-1
 0 236 l 1,14,-1
 116 236 l 1,15,-1
 138 438 l 1,16,-1
 23 438 l 1,17,-1
 23 481 l 1,18,-1
 142 481 l 1,19,-1
 161 655 l 1,20,-1
 213 655 l 1,21,-1
 194 481 l 1,22,-1
 339 481 l 1,23,-1
 357 655 l 1,24,-1
 409 655 l 1,25,-1
 391 481 l 1,26,-1
 500 481 l 1,27,-1
 500 438 l 1,28,-1
 386 438 l 1,29,-1
 364 236 l 1,30,-1
 477 236 l 1,31,-1
 477 192 l 1,4,-1
EndSplineSet
Substitution2: "'calt' Contextual Alternates in Latin lookup 0 subtable" numbersign.calt
EndChar

StartChar: dollar
Encoding: 36 36 7
Width: 500
GlyphClass: 2
Flags: W
LayerCount: 2
Fore
SplineSet
252 592 m 0,0,1
 115 592 115 592 115 482 c 0,2,3
 115 428 115 428 145 401 c 128,-1,4
 175 374 175 374 263.5 353 c 128,-1,5
 352 332 352 332 392.5 292.5 c 128,-1,6
 433 253 433 253 433 174.5 c 128,-1,7
 433 96 433 96 384.5 48 c 128,-1,8
 336 0 336 0 258 -7 c 1,9,-1
 258 -92 l 1,10,-1
 208 -92 l 1,11,-1
 208 -8 l 1,12,13
 140 -4 140 -4 55 21 c 1,14,-1
 68 71 l 1,15,16
 165 42 165 42 228.5 42 c 128,-1,17
 292 42 292 42 333 77.5 c 128,-1,18
 374 113 374 113 374 174 c 128,-1,19
 374 235 374 235 344.5 260 c 128,-1,20
 315 285 315 285 224.5 307 c 128,-1,21
 134 329 134 329 94.5 367 c 128,-1,22
 55 405 55 405 55 478.5 c 128,-1,23
 55 552 55 552 101 593 c 128,-1,24
 147 634 147 634 216 641 c 1,25,-1
 216 725 l 1,26,-1
 267 725 l 1,27,-1
 267 642 l 1,28,29
 346 639 346 639 424 611 c 1,30,-1
 410 561 l 1,31,32
 324 592 324 592 252 592 c 0,0,1
EndSplineSet
EndChar

StartChar: percent
Encoding: 37 37 8
Width: 500
GlyphClass: 2
Flags: W
LayerCount: 2
Fore
SplineSet
359 665 m 1,0,-1
 415 665 l 1,1,-1
 138 0 l 1,2,-1
 82 0 l 1,3,-1
 359 665 l 1,0,-1
0 525 m 128,-1,5
 0 585 0 585 35 620 c 128,-1,6
 70 655 70 655 123 655 c 128,-1,7
 176 655 176 655 211 620 c 128,-1,8
 246 585 246 585 246 525 c 128,-1,9
 246 465 246 465 211 430 c 128,-1,10
 176 395 176 395 123 395 c 128,-1,11
 70 395 70 395 35 430 c 128,-1,4
 0 465 0 465 0 525 c 128,-1,5
48 525 m 128,-1,13
 48 485 48 485 69.5 463 c 128,-1,14
 91 441 91 441 123 441 c 128,-1,15
 155 441 155 441 176.5 463 c 128,-1,16
 198 485 198 485 198 525 c 128,-1,17
 198 565 198 565 176.5 587 c 128,-1,18
 155 609 155 609 123 609 c 128,-1,19
 91 609 91 609 69.5 587 c 128,-1,12
 48 565 48 565 48 525 c 128,-1,13
253 130 m 128,-1,21
 253 190 253 190 288 225 c 128,-1,22
 323 260 323 260 376 260 c 128,-1,23
 429 260 429 260 464 225 c 128,-1,24
 499 190 499 190 499 130 c 128,-1,25
 499 70 499 70 464 35 c 128,-1,26
 429 0 429 0 376 0 c 128,-1,27
 323 0 323 0 288 35 c 128,-1,20
 253 70 253 70 253 130 c 128,-1,21
301 130 m 128,-1,29
 301 90 301 90 322.5 68 c 128,-1,30
 344 46 344 46 376 46 c 128,-1,31
 408 46 408 46 429.5 68 c 128,-1,32
 451 90 451 90 451 130 c 128,-1,33
 451 170 451 170 429.5 192 c 128,-1,34
 408 214 408 214 376 214 c 128,-1,35
 344 214 344 214 322.5 192 c 128,-1,28
 301 170 301 170 301 130 c 128,-1,29
EndSplineSet
EndChar

StartChar: ampersand
Encoding: 38 38 9
Width: 500
GlyphClass: 2
Flags: W
LayerCount: 2
Fore
SplineSet
5 197 m 0,0,1
 5 340 5 340 161 401 c 1,2,3
 112 480 112 480 112 535.5 c 128,-1,4
 112 591 112 591 151 628 c 128,-1,5
 190 665 190 665 252.5 665 c 128,-1,6
 315 665 315 665 353 628.5 c 128,-1,7
 391 592 391 592 391 534.5 c 128,-1,8
 391 477 391 477 359 440.5 c 128,-1,9
 327 404 327 404 243 366 c 1,10,-1
 376 159 l 1,11,12
 412 234 412 234 440 365 c 1,13,-1
 489 357 l 1,14,15
 465 225 465 225 409 117 c 1,16,17
 422 96 422 96 442 70 c 2,18,-1
 489 11 l 1,19,-1
 450 -21 l 1,20,21
 402 35 402 35 375 76 c 1,22,23
 299 -10 299 -10 206.5 -10 c 128,-1,24
 114 -10 114 -10 59.5 44.5 c 128,-1,25
 5 99 5 99 5 197 c 0,0,1
308.5 459.5 m 128,-1,27
 335 489 335 489 335 531 c 128,-1,28
 335 573 335 573 313 594.5 c 128,-1,29
 291 616 291 616 253 616 c 128,-1,30
 215 616 215 616 191.5 593.5 c 128,-1,31
 168 571 168 571 168 536 c 128,-1,32
 168 501 168 501 179.5 473.5 c 128,-1,33
 191 446 191 446 219 406 c 1,34,26
 282 430 282 430 308.5 459.5 c 128,-1,27
62 197 m 0,35,36
 62 123 62 123 100 81 c 128,-1,37
 138 39 138 39 205 39 c 0,38,39
 242 39 242 39 281 60 c 128,-1,40
 320 81 320 81 346 115 c 1,41,-1
 184 362 l 1,42,43
 62 311 62 311 62 197 c 0,35,36
EndSplineSet
Substitution2: "'titl' Titling in Latin lookup 7 subtable" ampersand.alt
Substitution2: "'calt' Contextual Alternates in Latin lookup 0 subtable" ampersand.calt
EndChar

StartChar: quotesingle
Encoding: 39 39 10
Width: 500
GlyphClass: 2
Flags: W
LayerCount: 2
Fore
SplineSet
221 463 m 1,0,-1
 221 680 l 1,1,-1
 274 680 l 1,2,-1
 274 463 l 1,3,-1
 221 463 l 1,0,-1
EndSplineSet
EndChar

StartChar: parenleft
Encoding: 40 40 11
Width: 500
GlyphClass: 2
Flags: W
LayerCount: 2
Fore
SplineSet
219.5 57.5 m 128,-1,1
 180 169 180 169 180 318.5 c 128,-1,2
 180 468 180 468 219.5 579.5 c 128,-1,3
 259 691 259 691 332 796 c 1,4,-1
 374 769 l 1,5,6
 308 672 308 672 271.5 568 c 128,-1,7
 235 464 235 464 235 318.5 c 128,-1,8
 235 173 235 173 272 68 c 128,-1,9
 309 -37 309 -37 374 -132 c 1,10,-1
 332 -160 l 1,11,0
 259 -54 259 -54 219.5 57.5 c 128,-1,1
EndSplineSet
Substitution2: "Single Substitution lookup 21 subtable" roundedcornersleft.black
Substitution2: "Single Substitution lookup 20 subtable" roundedcornersleft.white
Substitution2: "Single Substitution lookup 19 subtable" parenleft
Substitution2: "'ss08' Style Set 8 in Latin lookup 17 subtable" parenleft
Substitution2: "'ss07' Style Set 7 in Latin lookup 15 subtable" parenleft
Substitution2: "'ss06' Style Set 6 in Latin lookup 14 subtable" roundedcornersleft.black
Substitution2: "'ss05' Style Set 5 in Latin lookup 13 subtable" roundedcornersleft.white
Substitution2: "'ss04' Style Set 4 in Latin lookup 12 subtable" parenleft
Substitution2: "'ss03' Style Set 3 in Latin lookup 11 subtable" parenleft
Substitution2: "'onum' Oldstyle Figures in Latin lookup 2 subtable" parenleft
EndChar

StartChar: parenright
Encoding: 41 41 12
Width: 500
GlyphClass: 2
Flags: W
LayerCount: 2
Fore
SplineSet
228 68 m 128,-1,1
 265 173 265 173 265 318.5 c 128,-1,2
 265 464 265 464 228.5 568 c 128,-1,3
 192 672 192 672 126 769 c 1,4,-1
 168 796 l 1,5,6
 241 691 241 691 280.5 579.5 c 128,-1,7
 320 468 320 468 320 318.5 c 128,-1,8
 320 169 320 169 280.5 57.5 c 128,-1,9
 241 -54 241 -54 168 -160 c 1,10,-1
 126 -132 l 1,11,0
 191 -37 191 -37 228 68 c 128,-1,1
EndSplineSet
Substitution2: "Single Substitution lookup 21 subtable" roundedcornersright.black
Substitution2: "Single Substitution lookup 20 subtable" roundedcornersright.white
Substitution2: "Single Substitution lookup 19 subtable" parenright
Substitution2: "'ss08' Style Set 8 in Latin lookup 17 subtable" parenright
Substitution2: "'ss07' Style Set 7 in Latin lookup 15 subtable" parenright
Substitution2: "'ss06' Style Set 6 in Latin lookup 14 subtable" roundedcornersright.black
Substitution2: "'ss05' Style Set 5 in Latin lookup 13 subtable" roundedcornersright.white
Substitution2: "'ss04' Style Set 4 in Latin lookup 12 subtable" parenright
Substitution2: "'ss03' Style Set 3 in Latin lookup 11 subtable" parenright
Substitution2: "'onum' Oldstyle Figures in Latin lookup 2 subtable" parenright
EndChar

StartChar: asterisk
Encoding: 42 42 13
Width: 500
GlyphClass: 2
Flags: W
LayerCount: 2
Fore
SplineSet
70 505 m 1,0,-1
 70 550 l 1,1,-1
 218 550 l 1,2,-1
 173 690 l 1,3,-1
 218 705 l 1,4,-1
 262 563 l 1,5,-1
 381 650 l 1,6,-1
 408 614 l 1,7,-1
 288 526 l 1,8,-1
 408 441 l 1,9,-1
 380 402 l 1,10,-1
 261 490 l 1,11,-1
 215 350 l 1,12,-1
 170 366 l 1,13,-1
 217 505 l 1,14,-1
 70 505 l 1,0,-1
EndSplineSet
EndChar

StartChar: plus
Encoding: 43 43 14
Width: 500
GlyphClass: 2
Flags: W
LayerCount: 2
Fore
SplineSet
475 260 m 1,0,-1
 274 260 l 1,1,-1
 274 61 l 1,2,-1
 224 61 l 1,3,-1
 224 260 l 1,4,-1
 24 260 l 1,5,-1
 24 306 l 1,6,-1
 224 306 l 1,7,-1
 224 504 l 1,8,-1
 274 504 l 1,9,-1
 274 306 l 1,10,-1
 475 306 l 1,11,-1
 475 260 l 1,0,-1
EndSplineSet
Substitution2: "'calt' Contextual Alternates in Latin lookup 0 subtable" plus.calt
EndChar

StartChar: comma
Encoding: 44 44 15
Width: 500
GlyphClass: 2
Flags: W
LayerCount: 2
Fore
SplineSet
173 0 m 1,0,-1
 173 112 l 1,1,-1
 268 112 l 1,2,-1
 268 30 l 2,3,4
 268 -60 268 -60 191 -143 c 1,5,-1
 164 -119 l 1,6,7
 209 -53 209 -53 213 0 c 1,8,-1
 173 0 l 1,0,-1
EndSplineSet
Substitution2: "'ss01' Style Set 1 in Latin lookup 9 subtable" comma.bi
EndChar

StartChar: hyphen
Encoding: 45 45 16
Width: 500
GlyphClass: 2
Flags: W
LayerCount: 2
Fore
SplineSet
110 213 m 1,0,-1
 110 267 l 1,1,-1
 397 267 l 1,2,-1
 397 213 l 1,3,-1
 110 213 l 1,0,-1
EndSplineSet
EndChar

StartChar: period
Encoding: 46 46 17
Width: 500
GlyphClass: 2
Flags: W
LayerCount: 2
Fore
SplineSet
175 0 m 1,0,-1
 175 121 l 1,1,-1
 285 121 l 1,2,-1
 285 0 l 1,3,-1
 175 0 l 1,0,-1
EndSplineSet
Substitution2: "'ss01' Style Set 1 in Latin lookup 9 subtable" period.bi
EndChar

StartChar: slash
Encoding: 47 47 18
Width: 500
GlyphClass: 2
Flags: W
LayerCount: 2
Fore
SplineSet
25 -25 m 1,0,-1
 438 704 l 1,1,-1
 475 682 l 1,2,-1
 61 -47 l 1,3,-1
 25 -25 l 1,0,-1
EndSplineSet
Substitution2: "'ss08' Style Set 8 in Latin lookup 17 subtable" halfcircleleft.bl
Substitution2: "'ss07' Style Set 7 in Latin lookup 15 subtable" halfcircleleft.wt
Substitution2: "'ss06' Style Set 6 in Latin lookup 14 subtable" rectangle.black
Substitution2: "'ss05' Style Set 5 in Latin lookup 13 subtable" rectangle.white
Substitution2: "'ss04' Style Set 4 in Latin lookup 12 subtable" circle.white
Substitution2: "'ss03' Style Set 3 in Latin lookup 11 subtable" circle.black
Substitution2: "'onum' Oldstyle Figures in Latin lookup 2 subtable" slash
EndChar

StartChar: zero
Encoding: 48 48 19
Width: 500
GlyphClass: 2
Flags: W
LayerCount: 2
Fore
SplineSet
247 245 m 0,0,1
 202 245 202 245 202 302 c 128,-1,2
 202 359 202 359 247.5 359 c 128,-1,3
 293 359 293 359 293 300 c 0,4,5
 293 271 293 271 282.5 258 c 128,-1,6
 272 245 272 245 247 245 c 0,0,1
103 569 m 128,-1,8
 148 644 148 644 249.5 644 c 128,-1,9
 351 644 351 644 396 569 c 128,-1,10
 441 494 441 494 441 318.5 c 128,-1,11
 441 143 441 143 396 67 c 128,-1,12
 351 -9 351 -9 249.5 -9 c 128,-1,13
 148 -9 148 -9 103 67 c 128,-1,14
 58 143 58 143 58 318.5 c 128,-1,7
 58 494 58 494 103 569 c 128,-1,8
249 43 m 128,-1,16
 321 43 321 43 349 107 c 128,-1,17
 377 171 377 171 377 319.5 c 128,-1,18
 377 468 377 468 350 530 c 128,-1,19
 323 592 323 592 250 592 c 128,-1,20
 177 592 177 592 149.5 529.5 c 128,-1,21
 122 467 122 467 122 319 c 128,-1,22
 122 171 122 171 149.5 107 c 128,-1,15
 177 43 177 43 249 43 c 128,-1,16
EndSplineSet
Substitution2: "'ss08' Style Set 8 in Latin lookup 17 subtable" zero.halfcircleleft.bl
Substitution2: "'ss07' Style Set 7 in Latin lookup 15 subtable" zero.halfcircleleft.wt
Substitution2: "'ss06' Style Set 6 in Latin lookup 14 subtable" zero.small.black
Substitution2: "'ss05' Style Set 5 in Latin lookup 13 subtable" zero.small.white
Substitution2: "'ss04' Style Set 4 in Latin lookup 12 subtable" zero.circle.white
Substitution2: "'ss03' Style Set 3 in Latin lookup 11 subtable" zero.circle.black
Substitution2: "'onum' Oldstyle Figures in Latin lookup 2 subtable" zero.onum
EndChar

StartChar: one
Encoding: 49 49 20
Width: 500
GlyphClass: 2
Flags: W
LayerCount: 2
Fore
SplineSet
454 0 m 1,0,-1
 79 0 l 1,1,-1
 79 51 l 1,2,-1
 250 51 l 1,3,-1
 250 571 l 1,4,-1
 85 495 l 1,5,-1
 62 548 l 1,6,-1
 256 635 l 1,7,-1
 309 635 l 1,8,-1
 309 51 l 1,9,-1
 454 51 l 1,10,-1
 454 0 l 1,0,-1
EndSplineSet
Substitution2: "'ss08' Style Set 8 in Latin lookup 17 subtable" one.halfcircleleft.bl
Substitution2: "'ss07' Style Set 7 in Latin lookup 15 subtable" one.halfcircleleft.wt
Substitution2: "'ss06' Style Set 6 in Latin lookup 14 subtable" one.small.black
Substitution2: "'ss05' Style Set 5 in Latin lookup 13 subtable" one.small.white
Substitution2: "'ss04' Style Set 4 in Latin lookup 12 subtable" one.circle.white
Substitution2: "'ss03' Style Set 3 in Latin lookup 11 subtable" one.circle.black
Substitution2: "'onum' Oldstyle Figures in Latin lookup 2 subtable" one.onum
EndChar

StartChar: two
Encoding: 50 50 21
Width: 500
GlyphClass: 2
Flags: W
LayerCount: 2
Fore
SplineSet
340 277 m 0,0,1
 302 241 302 241 264 208 c 0,2,3
 166 124 166 124 139 57 c 1,4,-1
 448 57 l 1,5,-1
 448 0 l 1,6,-1
 73 0 l 1,7,-1
 73 49 l 1,8,9
 91 100 91 100 128.5 147 c 128,-1,10
 166 194 166 194 205 228 c 2,11,-1
 281 296 l 1,12,13
 365 374 365 374 365 459 c 0,14,15
 365 518 365 518 330 554.5 c 128,-1,16
 295 591 295 591 242.5 591 c 128,-1,17
 190 591 190 591 93 524 c 1,18,-1
 65 566 l 1,19,20
 170 643 170 643 246.5 643 c 128,-1,21
 323 643 323 643 373.5 594.5 c 128,-1,22
 424 546 424 546 424 452.5 c 128,-1,23
 424 359 424 359 340 277 c 0,0,1
EndSplineSet
Substitution2: "'ss08' Style Set 8 in Latin lookup 17 subtable" two.halfcircleleft.bl
Substitution2: "'ss07' Style Set 7 in Latin lookup 15 subtable" two.halfcircleleft.wt
Substitution2: "'ss06' Style Set 6 in Latin lookup 14 subtable" two.small.black
Substitution2: "'ss05' Style Set 5 in Latin lookup 13 subtable" two.small.white
Substitution2: "'ss04' Style Set 4 in Latin lookup 12 subtable" two.circle.white
Substitution2: "'ss03' Style Set 3 in Latin lookup 11 subtable" two.circle.black
Substitution2: "'onum' Oldstyle Figures in Latin lookup 2 subtable" two.onum
EndChar

StartChar: three
Encoding: 51 51 22
Width: 500
GlyphClass: 2
Flags: W
LayerCount: 2
Fore
SplineSet
136 293 m 1,0,-1
 129 338 l 1,1,-1
 201 349 l 2,2,3
 282 361 282 361 321.5 392.5 c 128,-1,4
 361 424 361 424 361 481 c 128,-1,5
 361 538 361 538 325.5 564.5 c 128,-1,6
 290 591 290 591 234 591 c 128,-1,7
 178 591 178 591 78 547 c 1,8,-1
 59 594 l 1,9,10
 98 613 98 613 151 628 c 128,-1,11
 204 643 204 643 239 643 c 0,12,13
 321 643 321 643 369.5 604 c 128,-1,14
 418 565 418 565 418 485 c 0,15,16
 418 429 418 429 395.5 397.5 c 128,-1,17
 373 366 373 366 321 340 c 1,18,-1
 321 338 l 1,19,20
 444 312 444 312 444 175 c 0,21,22
 444 -10 444 -10 237 -10 c 0,23,24
 154 -10 154 -10 46 30 c 1,25,-1
 64 81 l 1,26,27
 165 42 165 42 235 42 c 128,-1,28
 305 42 305 42 345 75 c 128,-1,29
 385 108 385 108 385 175 c 128,-1,30
 385 242 385 242 351 273.5 c 128,-1,31
 317 305 317 305 245 305 c 1,32,-1
 136 293 l 1,0,-1
EndSplineSet
Substitution2: "'ss08' Style Set 8 in Latin lookup 17 subtable" three.halfcircleleft.bl
Substitution2: "'ss07' Style Set 7 in Latin lookup 15 subtable" three.halfcircleleft.wt
Substitution2: "'ss06' Style Set 6 in Latin lookup 14 subtable" three.small.black
Substitution2: "'ss05' Style Set 5 in Latin lookup 13 subtable" three.small.white
Substitution2: "'ss04' Style Set 4 in Latin lookup 12 subtable" three.circle.white
Substitution2: "'ss03' Style Set 3 in Latin lookup 11 subtable" three.circle.black
Substitution2: "'onum' Oldstyle Figures in Latin lookup 2 subtable" three.onum
EndChar

StartChar: four
Encoding: 52 52 23
Width: 500
GlyphClass: 2
Flags: W
LayerCount: 2
Fore
SplineSet
459 179 m 1,0,-1
 459 127 l 1,1,-1
 369 127 l 1,2,-1
 369 -10 l 1,3,-1
 314 -10 l 1,4,-1
 314 127 l 1,5,-1
 43 127 l 1,6,-1
 43 174 l 1,7,-1
 207 634 l 1,8,-1
 264 634 l 1,9,-1
 105 179 l 1,10,-1
 314 179 l 1,11,-1
 314 389 l 1,12,-1
 369 389 l 1,13,-1
 369 179 l 1,14,-1
 459 179 l 1,0,-1
EndSplineSet
Substitution2: "'ss08' Style Set 8 in Latin lookup 17 subtable" four.halfcircleleft.bl
Substitution2: "'ss07' Style Set 7 in Latin lookup 15 subtable" four.halfcircleleft.wt
Substitution2: "'ss06' Style Set 6 in Latin lookup 14 subtable" four.small.black
Substitution2: "'ss05' Style Set 5 in Latin lookup 13 subtable" four.small.white
Substitution2: "'ss04' Style Set 4 in Latin lookup 12 subtable" four.circle.white
Substitution2: "'ss03' Style Set 3 in Latin lookup 11 subtable" four.circle.black
Substitution2: "'onum' Oldstyle Figures in Latin lookup 2 subtable" four.onum
EndChar

StartChar: five
Encoding: 53 53 24
Width: 500
GlyphClass: 2
Flags: W
LayerCount: 2
Fore
SplineSet
396.5 353 m 128,-1,1
 446 301 446 301 446 204 c 128,-1,2
 446 107 446 107 391.5 48.5 c 128,-1,3
 337 -10 337 -10 238 -10 c 0,4,5
 159 -10 159 -10 57 32 c 1,6,-1
 76 83 l 1,7,8
 168 42 168 42 239 42 c 128,-1,9
 310 42 310 42 349 87.5 c 128,-1,10
 388 133 388 133 388 205 c 128,-1,11
 388 277 388 277 352.5 315 c 128,-1,12
 317 353 317 353 251.5 353 c 128,-1,13
 186 353 186 353 118 295 c 1,14,-1
 81 306 l 1,15,-1
 91 634 l 1,16,-1
 425 634 l 1,17,-1
 425 579 l 1,18,-1
 141 579 l 1,19,-1
 134 362 l 1,20,21
 194 405 194 405 257 405 c 0,22,0
 347 405 347 405 396.5 353 c 128,-1,1
EndSplineSet
Substitution2: "'ss08' Style Set 8 in Latin lookup 17 subtable" five.halfcircleleft.bl
Substitution2: "'ss07' Style Set 7 in Latin lookup 15 subtable" five.halfcircleleft.wt
Substitution2: "'ss06' Style Set 6 in Latin lookup 14 subtable" five.small.black
Substitution2: "'ss05' Style Set 5 in Latin lookup 13 subtable" five.small.white
Substitution2: "'ss04' Style Set 4 in Latin lookup 12 subtable" five.circle.white
Substitution2: "'ss03' Style Set 3 in Latin lookup 11 subtable" five.circle.black
Substitution2: "'onum' Oldstyle Figures in Latin lookup 2 subtable" five.onum
EndChar

StartChar: six
Encoding: 54 54 25
Width: 500
GlyphClass: 2
Flags: W
LayerCount: 2
Fore
SplineSet
403 353 m 128,-1,1
 454 302 454 302 454 203.5 c 128,-1,2
 454 105 454 105 402 47.5 c 128,-1,3
 350 -10 350 -10 255.5 -10 c 128,-1,4
 161 -10 161 -10 107.5 47 c 128,-1,5
 54 104 54 104 54 214 c 128,-1,6
 54 324 54 324 85.5 403 c 128,-1,7
 117 482 117 482 181 538.5 c 128,-1,8
 245 595 245 595 359 651 c 1,9,-1
 381 602 l 1,10,11
 251 537 251 537 197.5 480.5 c 128,-1,12
 144 424 144 424 122 340 c 1,13,14
 186 404 186 404 255 404 c 0,15,0
 352 404 352 404 403 353 c 128,-1,1
396 205 m 0,16,17
 396 352 396 352 255 352 c 0,18,19
 196 352 196 352 154 310.5 c 128,-1,20
 112 269 112 269 112 208 c 0,21,22
 112 42 112 42 255 42 c 0,23,24
 324 42 324 42 360 85 c 128,-1,25
 396 128 396 128 396 205 c 0,16,17
EndSplineSet
Substitution2: "'ss08' Style Set 8 in Latin lookup 17 subtable" six.halfcircleleft.bl
Substitution2: "'ss07' Style Set 7 in Latin lookup 15 subtable" six.halfcircleleft.wt
Substitution2: "'ss06' Style Set 6 in Latin lookup 14 subtable" six.small.black
Substitution2: "'ss05' Style Set 5 in Latin lookup 13 subtable" six.small.white
Substitution2: "'ss04' Style Set 4 in Latin lookup 12 subtable" six.circle.white
Substitution2: "'ss03' Style Set 3 in Latin lookup 11 subtable" six.circle.black
Substitution2: "'onum' Oldstyle Figures in Latin lookup 2 subtable" six.onum
EndChar

StartChar: seven
Encoding: 55 55 26
Width: 500
GlyphClass: 2
Flags: W
LayerCount: 2
Fore
SplineSet
56 529 m 1,0,-1
 75 634 l 1,1,-1
 430 634 l 1,2,-1
 430 578 l 1,3,4
 424 518 424 518 317 327 c 0,5,6
 278 257 278 257 245.5 165.5 c 128,-1,7
 213 74 213 74 213 0 c 1,8,-1
 154 0 l 1,9,10
 154 77 154 77 186 172 c 0,11,12
 218 266 218 266 258 338 c 1,13,-1
 334 480 l 1,14,15
 370 550 370 550 373 582 c 1,16,-1
 119 582 l 1,17,-1
 105 525 l 1,18,-1
 56 529 l 1,0,-1
EndSplineSet
Substitution2: "'ss08' Style Set 8 in Latin lookup 17 subtable" seven.halfcircleleft.bl
Substitution2: "'ss07' Style Set 7 in Latin lookup 15 subtable" seven.halfcircleleft.wt
Substitution2: "'ss06' Style Set 6 in Latin lookup 14 subtable" seven.small.black
Substitution2: "'ss05' Style Set 5 in Latin lookup 13 subtable" seven.small.white
Substitution2: "'ss04' Style Set 4 in Latin lookup 12 subtable" seven.circle.white
Substitution2: "'ss03' Style Set 3 in Latin lookup 11 subtable" seven.circle.black
Substitution2: "'onum' Oldstyle Figures in Latin lookup 2 subtable" seven.onum
EndChar

StartChar: eight
Encoding: 56 56 27
Width: 500
GlyphClass: 2
Flags: W
LayerCount: 2
Fore
SplineSet
50 166 m 0,0,1
 50 284 50 284 156 324 c 1,2,3
 63 370 63 370 63 472 c 0,4,5
 63 548 63 548 112.5 595.5 c 128,-1,6
 162 643 162 643 252.5 643 c 128,-1,7
 343 643 343 643 392 595.5 c 128,-1,8
 441 548 441 548 441 472 c 0,9,10
 441 365 441 365 347 326 c 1,11,12
 455 286 455 286 455 166 c 0,13,14
 455 85 455 85 402.5 37.5 c 128,-1,15
 350 -10 350 -10 252 -10 c 128,-1,16
 154 -10 154 -10 102 37.5 c 128,-1,17
 50 85 50 85 50 166 c 0,0,1
145.5 264 m 128,-1,19
 108 229 108 229 108 168 c 128,-1,20
 108 107 108 107 145 74 c 128,-1,21
 182 41 182 41 252 41 c 128,-1,22
 322 41 322 41 359.5 74.5 c 128,-1,23
 397 108 397 108 397 168.5 c 128,-1,24
 397 229 397 229 360 264 c 128,-1,25
 323 299 323 299 253 299 c 128,-1,18
 183 299 183 299 145.5 264 c 128,-1,19
152.5 560 m 128,-1,27
 120 528 120 528 120 473 c 128,-1,28
 120 418 120 418 152.5 383.5 c 128,-1,29
 185 349 185 349 252.5 349 c 128,-1,30
 320 349 320 349 352 382 c 128,-1,31
 384 415 384 415 384 471.5 c 128,-1,32
 384 528 384 528 351.5 560 c 128,-1,33
 319 592 319 592 252 592 c 128,-1,26
 185 592 185 592 152.5 560 c 128,-1,27
EndSplineSet
Substitution2: "'ss08' Style Set 8 in Latin lookup 17 subtable" eight.halfcircleleft.bl
Substitution2: "'ss07' Style Set 7 in Latin lookup 15 subtable" eight.halfcircleleft.wt
Substitution2: "'ss06' Style Set 6 in Latin lookup 14 subtable" eight.small.black
Substitution2: "'ss05' Style Set 5 in Latin lookup 13 subtable" eight.small.white
Substitution2: "'ss04' Style Set 4 in Latin lookup 12 subtable" eight.circle.white
Substitution2: "'ss03' Style Set 3 in Latin lookup 11 subtable" eight.circle.black
Substitution2: "'onum' Oldstyle Figures in Latin lookup 2 subtable" eight.onum
EndChar

StartChar: nine
Encoding: 57 57 28
Width: 500
GlyphClass: 2
Flags: W
LayerCount: 2
Fore
SplineSet
114 290.5 m 128,-1,1
 63 342 63 342 63 435.5 c 128,-1,2
 63 529 63 529 117 586 c 128,-1,3
 171 643 171 643 261.5 643 c 128,-1,4
 352 643 352 643 403 588 c 128,-1,5
 454 533 454 533 454 435 c 0,6,7
 454 300 454 300 407 200 c 128,-1,8
 360 100 360 100 254 -17 c 1,9,-1
 187 -6 l 1,10,11
 281 96 281 96 322.5 162 c 128,-1,12
 364 228 364 228 386 303 c 1,13,14
 322 239 322 239 258 239 c 0,15,0
 165 239 165 239 114 290.5 c 128,-1,1
121 438 m 0,16,17
 121 291 121 291 258 291 c 0,18,19
 317 291 317 291 356.5 332 c 128,-1,20
 396 373 396 373 396 435 c 0,21,22
 396 591 396 591 259 591 c 0,23,24
 194 591 194 591 157.5 549 c 128,-1,25
 121 507 121 507 121 438 c 0,16,17
EndSplineSet
Substitution2: "'ss08' Style Set 8 in Latin lookup 17 subtable" nine.halfcircleleft.bl
Substitution2: "'ss07' Style Set 7 in Latin lookup 15 subtable" nine.halfcircleleft.wt
Substitution2: "'ss06' Style Set 6 in Latin lookup 14 subtable" nine.small.black
Substitution2: "'ss05' Style Set 5 in Latin lookup 13 subtable" nine.small.white
Substitution2: "'ss04' Style Set 4 in Latin lookup 12 subtable" nine.circle.white
Substitution2: "'ss03' Style Set 3 in Latin lookup 11 subtable" nine.circle.black
Substitution2: "'onum' Oldstyle Figures in Latin lookup 2 subtable" nine.onum
EndChar

StartChar: colon
Encoding: 58 58 29
Width: 500
GlyphClass: 2
Flags: W
LayerCount: 2
Fore
SplineSet
174 0 m 1,0,-1
 174 121 l 1,1,-1
 284 121 l 1,2,-1
 284 0 l 1,3,-1
 174 0 l 1,0,-1
174 290 m 1,4,-1
 174 411 l 1,5,-1
 284 411 l 1,6,-1
 284 290 l 1,7,-1
 174 290 l 1,4,-1
EndSplineSet
Substitution2: "'ss01' Style Set 1 in Latin lookup 9 subtable" colon.bi
EndChar

StartChar: semicolon
Encoding: 59 59 30
Width: 500
GlyphClass: 2
Flags: W
LayerCount: 2
Fore
SplineSet
173 303 m 1,0,-1
 173 405 l 1,1,-1
 265 405 l 1,2,-1
 265 303 l 1,3,-1
 173 303 l 1,0,-1
173 0 m 1,4,-1
 173 112 l 1,5,-1
 268 112 l 1,6,-1
 268 30 l 2,7,8
 268 -60 268 -60 191 -143 c 1,9,-1
 164 -119 l 1,10,11
 209 -53 209 -53 213 0 c 1,12,-1
 173 0 l 1,4,-1
EndSplineSet
Substitution2: "'ss01' Style Set 1 in Latin lookup 9 subtable" semicolon.bi
EndChar

StartChar: less
Encoding: 60 60 31
Width: 500
GlyphClass: 2
Flags: W
LayerCount: 2
Fore
SplineSet
450 502 m 1,0,-1
 104 292 l 1,1,-1
 449 72 l 1,2,-1
 423 31 l 1,3,-1
 44 276 l 1,4,-1
 44 308 l 1,5,-1
 423 543 l 1,6,-1
 450 502 l 1,0,-1
EndSplineSet
EndChar

StartChar: equal
Encoding: 61 61 32
Width: 500
GlyphClass: 2
Flags: W
LayerCount: 2
Fore
SplineSet
25 207 m 1,0,-1
 474 207 l 1,1,-1
 474 163 l 1,2,-1
 25 163 l 1,3,-1
 25 207 l 1,0,-1
25 375 m 1,4,-1
 474 375 l 1,5,-1
 474 331 l 1,6,-1
 25 331 l 1,7,-1
 25 375 l 1,4,-1
EndSplineSet
Substitution2: "'calt' Contextual Alternates in Latin lookup 0 subtable" equal.calt
EndChar

StartChar: greater
Encoding: 62 62 33
Width: 500
GlyphClass: 2
Flags: W
LayerCount: 2
Fore
SplineSet
390 292 m 1,0,-1
 44 502 l 1,1,-1
 71 543 l 1,2,-1
 450 308 l 1,3,-1
 450 276 l 1,4,-1
 71 31 l 1,5,-1
 45 72 l 1,6,-1
 390 292 l 1,0,-1
EndSplineSet
EndChar

StartChar: question
Encoding: 63 63 34
Width: 500
GlyphClass: 2
Flags: W
LayerCount: 2
Fore
SplineSet
195 -6 m 1,0,-1
 195 87 l 1,1,-1
 280 87 l 1,2,-1
 280 -6 l 1,3,-1
 195 -6 l 1,0,-1
377.5 643.5 m 128,-1,5
 426 604 426 604 426 539.5 c 128,-1,6
 426 475 426 475 408 439.5 c 128,-1,7
 390 404 390 404 337 354.5 c 128,-1,8
 284 305 284 305 270.5 283 c 128,-1,9
 257 261 257 261 257 229 c 128,-1,10
 257 197 257 197 259 161 c 1,11,-1
 207 159 l 1,12,13
 199 191 199 191 199 233.5 c 128,-1,14
 199 276 199 276 216 303.5 c 128,-1,15
 233 331 233 331 286 381 c 128,-1,16
 339 431 339 431 353.5 459 c 128,-1,17
 368 487 368 487 368 532 c 128,-1,18
 368 577 368 577 337.5 604 c 128,-1,19
 307 631 307 631 262 631 c 128,-1,20
 217 631 217 631 182 612.5 c 128,-1,21
 147 594 147 594 98 556 c 1,22,-1
 68 597 l 1,23,24
 124 641 124 641 166 662 c 128,-1,25
 208 683 208 683 256 683 c 0,26,4
 329 683 329 683 377.5 643.5 c 128,-1,5
EndSplineSet
EndChar

StartChar: at
Encoding: 64 64 35
Width: 500
GlyphClass: 2
Flags: W
LayerCount: 2
Fore
SplineSet
115.5 -29 m 128,-1,1
 55 51 55 51 55 206.5 c 128,-1,2
 55 362 55 362 116.5 443.5 c 128,-1,3
 178 525 178 525 292 525 c 0,4,5
 339 525 339 525 378.5 515.5 c 128,-1,6
 418 506 418 506 434 496 c 1,7,-1
 451 487 l 1,8,-1
 451 54 l 1,9,10
 394 27 394 27 311 27 c 0,11,12
 179 27 179 27 181 216 c 0,13,14
 182 280 182 280 206 330 c 0,15,16
 235 390 235 390 311 389 c 0,17,18
 352 389 352 389 397 377 c 1,19,-1
 397 458 l 1,20,21
 359 477 359 477 292 477 c 0,22,23
 207 477 207 477 157.5 408.5 c 128,-1,24
 108 340 108 340 108 207 c 128,-1,25
 108 74 108 74 157.5 7 c 128,-1,26
 207 -60 207 -60 276 -60 c 128,-1,27
 345 -60 345 -60 432 -33 c 1,28,-1
 445 -81 l 1,29,30
 363 -109 363 -109 281 -109 c 0,31,0
 176 -109 176 -109 115.5 -29 c 128,-1,1
235 216 m 0,32,33
 235 148 235 148 251.5 112 c 128,-1,34
 268 76 268 76 317 76 c 0,35,36
 346 76 346 76 386 84 c 1,37,-1
 397 87 l 1,38,-1
 397 325 l 1,39,40
 372 339 372 339 313 339 c 0,41,42
 235 339 235 339 235 216 c 0,32,33
EndSplineSet
EndChar

StartChar: A
Encoding: 65 65 36
Width: 500
GlyphClass: 2
Flags: W
LayerCount: 2
Fore
SplineSet
17 0 m 1,0,-1
 205 655 l 1,1,-1
 301 655 l 1,2,-1
 482 0 l 1,3,-1
 423 0 l 1,4,-1
 382 151 l 1,5,-1
 117 151 l 1,6,-1
 75 0 l 1,7,-1
 17 0 l 1,0,-1
369 201 m 1,8,-1
 261 605 l 1,9,-1
 244 605 l 1,10,-1
 131 201 l 1,11,-1
 369 201 l 1,8,-1
EndSplineSet
EndChar

StartChar: B
Encoding: 66 66 37
Width: 500
GlyphClass: 2
Flags: W
LayerCount: 2
Fore
SplineSet
67 0 m 1,0,-1
 67 655 l 1,1,-1
 221 655 l 2,2,3
 331 655 331 655 384.5 615.5 c 128,-1,4
 438 576 438 576 438 485 c 0,5,6
 438 371 438 371 327 337 c 1,7,8
 393 322 393 322 424.5 287 c 128,-1,9
 456 252 456 252 456 185 c 0,10,11
 456 79 456 79 396 39.5 c 128,-1,12
 336 0 336 0 212 0 c 2,13,-1
 67 0 l 1,0,-1
398 185 m 0,14,15
 398 307 398 307 232 307 c 2,16,-1
 122 307 l 1,17,-1
 122 49 l 1,18,-1
 212 49 l 2,19,20
 305 49 305 49 351.5 78.5 c 128,-1,21
 398 108 398 108 398 185 c 0,14,15
328 588 m 0,22,23
 285 606 285 606 221 606 c 2,24,-1
 122 606 l 1,25,-1
 122 356 l 1,26,-1
 229 356 l 2,27,28
 292 356 292 356 336 384.5 c 128,-1,29
 380 413 380 413 381 489 c 128,-1,30
 382 565 382 565 328 588 c 0,22,23
EndSplineSet
EndChar

StartChar: C
Encoding: 67 67 38
Width: 500
GlyphClass: 2
Flags: W
LayerCount: 2
Fore
SplineSet
111 70 m 128,-1,1
 55 150 55 150 55 327 c 128,-1,2
 55 504 55 504 109 584.5 c 128,-1,3
 163 665 163 665 282 665 c 0,4,5
 360 665 360 665 439 640 c 1,6,-1
 439 508 l 1,7,-1
 384 508 l 1,8,-1
 384 597 l 1,9,10
 340 613 340 613 282 613 c 0,11,12
 192 613 192 613 153 546 c 128,-1,13
 114 479 114 479 114 329 c 128,-1,14
 114 179 114 179 156 111 c 128,-1,15
 198 43 198 43 282 43 c 0,16,17
 345 43 345 43 432 70 c 1,18,-1
 445 18 l 1,19,20
 363 -10 363 -10 281 -10 c 0,21,0
 167 -10 167 -10 111 70 c 128,-1,1
EndSplineSet
Substitution2: "'calt' Contextual Alternates in Latin lookup 0 subtable" C.calt
EndChar

StartChar: D
Encoding: 68 68 39
Width: 500
GlyphClass: 2
Flags: W
LayerCount: 2
Fore
SplineSet
60 0 m 1,0,-1
 60 655 l 1,1,-1
 194 655 l 2,2,3
 268 655 268 655 315.5 640.5 c 128,-1,4
 363 626 363 626 396 589 c 128,-1,5
 429 552 429 552 443.5 488.5 c 128,-1,6
 458 425 458 425 458 327.5 c 128,-1,7
 458 230 458 230 442 165.5 c 128,-1,8
 426 101 426 101 391 65 c 128,-1,9
 356 29 356 29 309 14.5 c 128,-1,10
 262 0 262 0 192 0 c 2,11,-1
 60 0 l 1,0,-1
376.5 154.5 m 128,-1,13
 399 215 399 215 399 327.5 c 128,-1,14
 399 440 399 440 377 500.5 c 128,-1,15
 355 561 355 561 313 583 c 128,-1,16
 271 605 271 605 194 605 c 2,17,-1
 115 605 l 1,18,-1
 115 50 l 1,19,-1
 192 50 l 2,20,21
 269 50 269 50 311.5 72 c 128,-1,12
 354 94 354 94 376.5 154.5 c 128,-1,13
EndSplineSet
EndChar

StartChar: E
Encoding: 69 69 40
Width: 500
GlyphClass: 2
Flags: W
LayerCount: 2
Fore
SplineSet
82 0 m 1,0,-1
 82 655 l 1,1,-1
 423 655 l 1,2,-1
 423 606 l 1,3,-1
 137 606 l 1,4,-1
 137 358 l 1,5,-1
 396 358 l 1,6,-1
 396 309 l 1,7,-1
 137 309 l 1,8,-1
 137 49 l 1,9,-1
 426 49 l 1,10,-1
 426 0 l 1,11,-1
 82 0 l 1,0,-1
EndSplineSet
EndChar

StartChar: F
Encoding: 70 70 41
Width: 500
GlyphClass: 2
Flags: W
LayerCount: 2
Fore
SplineSet
86 0 m 1,0,-1
 86 655 l 1,1,-1
 428 655 l 1,2,-1
 428 604 l 1,3,-1
 141 604 l 1,4,-1
 141 318 l 1,5,-1
 387 318 l 1,6,-1
 387 268 l 1,7,-1
 141 268 l 1,8,-1
 141 0 l 1,9,-1
 86 0 l 1,0,-1
EndSplineSet
EndChar

StartChar: G
Encoding: 71 71 42
Width: 500
GlyphClass: 2
Flags: W
LayerCount: 2
Fore
SplineSet
94 70 m 128,-1,1
 38 150 38 150 38 327.5 c 128,-1,2
 38 505 38 505 93 585 c 128,-1,3
 148 665 148 665 272 665 c 0,4,5
 353 665 353 665 442 633 c 1,6,-1
 428 582 l 1,7,8
 337 613 337 613 272 613 c 0,9,10
 178 613 178 613 137.5 546.5 c 128,-1,11
 97 480 97 480 97 329.5 c 128,-1,12
 97 179 97 179 139 110.5 c 128,-1,13
 181 42 181 42 266 42 c 0,14,15
 317 42 317 42 389 66 c 1,16,-1
 389 266 l 1,17,-1
 276 266 l 1,18,-1
 276 315 l 1,19,-1
 444 315 l 1,20,-1
 444 27 l 1,21,22
 341 -10 341 -10 266 -10 c 0,23,0
 150 -10 150 -10 94 70 c 128,-1,1
EndSplineSet
Substitution2: "'salt' Stylistic Alternatives in Latin lookup 1 subtable" G.001
EndChar

StartChar: H
Encoding: 72 72 43
Width: 500
GlyphClass: 2
Flags: W
LayerCount: 2
Fore
SplineSet
54 0 m 1,0,-1
 54 655 l 1,1,-1
 109 655 l 1,2,-1
 109 351 l 1,3,-1
 391 351 l 1,4,-1
 391 655 l 1,5,-1
 446 655 l 1,6,-1
 446 0 l 1,7,-1
 391 0 l 1,8,-1
 391 300 l 1,9,-1
 109 300 l 1,10,-1
 109 0 l 1,11,-1
 54 0 l 1,0,-1
EndSplineSet
EndChar

StartChar: I
Encoding: 73 73 44
Width: 500
GlyphClass: 2
Flags: W
LayerCount: 2
Fore
SplineSet
111 0 m 1,0,-1
 111 50 l 1,1,-1
 224 50 l 1,2,-1
 224 605 l 1,3,-1
 111 605 l 1,4,-1
 111 655 l 1,5,-1
 390 655 l 1,6,-1
 390 605 l 1,7,-1
 279 605 l 1,8,-1
 279 50 l 1,9,-1
 390 50 l 1,10,-1
 390 0 l 1,11,-1
 111 0 l 1,0,-1
EndSplineSet
Substitution2: "'ss01' Style Set 1 in Latin lookup 9 subtable" I.bi
Substitution2: "'swsh' Swash in Latin lookup 8 subtable" I.swsh
EndChar

StartChar: J
Encoding: 74 74 45
Width: 500
GlyphClass: 2
Flags: W
LayerCount: 2
Fore
SplineSet
312 605 m 1,0,-1
 312 215 l 2,1,2
 312 79 312 79 288.5 34.5 c 128,-1,3
 265 -10 265 -10 178 -11 c 0,4,5
 161 -11 161 -11 119 -5 c 128,-1,6
 77 1 77 1 58 6 c 1,7,-1
 69 58 l 1,8,9
 137 41 137 41 183 41 c 128,-1,10
 229 41 229 41 243 71.5 c 128,-1,11
 257 102 257 102 257 218 c 2,12,-1
 257 605 l 1,13,-1
 96 605 l 1,14,-1
 96 655 l 1,15,-1
 363 655 l 1,16,-1
 363 605 l 1,17,-1
 312 605 l 1,0,-1
EndSplineSet
Substitution2: "'ss01' Style Set 1 in Latin lookup 9 subtable" J.bi
Substitution2: "'calt' Contextual Alternates in Latin lookup 0 subtable" J.calt
EndChar

StartChar: K
Encoding: 75 75 46
Width: 500
GlyphClass: 2
Flags: W
LayerCount: 2
Fore
SplineSet
390 655 m 1,0,-1
 453 655 l 1,1,2
 353 455 353 455 274 337 c 1,3,4
 304 292 304 292 350 208 c 1,5,-1
 460 0 l 1,6,-1
 393 0 l 1,7,8
 281 219 281 219 227 305 c 1,9,-1
 126 295 l 1,10,-1
 126 0 l 1,11,-1
 71 0 l 1,12,-1
 71 655 l 1,13,-1
 126 655 l 1,14,-1
 126 346 l 1,15,-1
 223 356 l 1,16,17
 294 464 294 464 364 604 c 1,18,-1
 390 655 l 1,0,-1
EndSplineSet
Substitution2: "'calt' Contextual Alternates in Latin lookup 0 subtable" K.calt
EndChar

StartChar: L
Encoding: 76 76 47
Width: 500
GlyphClass: 2
Flags: W
LayerCount: 2
Fore
SplineSet
419 51 m 1,0,-1
 419 0 l 1,1,-1
 91 0 l 1,2,-1
 91 655 l 1,3,-1
 146 655 l 1,4,-1
 146 51 l 1,5,-1
 419 51 l 1,0,-1
EndSplineSet
EndChar

StartChar: M
Encoding: 77 77 48
Width: 500
GlyphClass: 2
Flags: W
LayerCount: 2
Fore
SplineSet
48 0 m 1,0,-1
 48 655 l 1,1,-1
 101 655 l 1,2,-1
 242 288 l 1,3,-1
 257 288 l 1,4,-1
 398 655 l 1,5,-1
 451 655 l 1,6,-1
 451 0 l 1,7,-1
 397 0 l 1,8,-1
 397 508 l 1,9,-1
 393 508 l 1,10,-1
 288 237 l 1,11,-1
 211 237 l 1,12,-1
 106 509 l 1,13,-1
 102 509 l 1,14,-1
 102 0 l 1,15,-1
 48 0 l 1,0,-1
EndSplineSet
Substitution2: "'ss02' Style Set 2 in Latin lookup 10 subtable" M.tri
EndChar

StartChar: N
Encoding: 78 78 49
Width: 500
GlyphClass: 2
Flags: W
LayerCount: 2
Fore
SplineSet
394 0 m 1,0,-1
 394 103 l 1,1,-1
 109 551 l 1,2,-1
 106 551 l 1,3,-1
 106 0 l 1,4,-1
 51 0 l 1,5,-1
 51 655 l 1,6,-1
 105 655 l 1,7,-1
 391 202 l 1,8,-1
 394 202 l 1,9,-1
 394 655 l 1,10,-1
 449 655 l 1,11,-1
 449 0 l 1,12,-1
 394 0 l 1,0,-1
EndSplineSet
EndChar

StartChar: O
Encoding: 79 79 50
Width: 500
GlyphClass: 2
Flags: W
LayerCount: 2
Fore
SplineSet
40 334 m 0,0,1
 40 412 40 412 50 469 c 256,2,3
 60 526 60 526 82 572 c 0,4,5
 127 665 127 665 250 665 c 0,6,7
 390 664 390 664 434 534 c 0,8,9
 460 459 460 459 460 357.5 c 128,-1,10
 460 256 460 256 450 196 c 128,-1,11
 440 136 440 136 418 88 c 0,12,13
 372 -10 372 -10 250 -10 c 0,14,15
 130 -10 130 -10 83 88 c 0,16,17
 40 177 40 177 40 334 c 0,0,1
401 326 m 0,18,19
 401 380 401 380 398.5 413 c 128,-1,20
 396 446 396 446 387 486 c 128,-1,21
 378 526 378 526 362.5 552 c 128,-1,22
 347 578 347 578 318.5 595.5 c 128,-1,23
 290 613 290 613 250 613 c 128,-1,24
 210 613 210 613 181.5 595.5 c 128,-1,25
 153 578 153 578 137.5 552 c 128,-1,26
 122 526 122 526 113 486 c 0,27,28
 99 424 99 424 99 348.5 c 128,-1,29
 99 273 99 273 104.5 226.5 c 128,-1,30
 110 180 110 180 125 135 c 0,31,32
 156 42 156 42 250 42 c 0,33,34
 346 42 346 42 376 136 c 0,35,36
 402 216 402 216 401 326 c 0,18,19
EndSplineSet
EndChar

StartChar: P
Encoding: 80 80 51
Width: 500
GlyphClass: 2
Flags: W
LayerCount: 2
Fore
SplineSet
216 240 m 2,0,-1
 124 240 l 1,1,-1
 124 0 l 1,2,-1
 69 0 l 1,3,-1
 69 655 l 1,4,-1
 216 655 l 2,5,6
 336 655 336 655 393.5 609.5 c 128,-1,7
 451 564 451 564 451 452 c 128,-1,8
 451 340 451 340 393 290 c 128,-1,9
 335 240 335 240 216 240 c 2,0,-1
216 605 m 2,10,-1
 124 605 l 1,11,-1
 124 290 l 1,12,-1
 216 290 l 2,13,14
 308 290 308 290 350.5 327 c 128,-1,15
 393 364 393 364 393 451 c 128,-1,16
 393 538 393 538 351 571.5 c 128,-1,17
 309 605 309 605 216 605 c 2,10,-1
EndSplineSet
EndChar

StartChar: Q
Encoding: 81 81 52
Width: 500
GlyphClass: 2
Flags: W
LayerCount: 2
Fore
SplineSet
425 -73 m 1,0,-1
 360 20 l 1,1,2
 316 -10 316 -10 253 -10 c 128,-1,3
 190 -10 190 -10 148 15 c 128,-1,4
 106 40 106 40 83 88 c 0,5,6
 40 178 40 178 40 336 c 0,7,8
 40 582 40 582 146 642 c 0,9,10
 188 666 188 666 243.5 665.5 c 128,-1,11
 299 665 299 665 336 649 c 128,-1,12
 373 633 373 633 396 605 c 0,13,14
 420 576 420 576 434 534 c 0,15,16
 460 459 460 459 460 336 c 0,17,18
 460 140 460 140 398 58 c 1,19,-1
 457 -30 l 1,20,-1
 425 -73 l 1,0,-1
100.5 400 m 128,-1,22
 99 372 99 372 99 322.5 c 128,-1,23
 99 273 99 273 104.5 226.5 c 128,-1,24
 110 180 110 180 125 134 c 0,25,26
 156 41 156 41 250 41 c 0,27,28
 294 41 294 41 324 63 c 1,29,-1
 268 118 l 1,30,-1
 293 170 l 1,31,-1
 360 102 l 1,32,33
 401 171 401 171 401 336 c 1,34,35
 402 466 402 466 378 522 c 0,36,37
 352 584 352 584 309 602 c 1,38,39
 283 614 283 614 250 614 c 128,-1,40
 217 614 217 614 191 602.5 c 128,-1,41
 165 591 165 591 149 569 c 128,-1,42
 133 547 133 547 122.5 522 c 128,-1,43
 112 497 112 497 107 462.5 c 128,-1,21
 102 428 102 428 100.5 400 c 128,-1,22
EndSplineSet
Substitution2: "'calt' Contextual Alternates in Latin lookup 0 subtable" Q.calt
EndChar

StartChar: R
Encoding: 82 82 53
Width: 500
GlyphClass: 2
Flags: W
LayerCount: 2
Fore
SplineSet
268 269 m 1,0,1
 214 266 214 266 198 266 c 2,2,-1
 116 266 l 1,3,-1
 116 0 l 1,4,-1
 61 0 l 1,5,-1
 61 655 l 1,6,-1
 208 655 l 2,7,8
 330 655 330 655 387 613 c 128,-1,9
 444 571 444 571 444 465 c 0,10,11
 444 394 444 394 415.5 351 c 128,-1,12
 387 308 387 308 324 281 c 1,13,14
 392 152 392 152 448 0 c 1,15,-1
 388 0 l 1,16,17
 333 146 333 146 268 269 c 1,0,1
206 605 m 2,18,-1
 116 605 l 1,19,-1
 116 316 l 1,20,-1
 196 316 l 2,21,22
 288 316 288 316 337 349.5 c 128,-1,23
 386 383 386 383 386 465 c 128,-1,24
 386 547 386 547 342.5 576 c 128,-1,25
 299 605 299 605 206 605 c 2,18,-1
EndSplineSet
EndChar

StartChar: S
Encoding: 83 83 54
Width: 500
GlyphClass: 2
Flags: W
LayerCount: 2
Fore
SplineSet
95.5 377.5 m 128,-1,1
 54 419 54 419 54 498 c 128,-1,2
 54 577 54 577 108.5 621 c 128,-1,3
 163 665 163 665 249 665 c 128,-1,4
 335 665 335 665 424 634 c 1,5,-1
 410 583 l 1,6,7
 327 613 327 613 257.5 613 c 128,-1,8
 188 613 188 613 151 583.5 c 128,-1,9
 114 554 114 554 114 498 c 128,-1,10
 114 442 114 442 144 413 c 128,-1,11
 174 384 174 384 263.5 360.5 c 128,-1,12
 353 337 353 337 393 298.5 c 128,-1,13
 433 260 433 260 433 174.5 c 128,-1,14
 433 89 433 89 375.5 39.5 c 128,-1,15
 318 -10 318 -10 227 -10 c 0,16,17
 159 -10 159 -10 55 19 c 1,18,-1
 68 70 l 1,19,20
 170 42 170 42 232 42 c 128,-1,21
 294 42 294 42 334 76.5 c 128,-1,22
 374 111 374 111 374 173 c 128,-1,23
 374 235 374 235 345 264 c 128,-1,24
 316 293 316 293 226.5 314.5 c 128,-1,0
 137 336 137 336 95.5 377.5 c 128,-1,1
EndSplineSet
EndChar

StartChar: T
Encoding: 84 84 55
Width: 500
GlyphClass: 2
Flags: W
LayerCount: 2
Fore
SplineSet
48 604 m 1,0,-1
 48 655 l 1,1,-1
 450 655 l 1,2,-1
 450 604 l 1,3,-1
 276 604 l 1,4,-1
 276 0 l 1,5,-1
 221 0 l 1,6,-1
 221 604 l 1,7,-1
 48 604 l 1,0,-1
EndSplineSet
EndChar

StartChar: U
Encoding: 85 85 56
Width: 500
GlyphClass: 2
Flags: W
LayerCount: 2
Fore
SplineSet
54 189 m 2,0,-1
 54 655 l 1,1,-1
 109 655 l 1,2,-1
 109 196 l 2,3,4
 109 42 109 42 250 42 c 0,5,6
 321 42 321 42 356 84.5 c 128,-1,7
 391 127 391 127 391 196 c 2,8,-1
 391 655 l 1,9,-1
 446 655 l 1,10,-1
 446 189 l 2,11,12
 446 92 446 92 395.5 41 c 128,-1,13
 345 -10 345 -10 248 -10 c 128,-1,14
 151 -10 151 -10 102.5 43 c 128,-1,15
 54 96 54 96 54 189 c 2,0,-1
EndSplineSet
EndChar

StartChar: V
Encoding: 86 86 57
Width: 500
GlyphClass: 2
Flags: W
LayerCount: 2
Fore
SplineSet
43 655 m 1,0,-1
 102 655 l 1,1,-1
 247 49 l 1,2,-1
 257 49 l 1,3,-1
 401 655 l 1,4,-1
 459 655 l 1,5,-1
 298 0 l 1,6,-1
 204 0 l 1,7,-1
 43 655 l 1,0,-1
EndSplineSet
Substitution2: "'calt' Contextual Alternates in Latin lookup 0 subtable" V.calt
EndChar

StartChar: W
Encoding: 87 87 58
Width: 500
GlyphClass: 2
Flags: W
LayerCount: 2
Fore
SplineSet
75 0 m 1,0,-1
 2 655 l 1,1,-1
 59 655 l 1,2,-1
 126 50 l 1,3,-1
 137 50 l 1,4,-1
 225 366 l 1,5,-1
 278 366 l 1,6,-1
 362 50 l 1,7,-1
 374 50 l 1,8,-1
 441 655 l 1,9,-1
 498 655 l 1,10,-1
 425 0 l 1,11,-1
 324 0 l 1,12,-1
 252 282 l 1,13,-1
 249 282 l 1,14,-1
 174 0 l 1,15,-1
 75 0 l 1,0,-1
EndSplineSet
Substitution2: "'ss02' Style Set 2 in Latin lookup 10 subtable" W.tri
Substitution2: "'titl' Titling in Latin lookup 7 subtable" W.titl
EndChar

StartChar: X
Encoding: 88 88 59
Width: 500
GlyphClass: 2
Flags: W
LayerCount: 2
Fore
SplineSet
239 287 m 1,0,-1
 112 0 l 1,1,-1
 44 0 l 1,2,-1
 205 336 l 1,3,-1
 52 655 l 1,4,-1
 122 655 l 1,5,-1
 244 385 l 1,6,-1
 246 385 l 1,7,-1
 367 655 l 1,8,-1
 434 655 l 1,9,-1
 280 336 l 1,10,-1
 450 0 l 1,11,-1
 378 0 l 1,12,-1
 241 287 l 1,13,-1
 239 287 l 1,0,-1
EndSplineSet
EndChar

StartChar: Y
Encoding: 89 89 60
Width: 500
GlyphClass: 2
Flags: W
LayerCount: 2
Fore
SplineSet
276 283 m 1,0,-1
 276 0 l 1,1,-1
 222 0 l 1,2,-1
 222 283 l 1,3,-1
 29 655 l 1,4,-1
 95 655 l 1,5,-1
 248 340 l 1,6,-1
 250 340 l 1,7,-1
 403 655 l 1,8,-1
 469 655 l 1,9,-1
 276 283 l 1,0,-1
EndSplineSet
EndChar

StartChar: Z
Encoding: 90 90 61
Width: 500
GlyphClass: 2
Flags: W
LayerCount: 2
Fore
SplineSet
70 605 m 1,0,-1
 70 655 l 1,1,-1
 430 655 l 1,2,-1
 430 615 l 1,3,-1
 135 50 l 1,4,-1
 446 50 l 1,5,-1
 446 0 l 1,6,-1
 70 0 l 1,7,-1
 70 40 l 1,8,-1
 364 605 l 1,9,-1
 70 605 l 1,0,-1
EndSplineSet
Substitution2: "'calt' Contextual Alternates in Latin lookup 0 subtable" Z.calt
EndChar

StartChar: bracketleft
Encoding: 91 91 62
Width: 500
GlyphClass: 2
Flags: W
LayerCount: 2
Fore
SplineSet
174 -156 m 1,0,-1
 174 793 l 1,1,-1
 380 793 l 1,2,-1
 380 743 l 1,3,-1
 231 743 l 1,4,-1
 231 -106 l 1,5,-1
 380 -106 l 1,6,-1
 380 -156 l 1,7,-1
 174 -156 l 1,0,-1
EndSplineSet
Substitution2: "Single Substitution lookup 21 subtable" cornersleft.black
Substitution2: "Single Substitution lookup 20 subtable" cornersleft.white
Substitution2: "Single Substitution lookup 19 subtable" bracketleft
Substitution2: "'ss08' Style Set 8 in Latin lookup 17 subtable" bracketleft
Substitution2: "'ss07' Style Set 7 in Latin lookup 15 subtable" bracketleft
Substitution2: "'ss06' Style Set 6 in Latin lookup 14 subtable" cornersleft.black
Substitution2: "'ss05' Style Set 5 in Latin lookup 13 subtable" cornersleft.white
Substitution2: "'ss04' Style Set 4 in Latin lookup 12 subtable" bracketleft
Substitution2: "'ss03' Style Set 3 in Latin lookup 11 subtable" bracketleft
Substitution2: "'onum' Oldstyle Figures in Latin lookup 2 subtable" bracketleft
EndChar

StartChar: backslash
Encoding: 92 92 63
Width: 500
GlyphClass: 2
Flags: W
LayerCount: 2
Fore
SplineSet
16 688 m 1,0,-1
 53 710 l 1,1,-1
 466 -19 l 1,2,-1
 430 -41 l 1,3,-1
 16 688 l 1,0,-1
EndSplineSet
EndChar

StartChar: bracketright
Encoding: 93 93 64
Width: 500
GlyphClass: 2
Flags: W
LayerCount: 2
Fore
SplineSet
120 -156 m 1,0,-1
 120 -106 l 1,1,-1
 269 -106 l 1,2,-1
 269 743 l 1,3,-1
 120 743 l 1,4,-1
 120 793 l 1,5,-1
 326 793 l 1,6,-1
 326 -156 l 1,7,-1
 120 -156 l 1,0,-1
EndSplineSet
Substitution2: "Single Substitution lookup 21 subtable" cornersright.black
Substitution2: "Single Substitution lookup 20 subtable" cornersright.white
Substitution2: "Single Substitution lookup 19 subtable" bracketright
Substitution2: "'ss08' Style Set 8 in Latin lookup 17 subtable" bracketright
Substitution2: "'ss07' Style Set 7 in Latin lookup 15 subtable" bracketright
Substitution2: "'ss06' Style Set 6 in Latin lookup 14 subtable" cornersright.black
Substitution2: "'ss05' Style Set 5 in Latin lookup 13 subtable" cornersright.white
Substitution2: "'ss04' Style Set 4 in Latin lookup 12 subtable" bracketright
Substitution2: "'ss03' Style Set 3 in Latin lookup 11 subtable" bracketright
Substitution2: "'onum' Oldstyle Figures in Latin lookup 2 subtable" bracketright
EndChar

StartChar: underscore
Encoding: 95 95 65
Width: 500
GlyphClass: 2
Flags: W
LayerCount: 2
Fore
SplineSet
0 -128 m 1,0,-1
 0 -85 l 1,1,-1
 500 -85 l 1,2,-1
 500 -128 l 1,3,-1
 0 -128 l 1,0,-1
EndSplineSet
EndChar

StartChar: a
Encoding: 97 97 66
Width: 500
GlyphClass: 2
Flags: W
LayerCount: 2
Fore
SplineSet
218 43 m 0,0,1
 255 43 255 43 298.5 66.5 c 128,-1,2
 342 90 342 90 362 110 c 1,3,-1
 362 229 l 1,4,5
 296 234 296 234 236 234 c 128,-1,6
 176 234 176 234 146 208.5 c 128,-1,7
 116 183 116 183 116 140 c 0,8,9
 116 43 116 43 218 43 c 0,0,1
217 -9 m 0,10,11
 144 -9 144 -9 102 28.5 c 128,-1,12
 60 66 60 66 60 135 c 128,-1,13
 60 204 60 204 106 242 c 0,14,15
 152 281 152 281 228 281 c 128,-1,16
 304 281 304 281 362 275 c 1,17,18
 362 364 362 364 340 396.5 c 128,-1,19
 318 429 318 429 251 429 c 128,-1,20
 184 429 184 429 93 397 c 1,21,-1
 78 447 l 1,22,23
 171 481 171 481 246 481 c 0,24,25
 345 481 345 481 380 437 c 128,-1,26
 415 393 415 393 415 283 c 2,27,-1
 415 73 l 1,28,-1
 423 -3 l 1,29,-1
 372 -8 l 1,30,-1
 362 52 l 1,31,32
 339 32 339 32 297 11.5 c 128,-1,33
 255 -9 255 -9 217 -9 c 0,10,11
EndSplineSet
Substitution2: "'smcp' Lowercase to Small Capitals in Latin lookup 3 subtable" a.sc
EndChar

StartChar: b
Encoding: 98 98 67
Width: 500
GlyphClass: 2
Flags: W
LayerCount: 2
Fore
SplineSet
77 0 m 1,0,-1
 77 664 l 1,1,-1
 130 664 l 1,2,-1
 130 429 l 1,3,4
 205 481 205 481 266 481 c 0,5,6
 356 481 356 481 405 419.5 c 128,-1,7
 454 358 454 358 454 244 c 128,-1,8
 454 130 454 130 399 60.5 c 128,-1,9
 344 -9 344 -9 249 -9 c 0,10,11
 191 -9 191 -9 129 20 c 1,12,-1
 127 0 l 1,13,-1
 77 0 l 1,0,-1
362.5 380 m 128,-1,15
 328 429 328 429 263 429 c 128,-1,16
 198 429 198 429 130 372 c 1,17,-1
 130 72 l 1,18,19
 151 62 151 62 187.5 52.5 c 128,-1,20
 224 43 224 43 247 43 c 0,21,22
 317 43 317 43 357 99 c 128,-1,23
 397 155 397 155 397 243 c 128,-1,14
 397 331 397 331 362.5 380 c 128,-1,15
EndSplineSet
Substitution2: "'smcp' Lowercase to Small Capitals in Latin lookup 3 subtable" b.sc
EndChar

StartChar: c
Encoding: 99 99 68
Width: 500
GlyphClass: 2
Flags: W
LayerCount: 2
Fore
SplineSet
359 320 m 1,0,-1
 359 419 l 1,1,2
 310 430 310 430 281 430 c 0,3,4
 209 430 209 430 173.5 379 c 128,-1,5
 138 328 138 328 138 238 c 128,-1,6
 138 148 138 148 174 95.5 c 128,-1,7
 210 43 210 43 281 43 c 0,8,9
 326 43 326 43 406 71 c 1,10,-1
 421 21 l 1,11,12
 342 -9 342 -9 282 -9 c 0,13,14
 184 -9 184 -9 132.5 56.5 c 128,-1,15
 81 122 81 122 81 239 c 128,-1,16
 81 356 81 356 132 418.5 c 128,-1,17
 183 481 183 481 282 481 c 0,18,19
 348 481 348 481 413 460 c 1,20,-1
 413 320 l 1,21,-1
 359 320 l 1,0,-1
EndSplineSet
Substitution2: "'smcp' Lowercase to Small Capitals in Latin lookup 3 subtable" c.sc
Substitution2: "'calt' Contextual Alternates in Latin lookup 0 subtable" c.calt
EndChar

StartChar: d
Encoding: 100 100 69
Width: 500
GlyphClass: 2
Flags: W
LayerCount: 2
Fore
SplineSet
428 664 m 1,0,-1
 428 83 l 1,1,-1
 438 -4 l 1,2,-1
 387 -10 l 1,3,-1
 377 43 l 1,4,5
 302 -9 302 -9 239 -9 c 0,6,7
 150 -9 150 -9 100.5 57 c 128,-1,8
 51 123 51 123 51 236.5 c 128,-1,9
 51 350 51 350 106 415.5 c 128,-1,10
 161 481 161 481 256 481 c 0,11,12
 312 481 312 481 375 454 c 1,13,-1
 375 664 l 1,14,-1
 428 664 l 1,0,-1
142.5 96.5 m 128,-1,16
 177 43 177 43 242 43 c 128,-1,17
 307 43 307 43 375 100 c 1,18,-1
 375 400 l 1,19,20
 354 410 354 410 317.5 419.5 c 128,-1,21
 281 429 281 429 258 429 c 0,22,23
 187 429 187 429 147.5 377.5 c 128,-1,24
 108 326 108 326 108 238 c 128,-1,15
 108 150 108 150 142.5 96.5 c 128,-1,16
EndSplineSet
Substitution2: "'smcp' Lowercase to Small Capitals in Latin lookup 3 subtable" d.sc
EndChar

StartChar: e
Encoding: 101 101 70
Width: 500
GlyphClass: 2
Flags: W
LayerCount: 2
Fore
SplineSet
114.5 416.5 m 128,-1,1
 162 481 162 481 253 481 c 128,-1,2
 344 481 344 481 388.5 421 c 128,-1,3
 433 361 433 361 433 261 c 1,4,-1
 430 211 l 1,5,-1
 124 211 l 1,6,7
 129 136 129 136 164 89.5 c 128,-1,8
 199 43 199 43 260.5 43 c 128,-1,9
 322 43 322 43 405 72 c 1,10,-1
 420 22 l 1,11,12
 339 -9 339 -9 268 -9 c 0,13,14
 170 -9 170 -9 118.5 56.5 c 128,-1,15
 67 122 67 122 67 237 c 128,-1,0
 67 352 67 352 114.5 416.5 c 128,-1,1
257 430 m 0,16,17
 131 430 131 430 124 261 c 1,18,-1
 376 261 l 1,19,20
 376 430 376 430 257 430 c 0,16,17
EndSplineSet
Substitution2: "'smcp' Lowercase to Small Capitals in Latin lookup 3 subtable" e.sc
EndChar

StartChar: f
Encoding: 102 102 71
Width: 500
GlyphClass: 2
Flags: W
LayerCount: 2
Fore
SplineSet
180 425 m 1,0,-1
 85 425 l 1,1,-1
 85 475 l 1,2,-1
 180 475 l 1,3,4
 180 673 180 673 327 673 c 0,5,6
 375 673 375 673 433 656 c 1,7,-1
 421 605 l 1,8,9
 365 621 365 621 329 621 c 0,10,11
 277 621 277 621 255 586 c 128,-1,12
 233 551 233 551 233 475 c 1,13,-1
 414 475 l 1,14,-1
 414 425 l 1,15,-1
 233 425 l 1,16,-1
 233 50 l 1,17,-1
 416 50 l 1,18,-1
 416 0 l 1,19,-1
 81 0 l 1,20,-1
 81 50 l 1,21,-1
 180 50 l 1,22,-1
 180 425 l 1,0,-1
EndSplineSet
Substitution2: "'ss01' Style Set 1 in Latin lookup 9 subtable" f.bi
Substitution2: "'smcp' Lowercase to Small Capitals in Latin lookup 3 subtable" f.sc
Substitution2: "'calt' Contextual Alternates in Latin lookup 0 subtable" f.calt
EndChar

StartChar: g
Encoding: 103 103 72
Width: 500
GlyphClass: 2
Flags: W
LayerCount: 2
Fore
SplineSet
428 115 m 1,0,-1
 431 -23 l 1,1,2
 431 -112 431 -112 377.5 -156 c 128,-1,3
 324 -200 324 -200 245 -200 c 128,-1,4
 166 -200 166 -200 65 -160 c 1,5,-1
 83 -110 l 1,6,7
 182 -148 182 -148 240.5 -148 c 128,-1,8
 299 -148 299 -148 338.5 -117.5 c 128,-1,9
 378 -87 378 -87 378 -24 c 0,10,11
 378 -16 378 -16 376.5 11.5 c 128,-1,12
 375 39 375 39 375 52 c 1,13,14
 302 1 302 1 239 1 c 0,15,16
 149 1 149 1 100.5 62.5 c 128,-1,17
 52 124 52 124 52 237.5 c 128,-1,18
 52 351 52 351 106 416 c 128,-1,19
 160 481 160 481 256 481 c 0,20,21
 309 481 309 481 375 446 c 1,22,-1
 377 475 l 1,23,-1
 428 475 l 1,24,-1
 428 115 l 1,0,-1
143 102 m 128,-1,26
 177 53 177 53 242 53 c 128,-1,27
 307 53 307 53 375 110 c 1,28,-1
 375 390 l 1,29,30
 313 429 313 429 258 429 c 0,31,32
 187 429 187 429 148 377.5 c 128,-1,33
 109 326 109 326 109 238.5 c 128,-1,25
 109 151 109 151 143 102 c 128,-1,26
EndSplineSet
Substitution2: "'smcp' Lowercase to Small Capitals in Latin lookup 3 subtable" g.sc
Substitution2: "'salt' Stylistic Alternatives in Latin lookup 1 subtable" g.001
Substitution2: "'calt' Contextual Alternates in Latin lookup 0 subtable" g.calt
EndChar

StartChar: h
Encoding: 104 104 73
Width: 500
GlyphClass: 2
Flags: W
LayerCount: 2
Fore
SplineSet
131 388 m 1,0,-1
 131 0 l 1,1,-1
 78 0 l 1,2,-1
 78 664 l 1,3,-1
 131 664 l 1,4,-1
 131 439 l 1,5,6
 225 481 225 481 286 481 c 0,7,8
 429 481 429 481 429 317 c 2,9,-1
 429 0 l 1,10,-1
 376 0 l 1,11,-1
 376 317 l 2,12,13
 376 368 376 368 354 398.5 c 128,-1,14
 332 429 332 429 278 429 c 128,-1,15
 224 429 224 429 131 388 c 1,0,-1
EndSplineSet
Substitution2: "'smcp' Lowercase to Small Capitals in Latin lookup 3 subtable" h.sc
EndChar

StartChar: i
Encoding: 105 105 74
Width: 500
GlyphClass: 2
Flags: W
LayerCount: 2
Fore
SplineSet
123 425 m 1,0,-1
 123 475 l 1,1,-1
 292 475 l 1,2,-1
 292 50 l 1,3,-1
 408 50 l 1,4,-1
 408 0 l 1,5,-1
 115 0 l 1,6,-1
 115 50 l 1,7,-1
 239 50 l 1,8,-1
 239 425 l 1,9,-1
 123 425 l 1,0,-1
230.5 583.5 m 128,-1,11
 218 596 218 596 218 615.5 c 128,-1,12
 218 635 218 635 230.5 646.5 c 128,-1,13
 243 658 243 658 261 658 c 128,-1,14
 279 658 279 658 290.5 647 c 128,-1,15
 302 636 302 636 302 616 c 128,-1,16
 302 596 302 596 290.5 583.5 c 128,-1,17
 279 571 279 571 261 571 c 128,-1,10
 243 571 243 571 230.5 583.5 c 128,-1,11
EndSplineSet
Substitution2: "'ss01' Style Set 1 in Latin lookup 9 subtable" i.bi
Substitution2: "'smcp' Lowercase to Small Capitals in Latin lookup 3 subtable" i.sc
Substitution2: "'calt' Contextual Alternates in Latin lookup 0 subtable" i.calt
EndChar

StartChar: j
Encoding: 106 106 75
Width: 500
GlyphClass: 2
Flags: W
LayerCount: 2
Fore
SplineSet
332 475 m 1,0,-1
 332 -10 l 2,1,2
 332 -104 332 -104 284.5 -138 c 128,-1,3
 237 -172 237 -172 117 -188 c 1,4,-1
 111 -136 l 1,5,6
 210 -122 210 -122 244.5 -98.5 c 128,-1,7
 279 -75 279 -75 279 -10 c 2,8,-1
 279 426 l 1,9,-1
 152 426 l 1,10,-1
 152 475 l 1,11,-1
 332 475 l 1,0,-1
252 616 m 0,12,13
 252 659 252 659 296 659 c 1,14,15
 338 658 338 658 338 614 c 128,-1,16
 338 570 338 570 296 570 c 0,17,18
 275 570 275 570 263.5 582.5 c 128,-1,19
 252 595 252 595 252 616 c 0,12,13
EndSplineSet
Substitution2: "'ss01' Style Set 1 in Latin lookup 9 subtable" j.bi
Substitution2: "'smcp' Lowercase to Small Capitals in Latin lookup 3 subtable" j.sc
Substitution2: "'calt' Contextual Alternates in Latin lookup 0 subtable" j.calt
EndChar

StartChar: k
Encoding: 107 107 76
Width: 500
GlyphClass: 2
Flags: W
LayerCount: 2
Fore
SplineSet
359 475 m 1,0,-1
 419 475 l 1,1,2
 349 362 349 362 258 253 c 1,3,4
 320 165 320 165 425 0 c 1,5,-1
 365 0 l 1,6,7
 285 130 285 130 220 221 c 1,8,-1
 150 212 l 1,9,-1
 150 0 l 1,10,-1
 97 0 l 1,11,-1
 97 664 l 1,12,-1
 150 664 l 1,13,-1
 150 260 l 1,14,-1
 215 270 l 1,15,16
 286 362 286 362 359 475 c 1,0,-1
EndSplineSet
Substitution2: "'smcp' Lowercase to Small Capitals in Latin lookup 3 subtable" k.sc
Substitution2: "'calt' Contextual Alternates in Latin lookup 0 subtable" k.calt
EndChar

StartChar: l
Encoding: 108 108 77
Width: 500
GlyphClass: 2
Flags: W
LayerCount: 2
Fore
SplineSet
109 614 m 1,0,-1
 108 663 l 1,1,-1
 281 664 l 1,2,-1
 281 50 l 1,3,-1
 403 50 l 1,4,-1
 403 0 l 1,5,-1
 105 0 l 1,6,-1
 105 50 l 1,7,-1
 228 50 l 1,8,-1
 228 615 l 1,9,-1
 109 614 l 1,0,-1
EndSplineSet
Substitution2: "'ss01' Style Set 1 in Latin lookup 9 subtable" l.bi
Substitution2: "'smcp' Lowercase to Small Capitals in Latin lookup 3 subtable" l.sc
Substitution2: "'calt' Contextual Alternates in Latin lookup 0 subtable" l.calt
EndChar

StartChar: m
Encoding: 109 109 78
Width: 500
GlyphClass: 2
Flags: W
LayerCount: 2
Fore
SplineSet
85 475 m 1,0,-1
 88 445 l 1,1,2
 138 481 138 481 165 481 c 0,3,4
 231 481 231 481 256 438 c 1,5,6
 312 481 312 481 354 481 c 0,7,8
 419 481 419 481 443 441 c 128,-1,9
 467 401 467 401 467 318 c 2,10,-1
 467 0 l 1,11,-1
 414 0 l 1,12,-1
 414 318 l 2,13,14
 414 375 414 375 402 402.5 c 128,-1,15
 390 430 390 430 356 430 c 128,-1,16
 322 430 322 430 272 398 c 1,17,18
 278 364 278 364 278 318 c 2,19,-1
 278 152 l 1,20,-1
 225 152 l 1,21,-1
 225 318 l 2,22,23
 225 375 225 375 213 402 c 0,24,25
 200 430 200 430 166 430 c 128,-1,26
 132 430 132 430 88 398 c 1,27,-1
 88 0 l 1,28,-1
 35 0 l 1,29,-1
 35 475 l 1,30,-1
 85 475 l 1,0,-1
EndSplineSet
Substitution2: "'ss02' Style Set 2 in Latin lookup 10 subtable" m.tri
Substitution2: "'smcp' Lowercase to Small Capitals in Latin lookup 3 subtable" m.sc
EndChar

StartChar: n
Encoding: 110 110 79
Width: 500
GlyphClass: 2
Flags: W
LayerCount: 2
Fore
SplineSet
127 475 m 1,0,-1
 129 435 l 1,1,2
 226 481 226 481 290 481 c 128,-1,3
 354 481 354 481 390.5 437 c 128,-1,4
 427 393 427 393 427 317 c 2,5,-1
 427 0 l 1,6,-1
 374 0 l 1,7,-1
 374 317 l 2,8,9
 374 366 374 366 350 398 c 0,10,11
 326 429 326 429 278 429 c 128,-1,12
 230 429 230 429 129 385 c 1,13,-1
 129 0 l 1,14,-1
 76 0 l 1,15,-1
 76 475 l 1,16,-1
 127 475 l 1,0,-1
EndSplineSet
Substitution2: "'smcp' Lowercase to Small Capitals in Latin lookup 3 subtable" n.sc
EndChar

StartChar: o
Encoding: 111 111 80
Width: 500
GlyphClass: 2
Flags: W
LayerCount: 2
Fore
SplineSet
250 481 m 128,-1,1
 441 481 441 481 441 236 c 128,-1,2
 441 -9 441 -9 250 -9 c 128,-1,3
 59 -9 59 -9 59 236 c 128,-1,0
 59 481 59 481 250 481 c 128,-1,1
116 236 m 128,-1,5
 116 43 116 43 250 43 c 128,-1,6
 384 43 384 43 384 236 c 128,-1,7
 384 429 384 429 250 429 c 128,-1,4
 116 429 116 429 116 236 c 128,-1,5
EndSplineSet
Substitution2: "'smcp' Lowercase to Small Capitals in Latin lookup 3 subtable" o.sc
EndChar

StartChar: p
Encoding: 112 112 81
Width: 500
GlyphClass: 2
Flags: W
LayerCount: 2
Fore
SplineSet
77 -192 m 1,0,-1
 77 389 l 1,1,-1
 68 476 l 1,2,-1
 118 482 l 1,3,-1
 127 428 l 1,4,5
 200 481 200 481 266 481 c 0,6,7
 355 481 355 481 404 416 c 128,-1,8
 453 351 453 351 453 237 c 128,-1,9
 453 123 453 123 399 57 c 128,-1,10
 345 -9 345 -9 249 -9 c 0,11,12
 193 -9 193 -9 130 18 c 1,13,-1
 130 -192 l 1,14,-1
 77 -192 l 1,0,-1
362 376.5 m 128,-1,16
 328 429 328 429 264.5 429 c 128,-1,17
 201 429 201 429 130 372 c 1,18,-1
 130 72 l 1,19,20
 151 62 151 62 187.5 52.5 c 128,-1,21
 224 43 224 43 247 43 c 0,22,23
 318 43 318 43 357 95 c 128,-1,24
 396 147 396 147 396 235.5 c 128,-1,15
 396 324 396 324 362 376.5 c 128,-1,16
EndSplineSet
Substitution2: "'smcp' Lowercase to Small Capitals in Latin lookup 3 subtable" p.sc
EndChar

StartChar: q
Encoding: 113 113 82
Width: 500
GlyphClass: 2
Flags: W
LayerCount: 2
Fore
SplineSet
428 475 m 1,0,-1
 428 -190 l 1,1,-1
 375 -190 l 1,2,-1
 375 42 l 1,3,4
 302 -9 302 -9 239 -9 c 0,5,6
 150 -9 150 -9 101 57 c 128,-1,7
 52 123 52 123 52 237 c 128,-1,8
 52 351 52 351 106 416 c 128,-1,9
 160 481 160 481 256 481 c 0,10,11
 309 481 309 481 375 446 c 1,12,-1
 377 475 l 1,13,-1
 428 475 l 1,0,-1
143.5 96 m 128,-1,15
 178 43 178 43 242.5 43 c 128,-1,16
 307 43 307 43 375 100 c 1,17,-1
 375 390 l 1,18,19
 313 429 313 429 258 429 c 0,20,21
 187 429 187 429 148 377.5 c 128,-1,22
 109 326 109 326 109 237.5 c 128,-1,14
 109 149 109 149 143.5 96 c 128,-1,15
EndSplineSet
Substitution2: "'smcp' Lowercase to Small Capitals in Latin lookup 3 subtable" q.sc
EndChar

StartChar: r
Encoding: 114 114 83
Width: 500
GlyphClass: 2
Flags: W
LayerCount: 2
Fore
SplineSet
91 425 m 1,0,-1
 91 475 l 1,1,-1
 238 475 l 1,2,-1
 240 417 l 1,3,4
 272 437 272 437 330 457 c 128,-1,5
 388 477 388 477 432 481 c 1,6,-1
 432 422 l 1,7,8
 391 419 391 419 330.5 402 c 128,-1,9
 270 385 270 385 240 367 c 1,10,-1
 240 50 l 1,11,-1
 400 50 l 1,12,-1
 400 0 l 1,13,-1
 91 0 l 1,14,-1
 91 50 l 1,15,-1
 185 50 l 1,16,-1
 185 425 l 1,17,-1
 91 425 l 1,0,-1
EndSplineSet
Substitution2: "'ss01' Style Set 1 in Latin lookup 9 subtable" r.bi
Substitution2: "'smcp' Lowercase to Small Capitals in Latin lookup 3 subtable" r.sc
Substitution2: "'calt' Contextual Alternates in Latin lookup 0 subtable" r.calt
EndChar

StartChar: s
Encoding: 115 115 84
Width: 500
GlyphClass: 2
Flags: W
LayerCount: 2
Fore
SplineSet
78 23 m 1,0,-1
 91 75 l 1,1,2
 190 42 190 42 244 42 c 128,-1,3
 298 42 298 42 327.5 65.5 c 128,-1,4
 357 89 357 89 357 128 c 128,-1,5
 357 167 357 167 333.5 185.5 c 128,-1,6
 310 204 310 204 236 221 c 128,-1,7
 162 238 162 238 125 270 c 1,8,9
 88 300 88 300 88 360 c 128,-1,10
 88 420 88 420 133.5 451.5 c 128,-1,11
 179 483 179 483 251 483 c 128,-1,12
 323 483 323 483 407 451 c 1,13,-1
 393 404 l 1,14,15
 308 432 308 432 256 432 c 128,-1,16
 204 432 204 432 174 414 c 1,17,18
 144 394 144 394 144 360 c 128,-1,19
 144 326 144 326 170.5 307 c 128,-1,20
 197 288 197 288 273 269 c 128,-1,21
 349 250 349 250 381 220.5 c 128,-1,22
 413 191 413 191 413 128 c 128,-1,23
 413 65 413 65 370 28 c 0,24,25
 328 -9 328 -9 250 -9 c 128,-1,26
 172 -9 172 -9 78 23 c 1,0,-1
EndSplineSet
Substitution2: "'smcp' Lowercase to Small Capitals in Latin lookup 3 subtable" s.sc
EndChar

StartChar: t
Encoding: 116 116 85
Width: 500
GlyphClass: 2
Flags: W
LayerCount: 2
Fore
SplineSet
160 418 m 1,0,-1
 76 418 l 1,1,-1
 76 468 l 1,2,-1
 160 468 l 1,3,-1
 160 583 l 1,4,-1
 213 593 l 1,5,-1
 213 468 l 1,6,-1
 403 468 l 1,7,-1
 403 418 l 1,8,-1
 213 418 l 1,9,-1
 213 184 l 2,10,11
 213 106 213 106 228.5 74 c 128,-1,12
 244 42 244 42 292 42 c 128,-1,13
 340 42 340 42 398 61 c 1,14,-1
 410 11 l 1,15,16
 352 -10 352 -10 302 -10 c 128,-1,17
 252 -10 252 -10 223.5 3 c 128,-1,18
 195 16 195 16 181.5 44.5 c 128,-1,19
 168 73 168 73 164 103 c 128,-1,20
 160 133 160 133 160 182 c 2,21,-1
 160 418 l 1,0,-1
EndSplineSet
Substitution2: "'ss01' Style Set 1 in Latin lookup 9 subtable" t.bi
Substitution2: "'smcp' Lowercase to Small Capitals in Latin lookup 3 subtable" t.sc
Substitution2: "'calt' Contextual Alternates in Latin lookup 0 subtable" t.calt
EndChar

StartChar: u
Encoding: 117 117 86
Width: 500
GlyphClass: 2
Flags: W
LayerCount: 2
Fore
SplineSet
374 0 m 1,0,-1
 372 41 l 1,1,2
 276 -9 276 -9 212 -9 c 128,-1,3
 148 -9 148 -9 111 35 c 128,-1,4
 74 79 74 79 74 155 c 2,5,-1
 74 475 l 1,6,-1
 127 475 l 1,7,-1
 127 155 l 2,8,9
 127 106 127 106 150.5 74.5 c 128,-1,10
 174 43 174 43 222 43 c 128,-1,11
 270 43 270 43 372 93 c 1,12,-1
 372 475 l 1,13,-1
 425 475 l 1,14,-1
 425 0 l 1,15,-1
 374 0 l 1,0,-1
EndSplineSet
Substitution2: "'smcp' Lowercase to Small Capitals in Latin lookup 3 subtable" u.sc
EndChar

StartChar: v
Encoding: 118 118 87
Width: 500
GlyphClass: 2
Flags: W
LayerCount: 2
Fore
SplineSet
53 475 m 1,0,-1
 113 475 l 1,1,-1
 244 48 l 1,2,-1
 262 48 l 1,3,-1
 388 475 l 1,4,-1
 448 475 l 1,5,-1
 303 0 l 1,6,-1
 203 0 l 1,7,-1
 53 475 l 1,0,-1
EndSplineSet
Substitution2: "'titl' Titling in Latin lookup 7 subtable" v.titl
Substitution2: "'smcp' Lowercase to Small Capitals in Latin lookup 3 subtable" v.sc
Substitution2: "'calt' Contextual Alternates in Latin lookup 0 subtable" v.calt
EndChar

StartChar: w
Encoding: 119 119 88
Width: 500
GlyphClass: 2
Flags: W
LayerCount: 2
Fore
SplineSet
413 475 m 1,0,-1
 465 475 l 1,1,-1
 408 0 l 1,2,-1
 302 0 l 1,3,-1
 251 207 l 1,4,-1
 247 207 l 1,5,-1
 195 0 l 1,6,-1
 90 0 l 1,7,-1
 35 475 l 1,8,-1
 87 475 l 1,9,-1
 139 48 l 1,10,-1
 157 48 l 1,11,-1
 224 289 l 1,12,-1
 276 289 l 1,13,-1
 343 48 l 1,14,-1
 361 48 l 1,15,-1
 413 475 l 1,0,-1
EndSplineSet
Substitution2: "'ss02' Style Set 2 in Latin lookup 10 subtable" w.tri
Substitution2: "'titl' Titling in Latin lookup 7 subtable" w.titl
Substitution2: "'smcp' Lowercase to Small Capitals in Latin lookup 3 subtable" w.sc
EndChar

StartChar: x
Encoding: 120 120 89
Width: 500
GlyphClass: 2
Flags: W
LayerCount: 2
Fore
SplineSet
60 475 m 1,0,-1
 129 475 l 1,1,-1
 250 279 l 1,2,-1
 370 475 l 1,3,-1
 437 475 l 1,4,-1
 287 241 l 1,5,-1
 446 0 l 1,6,-1
 378 0 l 1,7,-1
 250 203 l 1,8,-1
 123 0 l 1,9,-1
 55 0 l 1,10,-1
 216 241 l 1,11,-1
 60 475 l 1,0,-1
EndSplineSet
Substitution2: "'smcp' Lowercase to Small Capitals in Latin lookup 3 subtable" x.sc
EndChar

StartChar: y
Encoding: 121 121 90
Width: 500
GlyphClass: 2
Flags: W
LayerCount: 2
Fore
SplineSet
53 475 m 1,0,-1
 113 475 l 1,1,-1
 254 71 l 1,2,-1
 262 71 l 1,3,-1
 388 475 l 1,4,-1
 448 475 l 1,5,-1
 264 -81 l 2,6,7
 238 -160 238 -160 209.5 -182 c 128,-1,8
 181 -204 181 -204 94 -206 c 1,9,-1
 94 -155 l 1,10,11
 150 -154 150 -154 169 -139 c 128,-1,12
 188 -124 188 -124 204 -76 c 2,13,-1
 227 -7 l 1,14,-1
 53 475 l 1,0,-1
EndSplineSet
Substitution2: "'smcp' Lowercase to Small Capitals in Latin lookup 3 subtable" y.sc
Substitution2: "'calt' Contextual Alternates in Latin lookup 0 subtable" y.calt
EndChar

StartChar: z
Encoding: 122 122 91
Width: 500
GlyphClass: 2
Flags: W
LayerCount: 2
Fore
SplineSet
87 425 m 1,0,-1
 87 475 l 1,1,-1
 413 475 l 1,2,-1
 418 434 l 1,3,-1
 149 50 l 1,4,-1
 421 50 l 1,5,-1
 421 0 l 1,6,-1
 86 0 l 1,7,-1
 78 41 l 1,8,-1
 346 425 l 1,9,-1
 87 425 l 1,0,-1
EndSplineSet
Substitution2: "'smcp' Lowercase to Small Capitals in Latin lookup 3 subtable" z.sc
EndChar

StartChar: braceleft
Encoding: 123 123 92
Width: 500
GlyphClass: 2
Flags: W
LayerCount: 2
Fore
SplineSet
104 300 m 1,0,-1
 104 352 l 1,1,-1
 194 398 l 1,2,3
 194 482 194 482 189 573 c 128,-1,4
 184 664 184 664 184 694 c 0,5,6
 184 793 184 793 282 793 c 2,7,-1
 390 793 l 1,8,-1
 390 743 l 1,9,-1
 287 743 l 2,10,11
 241 743 241 743 241 688 c 0,12,13
 241 655 241 655 246 552 c 128,-1,14
 251 449 251 449 251 366 c 1,15,-1
 161 330 l 1,16,-1
 161 322 l 1,17,-1
 251 285 l 1,18,19
 251 211 251 211 246 101.5 c 128,-1,20
 241 -8 241 -8 241 -51 c 0,21,22
 241 -106 241 -106 287 -106 c 2,23,-1
 390 -106 l 1,24,-1
 390 -156 l 1,25,-1
 282 -156 l 2,26,27
 184 -156 184 -156 184 -57 c 0,28,29
 184 -17 184 -17 189 81 c 128,-1,30
 194 179 194 179 194 253 c 1,31,-1
 104 300 l 1,0,-1
EndSplineSet
EndChar

StartChar: bar
Encoding: 124 124 93
Width: 500
GlyphClass: 2
Flags: W
LayerCount: 2
Fore
SplineSet
277 743 m 1,0,-1
 277 -244 l 1,1,-1
 224 -244 l 1,2,-1
 224 743 l 1,3,-1
 277 743 l 1,0,-1
EndSplineSet
Substitution2: "Single Substitution lookup 21 subtable" bar.black
Substitution2: "Single Substitution lookup 20 subtable" bar.white
Substitution2: "Single Substitution lookup 19 subtable" bar
Substitution2: "'ss08' Style Set 8 in Latin lookup 17 subtable" bar
Substitution2: "'ss07' Style Set 7 in Latin lookup 15 subtable" bar
Substitution2: "'ss06' Style Set 6 in Latin lookup 14 subtable" bar.black
Substitution2: "'ss05' Style Set 5 in Latin lookup 13 subtable" bar.white
Substitution2: "'ss04' Style Set 4 in Latin lookup 12 subtable" bar
Substitution2: "'ss03' Style Set 3 in Latin lookup 11 subtable" bar
Substitution2: "'onum' Oldstyle Figures in Latin lookup 2 subtable" bar
EndChar

StartChar: braceright
Encoding: 125 125 94
Width: 500
GlyphClass: 2
Flags: W
LayerCount: 2
Fore
SplineSet
94 -156 m 1,0,-1
 94 -106 l 1,1,-1
 197 -106 l 2,2,3
 243 -106 243 -106 243 -51 c 0,4,5
 243 -8 243 -8 238 101.5 c 128,-1,6
 233 211 233 211 233 285 c 1,7,-1
 323 322 l 1,8,-1
 323 329 l 1,9,-1
 233 366 l 1,10,11
 233 449 233 449 238 552 c 128,-1,12
 243 655 243 655 243 688 c 0,13,14
 243 743 243 743 197 743 c 2,15,-1
 94 743 l 1,16,-1
 94 793 l 1,17,-1
 202 793 l 2,18,19
 300 793 300 793 300 694 c 0,20,21
 300 664 300 664 295 573 c 128,-1,22
 290 482 290 482 290 398 c 1,23,-1
 380 351 l 1,24,-1
 380 300 l 1,25,-1
 290 253 l 1,26,27
 290 179 290 179 295 81 c 128,-1,28
 300 -17 300 -17 300 -57 c 0,29,30
 300 -156 300 -156 202 -156 c 2,31,-1
 94 -156 l 1,0,-1
EndSplineSet
EndChar

StartChar: asciitilde
Encoding: 126 126 95
Width: 500
GlyphClass: 2
Flags: W
LayerCount: 2
Fore
SplineSet
439 316 m 1,0,-1
 474 286 l 1,1,2
 437 246 437 246 409.5 227 c 128,-1,3
 382 208 382 208 350 208 c 128,-1,4
 318 208 318 208 280 227.5 c 128,-1,5
 242 247 242 247 209 266.5 c 128,-1,6
 176 286 176 286 152 286 c 0,7,8
 120 287 120 287 62 224 c 1,9,-1
 26 255 l 1,10,11
 99 333 99 333 152 333 c 0,12,13
 192 333 192 333 258 294 c 256,14,15
 324 255 324 255 352 255 c 128,-1,16
 380 255 380 255 439 316 c 1,0,-1
EndSplineSet
EndChar

StartChar: exclamdown
Encoding: 161 161 96
Width: 500
GlyphClass: 2
Flags: W
LayerCount: 2
Fore
SplineSet
260 502 m 1,0,-1
 260 416 l 1,1,-1
 184 416 l 1,2,-1
 184 502 l 1,3,-1
 260 502 l 1,0,-1
246 308 m 1,4,-1
 255 -192 l 1,5,-1
 189 -192 l 1,6,-1
 198 308 l 1,7,-1
 246 308 l 1,4,-1
EndSplineSet
EndChar

StartChar: cent
Encoding: 162 162 97
Width: 500
GlyphClass: 2
Flags: W
LayerCount: 2
Fore
SplineSet
81 237 m 0,0,1
 81 461 81 461 253 479 c 1,2,-1
 253 549 l 1,3,-1
 306 549 l 1,4,-1
 306 480 l 1,5,6
 360 475 360 475 404 462 c 1,7,-1
 391 412 l 1,8,9
 337 430 337 430 281 430 c 0,10,11
 209 430 209 430 173.5 379 c 128,-1,12
 138 328 138 328 138 238 c 128,-1,13
 138 148 138 148 174 95 c 128,-1,14
 210 42 210 42 281 42 c 0,15,16
 326 42 326 42 406 70 c 1,17,-1
 421 20 l 1,18,19
 363 -2 363 -2 308 -8 c 1,20,-1
 308 -72 l 1,21,-1
 255 -72 l 1,22,-1
 255 -8 l 1,23,24
 169 1 169 1 125 65 c 128,-1,25
 81 129 81 129 81 237 c 0,0,1
EndSplineSet
Substitution2: "'calt' Contextual Alternates in Latin lookup 0 subtable" cent.calt
EndChar

StartChar: sterling
Encoding: 163 163 98
Width: 500
GlyphClass: 2
Flags: W
LayerCount: 2
Fore
SplineSet
56 307 m 1,0,-1
 56 358 l 1,1,-1
 125 358 l 1,2,3
 103 411 103 411 103 465 c 0,4,5
 103 553 103 553 149 598.5 c 128,-1,6
 195 644 195 644 283 644 c 0,7,8
 344 644 344 644 417 625 c 1,9,-1
 408 575 l 1,10,11
 342 593 342 593 279.5 593 c 128,-1,12
 217 593 217 593 188 562 c 128,-1,13
 159 531 159 531 159 467.5 c 128,-1,14
 159 404 159 404 180 358 c 1,15,-1
 379 358 l 1,16,-1
 379 307 l 1,17,-1
 199 307 l 1,18,19
 200 305 200 305 206 286 c 1,20,-1
 216 260 l 1,21,22
 224 234 224 234 224 206 c 0,23,24
 224 141 224 141 137 67 c 0,25,26
 137 66 137 66 137.5 66 c 128,-1,27
 138 66 138 66 138 65 c 1,28,29
 158 75 158 75 181.5 75 c 128,-1,30
 205 75 205 75 226 71.5 c 128,-1,31
 247 68 247 68 285.5 54 c 128,-1,32
 324 40 324 40 347.5 40 c 128,-1,33
 371 40 371 40 394 48 c 1,34,35
 418 54 418 54 430 62 c 2,36,-1
 442 70 l 1,37,-1
 465 25 l 1,38,39
 418 -11 418 -11 345 -11 c 1,40,41
 318 -12 318 -12 278 2 c 0,42,43
 221 22 221 22 186 22 c 0,44,45
 127 22 127 22 97 -2 c 2,46,-1
 87 -10 l 1,47,-1
 55 47 l 1,48,-1
 68 58 l 1,49,50
 131 114 131 114 156 162 c 0,51,52
 168 186 168 186 168 215 c 128,-1,53
 168 244 168 244 144 307 c 1,54,-1
 56 307 l 1,0,-1
EndSplineSet
EndChar

StartChar: currency
Encoding: 164 164 99
Width: 500
GlyphClass: 2
Flags: W
LayerCount: 2
Fore
SplineSet
130 527 m 1,0,1
 244 607 244 607 365 526 c 1,2,-1
 432 608 l 1,3,-1
 472 576 l 1,4,-1
 403 493 l 1,5,6
 452 436 452 436 452.5 358 c 128,-1,7
 453 280 453 280 404 222 c 1,8,-1
 473 137 l 1,9,-1
 432 103 l 1,10,-1
 362 187 l 1,11,12
 304 149 304 149 250.5 148.5 c 128,-1,13
 197 148 197 148 133 187 c 1,14,-1
 63 104 l 1,15,-1
 22 137 l 1,16,-1
 91 222 l 1,17,18
 42 280 42 280 42.5 358.5 c 128,-1,19
 43 437 43 437 92 494 c 1,20,-1
 23 576 l 1,21,-1
 63 608 l 1,22,-1
 130 527 l 1,0,1
94.5 357 m 128,-1,24
 94 292 94 292 139.5 247.5 c 128,-1,25
 185 203 185 203 245 202.5 c 128,-1,26
 305 202 305 202 358 249 c 1,27,28
 401 292 401 292 400.5 357 c 128,-1,29
 400 422 400 422 356 467 c 128,-1,30
 312 512 312 512 249 513 c 128,-1,31
 186 514 186 514 140.5 468 c 128,-1,23
 95 422 95 422 94.5 357 c 128,-1,24
EndSplineSet
EndChar

StartChar: yen
Encoding: 165 165 100
Width: 500
GlyphClass: 2
Flags: W
LayerCount: 2
Fore
SplineSet
65 361 m 1,0,-1
 201 361 l 1,1,-1
 29 655 l 1,2,-1
 98 655 l 1,3,-1
 250 375 l 1,4,-1
 252 375 l 1,5,-1
 406 655 l 1,6,-1
 469 655 l 1,7,-1
 300 361 l 1,8,-1
 434 361 l 1,9,-1
 434 311 l 1,10,-1
 278 311 l 1,11,-1
 278 218 l 1,12,-1
 434 218 l 1,13,-1
 434 168 l 1,14,-1
 278 168 l 1,15,-1
 278 0 l 1,16,-1
 223 0 l 1,17,-1
 223 168 l 1,18,-1
 65 168 l 1,19,-1
 65 218 l 1,20,-1
 223 218 l 1,21,-1
 223 311 l 1,22,-1
 65 311 l 1,23,-1
 65 361 l 1,0,-1
EndSplineSet
EndChar

StartChar: brokenbar
Encoding: 166 166 101
Width: 500
GlyphClass: 2
Flags: W
LayerCount: 2
Fore
SplineSet
276 195 m 1,0,-1
 276 -244 l 1,1,-1
 223 -244 l 1,2,-1
 223 195 l 1,3,-1
 276 195 l 1,0,-1
276 742 m 1,4,-1
 276 303 l 1,5,-1
 223 303 l 1,6,-1
 223 742 l 1,7,-1
 276 742 l 1,4,-1
EndSplineSet
EndChar

StartChar: section
Encoding: 167 167 102
Width: 500
GlyphClass: 2
Flags: W
LayerCount: 2
Fore
SplineSet
118 251.5 m 128,-1,1
 78 282 78 282 78 339.5 c 128,-1,2
 78 397 78 397 140 437 c 1,3,4
 88 468 88 468 88 536 c 128,-1,5
 88 604 88 604 133 637.5 c 128,-1,6
 178 671 178 671 253 671 c 128,-1,7
 328 671 328 671 407 641 c 1,8,-1
 393 592 l 1,9,10
 304 621 304 621 253 621 c 0,11,12
 144 621 144 621 144 540 c 0,13,14
 144 504 144 504 170 484.5 c 128,-1,15
 196 465 196 465 276 446 c 128,-1,16
 356 427 356 427 389.5 400 c 128,-1,17
 423 373 423 373 423 314.5 c 128,-1,18
 423 256 423 256 373 208 c 1,19,20
 409 181 409 181 409 122 c 128,-1,21
 409 63 409 63 366 27 c 128,-1,22
 323 -9 323 -9 247.5 -9 c 128,-1,23
 172 -9 172 -9 78 23 c 1,24,-1
 91 75 l 1,25,26
 193 41 193 41 245 41 c 128,-1,27
 297 41 297 41 325 62.5 c 128,-1,28
 353 84 353 84 353 117.5 c 128,-1,29
 353 151 353 151 333.5 167.5 c 128,-1,30
 314 184 314 184 236 202.5 c 128,-1,0
 158 221 158 221 118 251.5 c 128,-1,1
134 346 m 0,31,32
 134 325 134 325 139.5 312 c 128,-1,33
 145 299 145 299 163 290 c 1,34,35
 180 280 180 280 198 274 c 2,36,-1
 256 256 l 2,37,38
 296 244 296 244 329 231 c 1,39,40
 369 274 369 274 369 317 c 0,41,42
 369 345 369 345 341.5 364.5 c 128,-1,43
 314 384 314 384 264 394.5 c 128,-1,44
 214 405 214 405 184 416 c 1,45,46
 134 382 134 382 134 346 c 0,31,32
EndSplineSet
EndChar

StartChar: dieresis
Encoding: 168 168 103
Width: 500
GlyphClass: 2
Flags: W
LayerCount: 2
Fore
SplineSet
162 610 m 0,0,1
 131 610 131 610 131 644 c 0,2,3
 131 660 131 660 143 672 c 128,-1,4
 155 684 155 684 171.5 684 c 128,-1,5
 188 684 188 684 196 675 c 128,-1,6
 204 666 204 666 204 650.5 c 128,-1,7
 204 635 204 635 192 622.5 c 128,-1,8
 180 610 180 610 162 610 c 0,0,1
332.5 619 m 128,-1,10
 324 628 324 628 324 643.5 c 128,-1,11
 324 659 324 659 336.5 671.5 c 128,-1,12
 349 684 349 684 365 684 c 128,-1,13
 381 684 381 684 389.5 675 c 128,-1,14
 398 666 398 666 398 650.5 c 128,-1,15
 398 635 398 635 385.5 622.5 c 128,-1,16
 373 610 373 610 357 610 c 128,-1,9
 341 610 341 610 332.5 619 c 128,-1,10
EndSplineSet
EndChar

StartChar: copyright
Encoding: 169 169 104
Width: 500
GlyphClass: 2
Flags: W
LayerCount: 2
Fore
SplineSet
70 66.5 m 128,-1,1
 10 139 10 139 10 271.5 c 128,-1,2
 10 404 10 404 72 476.5 c 128,-1,3
 134 549 134 549 251 549 c 0,4,5
 490 549 490 549 490 270 c 0,6,7
 490 133 490 133 426 63.5 c 128,-1,8
 362 -6 362 -6 246 -6 c 128,-1,0
 130 -6 130 -6 70 66.5 c 128,-1,1
55 270 m 0,9,10
 55 145 55 145 105 89.5 c 128,-1,11
 155 34 155 34 251 34 c 0,12,13
 445 34 445 34 445 270 c 0,14,15
 445 397 445 397 395 453 c 128,-1,16
 345 509 345 509 251 509 c 0,17,18
 55 509 55 509 55 270 c 0,9,10
199 190 m 128,-1,20
 215 170 215 170 249 170 c 128,-1,21
 283 170 283 170 320 181 c 1,22,-1
 332 140 l 1,23,24
 298 126 298 126 257 126 c 0,25,26
 190 126 190 126 161 157 c 128,-1,27
 132 188 132 188 132 270.5 c 128,-1,28
 132 353 132 353 158.5 388.5 c 128,-1,29
 185 424 185 424 249 424 c 0,30,31
 290 424 290 424 332 410 c 1,32,-1
 320 369 l 1,33,34
 289 380 289 380 250.5 379.5 c 128,-1,35
 212 379 212 379 197.5 357 c 128,-1,36
 183 335 183 335 183 272.5 c 128,-1,19
 183 210 183 210 199 190 c 128,-1,20
EndSplineSet
EndChar

StartChar: ordfeminine
Encoding: 170 170 105
Width: 500
GlyphClass: 2
Flags: W
LayerCount: 2
Fore
SplineSet
202 490.5 m 128,-1,1
 185 477 185 477 185 453.5 c 128,-1,2
 185 430 185 430 199.5 415 c 128,-1,3
 214 400 214 400 247 400 c 128,-1,4
 280 400 280 400 320 435 c 1,5,-1
 320 502 l 1,6,7
 278 504 278 504 248.5 504 c 128,-1,0
 219 504 219 504 202 490.5 c 128,-1,1
372 365 m 1,8,9
 332 360 332 360 328 360 c 1,10,-1
 322 393 l 1,11,12
 277 358 277 358 235 358 c 128,-1,13
 193 358 193 358 166 382.5 c 128,-1,14
 139 407 139 407 139 451.5 c 128,-1,15
 139 496 139 496 167.5 519.5 c 128,-1,16
 196 543 196 543 245 543 c 128,-1,17
 294 543 294 543 320 540 c 1,18,19
 320 587 320 587 306.5 605 c 128,-1,20
 293 623 293 623 260 623 c 128,-1,21
 227 623 227 623 161 600 c 1,22,-1
 148 641 l 1,23,24
 213 665 213 665 265.5 665 c 128,-1,25
 318 665 318 665 342 636.5 c 128,-1,26
 366 608 366 608 366 539 c 2,27,-1
 366 415 l 1,28,-1
 372 365 l 1,8,9
EndSplineSet
EndChar

StartChar: guillemotleft
Encoding: 171 171 106
Width: 500
GlyphClass: 2
Flags: W
LayerCount: 2
Fore
SplineSet
70 248 m 1,0,-1
 267 417 l 1,1,-1
 267 352 l 1,2,-1
 122 226 l 1,3,-1
 267 103 l 1,4,-1
 267 39 l 1,5,-1
 70 208 l 1,6,-1
 70 248 l 1,0,-1
242 248 m 1,7,-1
 439 417 l 1,8,-1
 439 352 l 1,9,-1
 294 226 l 1,10,-1
 439 103 l 1,11,-1
 439 39 l 1,12,-1
 242 208 l 1,13,-1
 242 248 l 1,7,-1
EndSplineSet
Substitution2: "'calt' Contextual Alternates in Latin lookup 0 subtable" guillemotleft.calt
EndChar

StartChar: logicalnot
Encoding: 172 172 107
Width: 500
GlyphClass: 2
Flags: W
LayerCount: 2
Fore
SplineSet
36 452 m 1,0,-1
 468 452 l 1,1,-1
 468 231 l 1,2,-1
 414 231 l 1,3,-1
 414 398 l 1,4,-1
 36 398 l 1,5,-1
 36 452 l 1,0,-1
EndSplineSet
EndChar

StartChar: registered
Encoding: 174 174 108
Width: 500
GlyphClass: 2
Flags: W
LayerCount: 2
Fore
SplineSet
69 260.5 m 128,-1,1
 0 329 0 329 0 441.5 c 128,-1,2
 0 554 0 554 68.5 621.5 c 128,-1,3
 137 689 137 689 250 689 c 128,-1,4
 363 689 363 689 431.5 621 c 128,-1,5
 500 553 500 553 500 440.5 c 128,-1,6
 500 328 500 328 431.5 260 c 128,-1,7
 363 192 363 192 250.5 192 c 128,-1,0
 138 192 138 192 69 260.5 c 128,-1,1
40 441 m 128,-1,9
 40 346 40 346 97.5 288.5 c 128,-1,10
 155 231 155 231 249 231 c 128,-1,11
 343 231 343 231 401 288 c 128,-1,12
 459 345 459 345 459 440.5 c 128,-1,13
 459 536 459 536 402 593.5 c 128,-1,14
 345 651 345 651 250 651 c 128,-1,15
 155 651 155 651 97.5 593.5 c 128,-1,8
 40 536 40 536 40 441 c 128,-1,9
156 300 m 1,16,-1
 156 592 l 1,17,-1
 236 592 l 2,18,19
 300 592 300 592 330 572 c 128,-1,20
 360 552 360 552 360 501 c 0,21,22
 360 428 360 428 301 413 c 1,23,24
 328 374 328 374 350 318 c 2,25,-1
 357 300 l 1,26,-1
 311 300 l 1,27,28
 290 359 290 359 261 405 c 1,29,-1
 196 405 l 1,30,-1
 196 300 l 1,31,-1
 156 300 l 1,16,-1
300.5 453 m 128,-1,33
 318 463 318 463 318 499 c 128,-1,34
 318 535 318 535 300 544.5 c 128,-1,35
 282 554 282 554 233 554 c 2,36,-1
 196 554 l 1,37,-1
 196 443 l 1,38,-1
 229 443 l 2,39,32
 283 443 283 443 300.5 453 c 128,-1,33
EndSplineSet
EndChar

StartChar: degree
Encoding: 176 176 109
Width: 500
GlyphClass: 2
Flags: W
LayerCount: 2
Fore
SplineSet
111 560 m 128,-1,1
 111 619 111 619 150 656 c 128,-1,2
 189 693 189 693 250 693 c 128,-1,3
 311 693 311 693 349.5 656 c 128,-1,4
 388 619 388 619 388 559.5 c 128,-1,5
 388 500 388 500 349.5 463 c 128,-1,6
 311 426 311 426 249.5 426 c 128,-1,7
 188 426 188 426 149.5 463.5 c 128,-1,0
 111 501 111 501 111 560 c 128,-1,1
310.5 495.5 m 128,-1,9
 335 520 335 520 335 559.5 c 128,-1,10
 335 599 335 599 311.5 624 c 128,-1,11
 288 649 288 649 248 649 c 128,-1,12
 208 649 208 649 186 625.5 c 128,-1,13
 164 602 164 602 164 561 c 128,-1,14
 164 520 164 520 187 495.5 c 128,-1,15
 210 471 210 471 248 471 c 128,-1,8
 286 471 286 471 310.5 495.5 c 128,-1,9
EndSplineSet
EndChar

StartChar: plusminus
Encoding: 177 177 110
Width: 500
GlyphClass: 2
Flags: W
LayerCount: 2
Fore
SplineSet
485 298 m 1,0,-1
 275 298 l 1,1,-1
 275 146 l 1,2,-1
 225 146 l 1,3,-1
 225 298 l 1,4,-1
 15 298 l 1,5,-1
 15 341 l 1,6,-1
 225 341 l 1,7,-1
 225 502 l 1,8,-1
 275 502 l 1,9,-1
 275 341 l 1,10,-1
 485 341 l 1,11,-1
 485 298 l 1,0,-1
485 54 m 1,12,-1
 15 54 l 1,13,-1
 15 96 l 1,14,-1
 485 96 l 1,15,-1
 485 54 l 1,12,-1
EndSplineSet
Substitution2: "'calt' Contextual Alternates in Latin lookup 0 subtable" plusminus.calt
EndChar

StartChar: mu
Encoding: 181 181 111
AltUni2: 0003bc.ffffffff.0
Width: 500
GlyphClass: 2
Flags: W
LayerCount: 2
Fore
SplineSet
75 -49 m 2,0,-1
 75 475 l 1,1,-1
 128 475 l 1,2,-1
 128 154 l 2,3,4
 128 105 128 105 151 73.5 c 128,-1,5
 174 42 174 42 224 42 c 128,-1,6
 274 42 274 42 370 90 c 1,7,-1
 370 475 l 1,8,-1
 423 475 l 1,9,-1
 423 0 l 1,10,-1
 372 0 l 1,11,-1
 370 38 l 1,12,13
 272 -10 272 -10 218 -10 c 0,14,15
 187 -10 187 -10 160.5 2 c 128,-1,16
 134 14 134 14 121 33 c 1,17,-1
 126 -31 l 1,18,-1
 126 -52 l 2,19,20
 126 -142 126 -142 96 -192 c 1,21,-1
 54 -173 l 1,22,23
 67 -141 67 -141 71 -118.5 c 128,-1,24
 75 -96 75 -96 75 -49 c 2,0,-1
EndSplineSet
EndChar

StartChar: paragraph
Encoding: 182 182 112
Width: 500
GlyphClass: 2
Flags: W
LayerCount: 2
Fore
SplineSet
455 0 m 1,0,-1
 420 0 l 1,1,-1
 420 700 l 1,2,-1
 455 700 l 1,3,-1
 455 0 l 1,0,-1
295 0 m 1,4,-1
 260 0 l 1,5,-1
 260 264 l 1,6,7
 146 273 146 273 93 318 c 128,-1,8
 40 363 40 363 40 479 c 128,-1,9
 40 595 40 595 92.5 647.5 c 128,-1,10
 145 700 145 700 260 700 c 2,11,-1
 295 700 l 1,12,-1
 295 0 l 1,4,-1
260 296 m 1,13,-1
 260 668 l 1,14,15
 213 667 213 667 183.5 660.5 c 128,-1,16
 154 654 154 654 127 634 c 0,17,18
 75 596 75 596 75 475 c 0,19,20
 75 377 75 377 118.5 340.5 c 128,-1,21
 162 304 162 304 260 296 c 1,13,-1
EndSplineSet
EndChar

StartChar: periodcentered
Encoding: 183 183 113
Width: 500
GlyphClass: 2
Flags: W
LayerCount: 2
Fore
SplineSet
247 245 m 0,0,1
 202 245 202 245 202 302 c 128,-1,2
 202 359 202 359 247.5 359 c 128,-1,3
 293 359 293 359 293 300 c 0,4,5
 293 271 293 271 282.5 258 c 128,-1,6
 272 245 272 245 247 245 c 0,0,1
EndSplineSet
EndChar

StartChar: cedilla
Encoding: 184 184 114
Width: 500
GlyphClass: 2
Flags: W
LayerCount: 2
Fore
SplineSet
253 -57 m 0,0,1
 333 -57 333 -57 333 -139 c 0,2,3
 333 -183 333 -183 302 -212.5 c 128,-1,4
 271 -242 271 -242 224 -242 c 0,5,6
 199 -242 199 -242 162 -235 c 1,7,-1
 174 -192 l 1,8,9
 192 -197 192 -197 220 -197 c 0,10,11
 282 -197 282 -197 282 -138 c 0,12,13
 282 -101 282 -101 235 -101 c 0,14,15
 218 -101 218 -101 191 -106 c 1,16,-1
 192 -65 l 1,17,18
 224 -57 224 -57 253 -57 c 0,0,1
EndSplineSet
EndChar

StartChar: ordmasculine
Encoding: 186 186 115
Width: 500
GlyphClass: 2
Flags: W
LayerCount: 2
Fore
SplineSet
156 399 m 128,-1,1
 124 440 124 440 124 512.5 c 128,-1,2
 124 585 124 585 155 625 c 128,-1,3
 186 665 186 665 247 665 c 0,4,5
 372 665 372 665 372 513 c 0,6,7
 372 440 372 440 339.5 399 c 128,-1,8
 307 358 307 358 247.5 358 c 128,-1,0
 188 358 188 358 156 399 c 128,-1,1
305 425 m 128,-1,10
 324 450 324 450 324 512 c 128,-1,11
 324 574 324 574 305 598.5 c 128,-1,12
 286 623 286 623 248 623 c 128,-1,13
 210 623 210 623 191 597.5 c 128,-1,14
 172 572 172 572 172 513 c 0,15,16
 172 400 172 400 247 400 c 0,17,9
 286 400 286 400 305 425 c 128,-1,10
EndSplineSet
EndChar

StartChar: guillemotright
Encoding: 187 187 116
Width: 500
GlyphClass: 2
Flags: W
LayerCount: 2
Fore
SplineSet
242 417 m 1,0,-1
 439 248 l 1,1,-1
 439 208 l 1,2,-1
 242 39 l 1,3,-1
 242 103 l 1,4,-1
 387 226 l 1,5,-1
 242 352 l 1,6,-1
 242 417 l 1,0,-1
70 417 m 1,7,-1
 267 248 l 1,8,-1
 267 208 l 1,9,-1
 70 39 l 1,10,-1
 70 103 l 1,11,-1
 215 226 l 1,12,-1
 70 352 l 1,13,-1
 70 417 l 1,7,-1
EndSplineSet
Substitution2: "'calt' Contextual Alternates in Latin lookup 0 subtable" guillemotright.calt
EndChar

StartChar: questiondown
Encoding: 191 191 117
Width: 500
GlyphClass: 2
Flags: W
LayerCount: 2
Fore
SplineSet
299 489 m 1,0,-1
 299 396 l 1,1,-1
 214 396 l 1,2,-1
 214 489 l 1,3,-1
 299 489 l 1,0,-1
116.5 -160.5 m 128,-1,5
 68 -121 68 -121 68 -56.5 c 128,-1,6
 68 8 68 8 86 43.5 c 128,-1,7
 104 79 104 79 157 128.5 c 128,-1,8
 210 178 210 178 223.5 200 c 128,-1,9
 237 222 237 222 237 254 c 128,-1,10
 237 286 237 286 235 322 c 1,11,-1
 287 324 l 1,12,13
 295 292 295 292 295 249.5 c 128,-1,14
 295 207 295 207 278 179.5 c 128,-1,15
 261 152 261 152 208 102 c 128,-1,16
 155 52 155 52 140.5 24 c 128,-1,17
 126 -4 126 -4 126 -49 c 128,-1,18
 126 -94 126 -94 156.5 -121 c 128,-1,19
 187 -148 187 -148 232 -148 c 128,-1,20
 277 -148 277 -148 312 -129.5 c 128,-1,21
 347 -111 347 -111 396 -73 c 1,22,-1
 426 -114 l 1,23,24
 370 -158 370 -158 328 -179 c 128,-1,25
 286 -200 286 -200 238 -200 c 0,26,4
 165 -200 165 -200 116.5 -160.5 c 128,-1,5
EndSplineSet
EndChar

StartChar: Agrave
Encoding: 192 192 118
Width: 500
GlyphClass: 2
Flags: W
LayerCount: 2
Fore
SplineSet
148 883 m 1,0,-1
 352 795 l 1,1,-1
 335 753 l 1,2,-1
 129 837 l 1,3,-1
 148 883 l 1,0,-1
17 0 m 1,4,-1
 205 655 l 1,5,-1
 301 655 l 1,6,-1
 482 0 l 1,7,-1
 423 0 l 1,8,-1
 382 151 l 1,9,-1
 117 151 l 1,10,-1
 75 0 l 1,11,-1
 17 0 l 1,4,-1
369 201 m 1,12,-1
 261 605 l 1,13,-1
 244 605 l 1,14,-1
 131 201 l 1,15,-1
 369 201 l 1,12,-1
EndSplineSet
EndChar

StartChar: Aacute
Encoding: 193 193 119
Width: 500
GlyphClass: 2
Flags: W
LayerCount: 2
Fore
SplineSet
164 794 m 1,0,-1
 368 882 l 1,1,-1
 387 836 l 1,2,-1
 181 752 l 1,3,-1
 164 794 l 1,0,-1
17 0 m 1,4,-1
 205 655 l 1,5,-1
 301 655 l 1,6,-1
 482 0 l 1,7,-1
 423 0 l 1,8,-1
 382 151 l 1,9,-1
 117 151 l 1,10,-1
 75 0 l 1,11,-1
 17 0 l 1,4,-1
369 201 m 1,12,-1
 261 605 l 1,13,-1
 244 605 l 1,14,-1
 131 201 l 1,15,-1
 369 201 l 1,12,-1
EndSplineSet
EndChar

StartChar: Acircumflex
Encoding: 194 194 120
Width: 500
GlyphClass: 2
Flags: W
LayerCount: 2
Fore
SplineSet
107 752 m 1,0,-1
 233 882 l 1,1,-1
 273 882 l 1,2,-1
 399 752 l 1,3,-1
 341 752 l 1,4,-1
 253 842 l 1,5,-1
 165 752 l 1,6,-1
 107 752 l 1,0,-1
17 0 m 1,7,-1
 205 655 l 1,8,-1
 301 655 l 1,9,-1
 482 0 l 1,10,-1
 423 0 l 1,11,-1
 382 151 l 1,12,-1
 117 151 l 1,13,-1
 75 0 l 1,14,-1
 17 0 l 1,7,-1
369 201 m 1,15,-1
 261 605 l 1,16,-1
 244 605 l 1,17,-1
 131 201 l 1,18,-1
 369 201 l 1,15,-1
EndSplineSet
EndChar

StartChar: Atilde
Encoding: 195 195 121
Width: 500
GlyphClass: 2
Flags: W
LayerCount: 2
Fore
SplineSet
379 859 m 1,0,-1
 404 826 l 1,1,2
 354 771 354 771 320 771 c 128,-1,3
 286 771 286 771 248 798 c 256,4,5
 210 825 210 825 188 825 c 128,-1,6
 166 825 166 825 123 784 c 1,7,-1
 95 818 l 1,8,9
 152 872 152 872 188 872 c 128,-1,10
 224 872 224 872 262 845.5 c 128,-1,11
 300 819 300 819 318 819 c 128,-1,12
 336 819 336 819 379 859 c 1,0,-1
17 0 m 1,13,-1
 205 655 l 1,14,-1
 301 655 l 1,15,-1
 482 0 l 1,16,-1
 423 0 l 1,17,-1
 382 151 l 1,18,-1
 117 151 l 1,19,-1
 75 0 l 1,20,-1
 17 0 l 1,13,-1
369 201 m 1,21,-1
 261 605 l 1,22,-1
 244 605 l 1,23,-1
 131 201 l 1,24,-1
 369 201 l 1,21,-1
EndSplineSet
EndChar

StartChar: Adieresis
Encoding: 196 196 122
Width: 500
GlyphClass: 2
Flags: W
LayerCount: 2
Fore
SplineSet
117 812 m 128,-1,1
 117 827 117 827 127 838 c 128,-1,2
 137 849 137 849 153 849 c 128,-1,3
 169 849 169 849 179 838 c 128,-1,4
 189 827 189 827 189 812 c 128,-1,5
 189 797 189 797 179 786 c 128,-1,6
 169 775 169 775 153 775 c 128,-1,7
 137 775 137 775 127 786 c 128,-1,0
 117 797 117 797 117 812 c 128,-1,1
310 812 m 128,-1,9
 310 827 310 827 320 838 c 256,10,11
 330 849 330 849 346 849 c 128,-1,12
 362 849 362 849 372.5 838 c 128,-1,13
 383 827 383 827 383 812 c 128,-1,14
 383 797 383 797 372.5 786 c 128,-1,15
 362 775 362 775 346 775 c 128,-1,16
 330 775 330 775 320 786 c 128,-1,8
 310 797 310 797 310 812 c 128,-1,9
17 0 m 1,17,-1
 205 655 l 1,18,-1
 301 655 l 1,19,-1
 482 0 l 1,20,-1
 423 0 l 1,21,-1
 382 151 l 1,22,-1
 117 151 l 1,23,-1
 75 0 l 1,24,-1
 17 0 l 1,17,-1
369 201 m 1,25,-1
 261 605 l 1,26,-1
 244 605 l 1,27,-1
 131 201 l 1,28,-1
 369 201 l 1,25,-1
EndSplineSet
EndChar

StartChar: Aring
Encoding: 197 197 123
Width: 500
GlyphClass: 2
Flags: W
LayerCount: 2
Fore
SplineSet
325.5 888.5 m 128,-1,1
 354 863 354 863 354 818.5 c 128,-1,2
 354 774 354 774 325.5 748.5 c 128,-1,3
 297 723 297 723 249.5 723 c 128,-1,4
 202 723 202 723 173.5 748.5 c 128,-1,5
 145 774 145 774 145 818.5 c 128,-1,6
 145 863 145 863 173.5 888.5 c 128,-1,7
 202 914 202 914 249.5 914 c 128,-1,0
 297 914 297 914 325.5 888.5 c 128,-1,1
187 818 m 0,8,9
 187 791 187 791 203.5 776 c 128,-1,10
 220 761 220 761 249 761 c 128,-1,11
 278 761 278 761 294.5 776 c 128,-1,12
 311 791 311 791 311 818 c 0,13,14
 311 875 311 875 249 875 c 128,-1,15
 187 875 187 875 187 818 c 0,8,9
17 0 m 1,16,-1
 205 655 l 1,17,-1
 301 655 l 1,18,-1
 482 0 l 1,19,-1
 423 0 l 1,20,-1
 382 151 l 1,21,-1
 117 151 l 1,22,-1
 75 0 l 1,23,-1
 17 0 l 1,16,-1
369 201 m 1,24,-1
 261 605 l 1,25,-1
 244 605 l 1,26,-1
 131 201 l 1,27,-1
 369 201 l 1,24,-1
EndSplineSet
EndChar

StartChar: AE
Encoding: 198 198 124
Width: 500
GlyphClass: 2
Flags: W
LayerCount: 2
Fore
SplineSet
16 0 m 1,0,-1
 206 655 l 1,1,-1
 478 655 l 1,2,-1
 478 607 l 1,3,-1
 314 607 l 1,4,-1
 314 357 l 1,5,-1
 451 357 l 1,6,-1
 451 309 l 1,7,-1
 314 309 l 1,8,-1
 314 48 l 1,9,-1
 481 48 l 1,10,-1
 481 0 l 1,11,-1
 259 0 l 1,12,-1
 259 151 l 1,13,-1
 116 151 l 1,14,-1
 74 0 l 1,15,-1
 16 0 l 1,0,-1
259 201 m 1,16,-1
 259 608 l 1,17,-1
 248 608 l 1,18,-1
 130 201 l 1,19,-1
 259 201 l 1,16,-1
EndSplineSet
EndChar

StartChar: Ccedilla
Encoding: 199 199 125
Width: 500
GlyphClass: 2
Flags: W
LayerCount: 2
Fore
SplineSet
332.5 -80.5 m 128,-1,1
 358 -104 358 -104 358 -148.5 c 128,-1,2
 358 -193 358 -193 332.5 -217.5 c 128,-1,3
 307 -242 307 -242 265 -242 c 0,4,5
 242 -242 242 -242 202 -235 c 1,6,-1
 207 -192 l 1,7,8
 227 -197 227 -197 254 -197 c 0,9,10
 307 -197 307 -197 307 -148 c 0,11,12
 307 -101 307 -101 254 -101 c 0,13,14
 236 -101 236 -101 211 -106 c 1,15,-1
 205 -65 l 1,16,17
 237 -57 237 -57 272 -57 c 128,-1,0
 307 -57 307 -57 332.5 -80.5 c 128,-1,1
111 70 m 128,-1,19
 55 150 55 150 55 327 c 128,-1,20
 55 504 55 504 109 584.5 c 128,-1,21
 163 665 163 665 282 665 c 0,22,23
 360 665 360 665 439 640 c 1,24,-1
 439 508 l 1,25,-1
 384 508 l 1,26,-1
 384 597 l 1,27,28
 340 613 340 613 282 613 c 0,29,30
 192 613 192 613 153 546 c 128,-1,31
 114 479 114 479 114 329 c 128,-1,32
 114 179 114 179 156 111 c 128,-1,33
 198 43 198 43 282 43 c 0,34,35
 345 43 345 43 432 70 c 1,36,-1
 445 18 l 1,37,38
 363 -10 363 -10 281 -10 c 0,39,18
 167 -10 167 -10 111 70 c 128,-1,19
EndSplineSet
EndChar

StartChar: Egrave
Encoding: 200 200 126
Width: 500
GlyphClass: 2
Flags: W
LayerCount: 2
Fore
SplineSet
157 883 m 1,0,-1
 361 795 l 1,1,-1
 344 753 l 1,2,-1
 138 837 l 1,3,-1
 157 883 l 1,0,-1
82 0 m 1,4,-1
 82 655 l 1,5,-1
 423 655 l 1,6,-1
 423 606 l 1,7,-1
 137 606 l 1,8,-1
 137 358 l 1,9,-1
 396 358 l 1,10,-1
 396 309 l 1,11,-1
 137 309 l 1,12,-1
 137 49 l 1,13,-1
 426 49 l 1,14,-1
 426 0 l 1,15,-1
 82 0 l 1,4,-1
EndSplineSet
EndChar

StartChar: Eacute
Encoding: 201 201 127
Width: 500
GlyphClass: 2
Flags: W
LayerCount: 2
Fore
SplineSet
148 794 m 1,0,-1
 352 882 l 1,1,-1
 371 836 l 1,2,-1
 165 752 l 1,3,-1
 148 794 l 1,0,-1
82 0 m 1,4,-1
 82 655 l 1,5,-1
 423 655 l 1,6,-1
 423 606 l 1,7,-1
 137 606 l 1,8,-1
 137 358 l 1,9,-1
 396 358 l 1,10,-1
 396 309 l 1,11,-1
 137 309 l 1,12,-1
 137 49 l 1,13,-1
 426 49 l 1,14,-1
 426 0 l 1,15,-1
 82 0 l 1,4,-1
EndSplineSet
EndChar

StartChar: Ecircumflex
Encoding: 202 202 128
Width: 500
GlyphClass: 2
Flags: W
LayerCount: 2
Fore
SplineSet
107 752 m 1,0,-1
 233 882 l 1,1,-1
 273 882 l 1,2,-1
 399 752 l 1,3,-1
 341 752 l 1,4,-1
 253 842 l 1,5,-1
 165 752 l 1,6,-1
 107 752 l 1,0,-1
82 0 m 1,7,-1
 82 655 l 1,8,-1
 423 655 l 1,9,-1
 423 606 l 1,10,-1
 137 606 l 1,11,-1
 137 358 l 1,12,-1
 396 358 l 1,13,-1
 396 309 l 1,14,-1
 137 309 l 1,15,-1
 137 49 l 1,16,-1
 426 49 l 1,17,-1
 426 0 l 1,18,-1
 82 0 l 1,7,-1
EndSplineSet
EndChar

StartChar: Edieresis
Encoding: 203 203 129
Width: 500
GlyphClass: 2
Flags: W
LayerCount: 2
Fore
SplineSet
117 812 m 128,-1,1
 117 827 117 827 127 838 c 128,-1,2
 137 849 137 849 153 849 c 128,-1,3
 169 849 169 849 179 838 c 128,-1,4
 189 827 189 827 189 812 c 128,-1,5
 189 797 189 797 179 786 c 128,-1,6
 169 775 169 775 153 775 c 128,-1,7
 137 775 137 775 127 786 c 128,-1,0
 117 797 117 797 117 812 c 128,-1,1
310 812 m 128,-1,9
 310 827 310 827 320 838 c 256,10,11
 330 849 330 849 346 849 c 128,-1,12
 362 849 362 849 372.5 838 c 128,-1,13
 383 827 383 827 383 812 c 128,-1,14
 383 797 383 797 372.5 786 c 128,-1,15
 362 775 362 775 346 775 c 128,-1,16
 330 775 330 775 320 786 c 128,-1,8
 310 797 310 797 310 812 c 128,-1,9
82 0 m 1,17,-1
 82 655 l 1,18,-1
 423 655 l 1,19,-1
 423 606 l 1,20,-1
 137 606 l 1,21,-1
 137 358 l 1,22,-1
 396 358 l 1,23,-1
 396 309 l 1,24,-1
 137 309 l 1,25,-1
 137 49 l 1,26,-1
 426 49 l 1,27,-1
 426 0 l 1,28,-1
 82 0 l 1,17,-1
EndSplineSet
EndChar

StartChar: Igrave
Encoding: 204 204 130
Width: 500
GlyphClass: 2
Flags: W
LayerCount: 2
Fore
SplineSet
151 883 m 1,0,-1
 355 795 l 1,1,-1
 338 753 l 1,2,-1
 132 837 l 1,3,-1
 151 883 l 1,0,-1
111 0 m 1,4,-1
 111 50 l 1,5,-1
 224 50 l 1,6,-1
 224 605 l 1,7,-1
 111 605 l 1,8,-1
 111 655 l 1,9,-1
 390 655 l 1,10,-1
 390 605 l 1,11,-1
 279 605 l 1,12,-1
 279 50 l 1,13,-1
 390 50 l 1,14,-1
 390 0 l 1,15,-1
 111 0 l 1,4,-1
EndSplineSet
EndChar

StartChar: Iacute
Encoding: 205 205 131
Width: 500
GlyphClass: 2
Flags: W
LayerCount: 2
Fore
SplineSet
141 794 m 1,0,-1
 345 882 l 1,1,-1
 364 836 l 1,2,-1
 158 752 l 1,3,-1
 141 794 l 1,0,-1
111 0 m 1,4,-1
 111 50 l 1,5,-1
 224 50 l 1,6,-1
 224 605 l 1,7,-1
 111 605 l 1,8,-1
 111 655 l 1,9,-1
 390 655 l 1,10,-1
 390 605 l 1,11,-1
 279 605 l 1,12,-1
 279 50 l 1,13,-1
 390 50 l 1,14,-1
 390 0 l 1,15,-1
 111 0 l 1,4,-1
EndSplineSet
EndChar

StartChar: Icircumflex
Encoding: 206 206 132
Width: 500
GlyphClass: 2
Flags: W
LayerCount: 2
Fore
SplineSet
107 752 m 1,0,-1
 233 882 l 1,1,-1
 273 882 l 1,2,-1
 399 752 l 1,3,-1
 341 752 l 1,4,-1
 253 842 l 1,5,-1
 165 752 l 1,6,-1
 107 752 l 1,0,-1
111 0 m 1,7,-1
 111 50 l 1,8,-1
 224 50 l 1,9,-1
 224 605 l 1,10,-1
 111 605 l 1,11,-1
 111 655 l 1,12,-1
 390 655 l 1,13,-1
 390 605 l 1,14,-1
 279 605 l 1,15,-1
 279 50 l 1,16,-1
 390 50 l 1,17,-1
 390 0 l 1,18,-1
 111 0 l 1,7,-1
EndSplineSet
EndChar

StartChar: Idieresis
Encoding: 207 207 133
Width: 500
GlyphClass: 2
Flags: W
LayerCount: 2
Fore
SplineSet
117 812 m 128,-1,1
 117 827 117 827 127 838 c 128,-1,2
 137 849 137 849 153 849 c 128,-1,3
 169 849 169 849 179 838 c 128,-1,4
 189 827 189 827 189 812 c 128,-1,5
 189 797 189 797 179 786 c 128,-1,6
 169 775 169 775 153 775 c 128,-1,7
 137 775 137 775 127 786 c 128,-1,0
 117 797 117 797 117 812 c 128,-1,1
310 812 m 128,-1,9
 310 827 310 827 320 838 c 256,10,11
 330 849 330 849 346 849 c 128,-1,12
 362 849 362 849 372.5 838 c 128,-1,13
 383 827 383 827 383 812 c 128,-1,14
 383 797 383 797 372.5 786 c 128,-1,15
 362 775 362 775 346 775 c 128,-1,16
 330 775 330 775 320 786 c 128,-1,8
 310 797 310 797 310 812 c 128,-1,9
111 0 m 1,17,-1
 111 50 l 1,18,-1
 224 50 l 1,19,-1
 224 605 l 1,20,-1
 111 605 l 1,21,-1
 111 655 l 1,22,-1
 390 655 l 1,23,-1
 390 605 l 1,24,-1
 279 605 l 1,25,-1
 279 50 l 1,26,-1
 390 50 l 1,27,-1
 390 0 l 1,28,-1
 111 0 l 1,17,-1
EndSplineSet
EndChar

StartChar: Eth
Encoding: 208 208 134
Width: 500
GlyphClass: 2
Flags: W
LayerCount: 2
Fore
SplineSet
80 0 m 1,0,-1
 80 303 l 1,1,-1
 26 303 l 1,2,-1
 26 357 l 1,3,-1
 80 357 l 1,4,-1
 80 655 l 1,5,-1
 194 655 l 2,6,7
 268 655 268 655 315.5 640.5 c 128,-1,8
 363 626 363 626 396 589 c 128,-1,9
 429 552 429 552 443.5 488.5 c 128,-1,10
 458 425 458 425 458 327.5 c 128,-1,11
 458 230 458 230 442 165.5 c 128,-1,12
 426 101 426 101 391 65 c 128,-1,13
 356 29 356 29 309 14.5 c 128,-1,14
 262 0 262 0 192 0 c 2,15,-1
 80 0 l 1,0,-1
376.5 154.5 m 128,-1,17
 399 215 399 215 399 327.5 c 128,-1,18
 399 440 399 440 377 500.5 c 128,-1,19
 355 561 355 561 313 583 c 128,-1,20
 271 605 271 605 194 605 c 2,21,-1
 135 605 l 1,22,-1
 135 357 l 1,23,-1
 253 357 l 1,24,-1
 253 303 l 1,25,-1
 135 303 l 1,26,-1
 135 50 l 1,27,-1
 192 50 l 2,28,29
 269 50 269 50 311.5 72 c 128,-1,16
 354 94 354 94 376.5 154.5 c 128,-1,17
EndSplineSet
EndChar

StartChar: Ntilde
Encoding: 209 209 135
Width: 500
GlyphClass: 2
Flags: W
LayerCount: 2
Fore
SplineSet
379 859 m 1,0,-1
 404 826 l 1,1,2
 354 771 354 771 320 771 c 128,-1,3
 286 771 286 771 248 798 c 256,4,5
 210 825 210 825 188 825 c 128,-1,6
 166 825 166 825 123 784 c 1,7,-1
 95 818 l 1,8,9
 152 872 152 872 188 872 c 128,-1,10
 224 872 224 872 262 845.5 c 128,-1,11
 300 819 300 819 318 819 c 128,-1,12
 336 819 336 819 379 859 c 1,0,-1
394 0 m 1,13,-1
 394 103 l 1,14,-1
 109 551 l 1,15,-1
 106 551 l 1,16,-1
 106 0 l 1,17,-1
 51 0 l 1,18,-1
 51 655 l 1,19,-1
 105 655 l 1,20,-1
 391 202 l 1,21,-1
 394 202 l 1,22,-1
 394 655 l 1,23,-1
 449 655 l 1,24,-1
 449 0 l 1,25,-1
 394 0 l 1,13,-1
EndSplineSet
EndChar

StartChar: Ograve
Encoding: 210 210 136
Width: 500
GlyphClass: 2
Flags: W
LayerCount: 2
Fore
SplineSet
160 883 m 1,0,-1
 364 795 l 1,1,-1
 347 753 l 1,2,-1
 141 837 l 1,3,-1
 160 883 l 1,0,-1
40 334 m 0,4,5
 40 412 40 412 50 469 c 256,6,7
 60 526 60 526 82 572 c 0,8,9
 127 665 127 665 250 665 c 0,10,11
 390 664 390 664 434 534 c 0,12,13
 460 459 460 459 460 357.5 c 128,-1,14
 460 256 460 256 450 196 c 128,-1,15
 440 136 440 136 418 88 c 0,16,17
 372 -10 372 -10 250 -10 c 0,18,19
 130 -10 130 -10 83 88 c 0,20,21
 40 177 40 177 40 334 c 0,4,5
401 326 m 0,22,23
 401 380 401 380 398.5 413 c 128,-1,24
 396 446 396 446 387 486 c 128,-1,25
 378 526 378 526 362.5 552 c 128,-1,26
 347 578 347 578 318.5 595.5 c 128,-1,27
 290 613 290 613 250 613 c 128,-1,28
 210 613 210 613 181.5 595.5 c 128,-1,29
 153 578 153 578 137.5 552 c 128,-1,30
 122 526 122 526 113 486 c 0,31,32
 99 424 99 424 99 348.5 c 128,-1,33
 99 273 99 273 104.5 226.5 c 128,-1,34
 110 180 110 180 125 135 c 0,35,36
 156 42 156 42 250 42 c 0,37,38
 346 42 346 42 376 136 c 0,39,40
 402 216 402 216 401 326 c 0,22,23
EndSplineSet
EndChar

StartChar: Oacute
Encoding: 211 211 137
Width: 500
GlyphClass: 2
Flags: W
LayerCount: 2
Fore
SplineSet
155 794 m 1,0,-1
 359 882 l 1,1,-1
 378 836 l 1,2,-1
 172 752 l 1,3,-1
 155 794 l 1,0,-1
40 334 m 0,4,5
 40 412 40 412 50 469 c 256,6,7
 60 526 60 526 82 572 c 0,8,9
 127 665 127 665 250 665 c 0,10,11
 390 664 390 664 434 534 c 0,12,13
 460 459 460 459 460 357.5 c 128,-1,14
 460 256 460 256 450 196 c 128,-1,15
 440 136 440 136 418 88 c 0,16,17
 372 -10 372 -10 250 -10 c 0,18,19
 130 -10 130 -10 83 88 c 0,20,21
 40 177 40 177 40 334 c 0,4,5
401 326 m 0,22,23
 401 380 401 380 398.5 413 c 128,-1,24
 396 446 396 446 387 486 c 128,-1,25
 378 526 378 526 362.5 552 c 128,-1,26
 347 578 347 578 318.5 595.5 c 128,-1,27
 290 613 290 613 250 613 c 128,-1,28
 210 613 210 613 181.5 595.5 c 128,-1,29
 153 578 153 578 137.5 552 c 128,-1,30
 122 526 122 526 113 486 c 0,31,32
 99 424 99 424 99 348.5 c 128,-1,33
 99 273 99 273 104.5 226.5 c 128,-1,34
 110 180 110 180 125 135 c 0,35,36
 156 42 156 42 250 42 c 0,37,38
 346 42 346 42 376 136 c 0,39,40
 402 216 402 216 401 326 c 0,22,23
EndSplineSet
EndChar

StartChar: Ocircumflex
Encoding: 212 212 138
Width: 500
GlyphClass: 2
Flags: W
LayerCount: 2
Fore
SplineSet
107 752 m 1,0,-1
 233 882 l 1,1,-1
 273 882 l 1,2,-1
 399 752 l 1,3,-1
 341 752 l 1,4,-1
 253 842 l 1,5,-1
 165 752 l 1,6,-1
 107 752 l 1,0,-1
40 334 m 0,7,8
 40 412 40 412 50 469 c 256,9,10
 60 526 60 526 82 572 c 0,11,12
 127 665 127 665 250 665 c 0,13,14
 390 664 390 664 434 534 c 0,15,16
 460 459 460 459 460 357.5 c 128,-1,17
 460 256 460 256 450 196 c 128,-1,18
 440 136 440 136 418 88 c 0,19,20
 372 -10 372 -10 250 -10 c 0,21,22
 130 -10 130 -10 83 88 c 0,23,24
 40 177 40 177 40 334 c 0,7,8
401 326 m 0,25,26
 401 380 401 380 398.5 413 c 128,-1,27
 396 446 396 446 387 486 c 128,-1,28
 378 526 378 526 362.5 552 c 128,-1,29
 347 578 347 578 318.5 595.5 c 128,-1,30
 290 613 290 613 250 613 c 128,-1,31
 210 613 210 613 181.5 595.5 c 128,-1,32
 153 578 153 578 137.5 552 c 128,-1,33
 122 526 122 526 113 486 c 0,34,35
 99 424 99 424 99 348.5 c 128,-1,36
 99 273 99 273 104.5 226.5 c 128,-1,37
 110 180 110 180 125 135 c 0,38,39
 156 42 156 42 250 42 c 0,40,41
 346 42 346 42 376 136 c 0,42,43
 402 216 402 216 401 326 c 0,25,26
EndSplineSet
EndChar

StartChar: Otilde
Encoding: 213 213 139
Width: 500
GlyphClass: 2
Flags: W
LayerCount: 2
Fore
SplineSet
379 859 m 1,0,-1
 404 826 l 1,1,2
 353 771 353 771 319.5 771 c 128,-1,3
 286 771 286 771 248.5 798 c 128,-1,4
 211 825 211 825 188.5 825 c 128,-1,5
 166 825 166 825 123 784 c 1,6,-1
 95 818 l 1,7,8
 151 872 151 872 187.5 872 c 128,-1,9
 224 872 224 872 262 845.5 c 128,-1,10
 300 819 300 819 318 819 c 128,-1,11
 336 819 336 819 379 859 c 1,0,-1
40 334 m 0,12,13
 40 412 40 412 50 469 c 256,14,15
 60 526 60 526 82 572 c 0,16,17
 127 665 127 665 250 665 c 0,18,19
 390 664 390 664 434 534 c 0,20,21
 460 459 460 459 460 357.5 c 128,-1,22
 460 256 460 256 450 196 c 128,-1,23
 440 136 440 136 418 88 c 0,24,25
 372 -10 372 -10 250 -10 c 0,26,27
 130 -10 130 -10 83 88 c 0,28,29
 40 177 40 177 40 334 c 0,12,13
401 326 m 0,30,31
 401 380 401 380 398.5 413 c 128,-1,32
 396 446 396 446 387 486 c 128,-1,33
 378 526 378 526 362.5 552 c 128,-1,34
 347 578 347 578 318.5 595.5 c 128,-1,35
 290 613 290 613 250 613 c 128,-1,36
 210 613 210 613 181.5 595.5 c 128,-1,37
 153 578 153 578 137.5 552 c 128,-1,38
 122 526 122 526 113 486 c 0,39,40
 99 424 99 424 99 348.5 c 128,-1,41
 99 273 99 273 104.5 226.5 c 128,-1,42
 110 180 110 180 125 135 c 0,43,44
 156 42 156 42 250 42 c 0,45,46
 346 42 346 42 376 136 c 0,47,48
 402 216 402 216 401 326 c 0,30,31
EndSplineSet
EndChar

StartChar: Odieresis
Encoding: 214 214 140
Width: 500
GlyphClass: 2
Flags: W
LayerCount: 2
Fore
SplineSet
117 812 m 128,-1,1
 117 827 117 827 127 838 c 128,-1,2
 137 849 137 849 153 849 c 128,-1,3
 169 849 169 849 179 838 c 128,-1,4
 189 827 189 827 189 812 c 128,-1,5
 189 797 189 797 179 786 c 128,-1,6
 169 775 169 775 153 775 c 128,-1,7
 137 775 137 775 127 786 c 128,-1,0
 117 797 117 797 117 812 c 128,-1,1
310 812 m 128,-1,9
 310 827 310 827 320.5 838 c 128,-1,10
 331 849 331 849 346.5 849 c 128,-1,11
 362 849 362 849 372.5 838 c 128,-1,12
 383 827 383 827 383 812 c 128,-1,13
 383 797 383 797 372.5 786 c 128,-1,14
 362 775 362 775 346.5 775 c 128,-1,15
 331 775 331 775 320.5 786 c 128,-1,8
 310 797 310 797 310 812 c 128,-1,9
40 334 m 0,16,17
 40 412 40 412 50 469 c 256,18,19
 60 526 60 526 82 572 c 0,20,21
 127 665 127 665 250 665 c 0,22,23
 390 664 390 664 434 534 c 0,24,25
 460 459 460 459 460 357.5 c 128,-1,26
 460 256 460 256 450 196 c 128,-1,27
 440 136 440 136 418 88 c 0,28,29
 372 -10 372 -10 250 -10 c 0,30,31
 130 -10 130 -10 83 88 c 0,32,33
 40 177 40 177 40 334 c 0,16,17
401 326 m 0,34,35
 401 380 401 380 398.5 413 c 128,-1,36
 396 446 396 446 387 486 c 128,-1,37
 378 526 378 526 362.5 552 c 128,-1,38
 347 578 347 578 318.5 595.5 c 128,-1,39
 290 613 290 613 250 613 c 128,-1,40
 210 613 210 613 181.5 595.5 c 128,-1,41
 153 578 153 578 137.5 552 c 128,-1,42
 122 526 122 526 113 486 c 0,43,44
 99 424 99 424 99 348.5 c 128,-1,45
 99 273 99 273 104.5 226.5 c 128,-1,46
 110 180 110 180 125 135 c 0,47,48
 156 42 156 42 250 42 c 0,49,50
 346 42 346 42 376 136 c 0,51,52
 402 216 402 216 401 326 c 0,34,35
EndSplineSet
EndChar

StartChar: multiply
Encoding: 215 215 141
Width: 500
GlyphClass: 2
Flags: W
LayerCount: 2
Fore
SplineSet
402 108 m 1,0,-1
 247 263 l 1,1,-1
 92 108 l 1,2,-1
 58 141 l 1,3,-1
 214 297 l 1,4,-1
 58 452 l 1,5,-1
 92 485 l 1,6,-1
 247 330 l 1,7,-1
 402 485 l 1,8,-1
 436 452 l 1,9,-1
 280 297 l 1,10,-1
 436 141 l 1,11,-1
 402 108 l 1,0,-1
EndSplineSet
Substitution2: "'calt' Contextual Alternates in Latin lookup 0 subtable" multiply.calt
EndChar

StartChar: Oslash
Encoding: 216 216 142
Width: 500
GlyphClass: 2
Flags: W
LayerCount: 2
Fore
SplineSet
40 336 m 0,0,1
 40 582 40 582 146 642 c 0,2,3
 188 666 188 666 250 665 c 1,4,5
 334 665 334 665 385 616 c 1,6,-1
 413 666 l 1,7,-1
 450 644 l 1,8,-1
 413 580 l 1,9,10
 460 501 460 501 460 336 c 0,11,12
 460 79 460 79 353 15 c 0,13,14
 311 -10 311 -10 250 -10 c 0,15,16
 161 -10 161 -10 111 46 c 1,17,-1
 81 -8 l 1,18,-1
 45 14 l 1,19,-1
 85 85 l 1,20,21
 40 168 40 168 40 336 c 0,0,1
120 148 m 1,22,-1
 355 563 l 1,23,24
 317 613 317 613 250 613 c 0,25,26
 210 613 210 613 181.5 595.5 c 128,-1,27
 153 578 153 578 137.5 552 c 128,-1,28
 122 526 122 526 113 486 c 0,29,30
 99 424 99 424 99 318.5 c 128,-1,31
 99 213 99 213 120 148 c 1,22,-1
378 518 m 1,32,-1
 142 100 l 1,33,34
 177 42 177 42 250 42 c 0,35,36
 346 42 346 42 376 136 c 0,37,38
 402 216 402 216 401.5 336 c 128,-1,39
 401 456 401 456 378 518 c 1,32,-1
EndSplineSet
EndChar

StartChar: Ugrave
Encoding: 217 217 143
Width: 500
GlyphClass: 2
Flags: W
LayerCount: 2
Fore
SplineSet
149 883 m 1,0,-1
 353 795 l 1,1,-1
 336 753 l 1,2,-1
 130 837 l 1,3,-1
 149 883 l 1,0,-1
54 189 m 2,4,-1
 54 655 l 1,5,-1
 109 655 l 1,6,-1
 109 196 l 2,7,8
 109 42 109 42 250 42 c 0,9,10
 321 42 321 42 356 84.5 c 128,-1,11
 391 127 391 127 391 196 c 2,12,-1
 391 655 l 1,13,-1
 446 655 l 1,14,-1
 446 189 l 2,15,16
 446 92 446 92 395.5 41 c 128,-1,17
 345 -10 345 -10 248 -10 c 128,-1,18
 151 -10 151 -10 102.5 43 c 128,-1,19
 54 96 54 96 54 189 c 2,4,-1
EndSplineSet
EndChar

StartChar: Uacute
Encoding: 218 218 144
Width: 500
GlyphClass: 2
Flags: W
LayerCount: 2
Fore
SplineSet
159 794 m 1,0,-1
 363 882 l 1,1,-1
 382 836 l 1,2,-1
 176 752 l 1,3,-1
 159 794 l 1,0,-1
54 189 m 2,4,-1
 54 655 l 1,5,-1
 109 655 l 1,6,-1
 109 196 l 2,7,8
 109 42 109 42 250 42 c 0,9,10
 321 42 321 42 356 84.5 c 128,-1,11
 391 127 391 127 391 196 c 2,12,-1
 391 655 l 1,13,-1
 446 655 l 1,14,-1
 446 189 l 2,15,16
 446 92 446 92 395.5 41 c 128,-1,17
 345 -10 345 -10 248 -10 c 128,-1,18
 151 -10 151 -10 102.5 43 c 128,-1,19
 54 96 54 96 54 189 c 2,4,-1
EndSplineSet
EndChar

StartChar: Ucircumflex
Encoding: 219 219 145
Width: 500
GlyphClass: 2
Flags: W
LayerCount: 2
Fore
SplineSet
107 752 m 1,0,-1
 233 882 l 1,1,-1
 273 882 l 1,2,-1
 399 752 l 1,3,-1
 341 752 l 1,4,-1
 253 842 l 1,5,-1
 165 752 l 1,6,-1
 107 752 l 1,0,-1
54 189 m 2,7,-1
 54 655 l 1,8,-1
 109 655 l 1,9,-1
 109 196 l 2,10,11
 109 42 109 42 250 42 c 0,12,13
 321 42 321 42 356 84.5 c 128,-1,14
 391 127 391 127 391 196 c 2,15,-1
 391 655 l 1,16,-1
 446 655 l 1,17,-1
 446 189 l 2,18,19
 446 92 446 92 395.5 41 c 128,-1,20
 345 -10 345 -10 248 -10 c 128,-1,21
 151 -10 151 -10 102.5 43 c 128,-1,22
 54 96 54 96 54 189 c 2,7,-1
EndSplineSet
EndChar

StartChar: Udieresis
Encoding: 220 220 146
Width: 500
GlyphClass: 2
Flags: W
LayerCount: 2
Fore
SplineSet
117 812 m 128,-1,1
 117 827 117 827 127 838 c 128,-1,2
 137 849 137 849 153 849 c 128,-1,3
 169 849 169 849 179 838 c 128,-1,4
 189 827 189 827 189 812 c 128,-1,5
 189 797 189 797 179 786 c 128,-1,6
 169 775 169 775 153 775 c 128,-1,7
 137 775 137 775 127 786 c 128,-1,0
 117 797 117 797 117 812 c 128,-1,1
310 812 m 128,-1,9
 310 827 310 827 320 838 c 256,10,11
 330 849 330 849 346 849 c 128,-1,12
 362 849 362 849 372.5 838 c 128,-1,13
 383 827 383 827 383 812 c 128,-1,14
 383 797 383 797 372.5 786 c 128,-1,15
 362 775 362 775 346 775 c 128,-1,16
 330 775 330 775 320 786 c 128,-1,8
 310 797 310 797 310 812 c 128,-1,9
54 189 m 2,17,-1
 54 655 l 1,18,-1
 109 655 l 1,19,-1
 109 196 l 2,20,21
 109 42 109 42 250 42 c 0,22,23
 321 42 321 42 356 84.5 c 128,-1,24
 391 127 391 127 391 196 c 2,25,-1
 391 655 l 1,26,-1
 446 655 l 1,27,-1
 446 189 l 2,28,29
 446 92 446 92 395.5 41 c 128,-1,30
 345 -10 345 -10 248 -10 c 128,-1,31
 151 -10 151 -10 102.5 43 c 128,-1,32
 54 96 54 96 54 189 c 2,17,-1
EndSplineSet
EndChar

StartChar: Yacute
Encoding: 221 221 147
Width: 500
GlyphClass: 2
Flags: W
LayerCount: 2
Fore
SplineSet
158 762 m 1,0,-1
 339 862 l 1,1,-1
 362 813 l 1,2,-1
 179 723 l 1,3,-1
 158 762 l 1,0,-1
276 283 m 1,4,-1
 276 0 l 1,5,-1
 222 0 l 1,6,-1
 222 283 l 1,7,-1
 29 655 l 1,8,-1
 95 655 l 1,9,-1
 248 340 l 1,10,-1
 250 340 l 1,11,-1
 403 655 l 1,12,-1
 469 655 l 1,13,-1
 276 283 l 1,4,-1
EndSplineSet
EndChar

StartChar: Thorn
Encoding: 222 222 148
Width: 500
GlyphClass: 2
Flags: W
LayerCount: 2
Fore
SplineSet
120 125 m 1,0,-1
 120 0 l 1,1,-1
 65 0 l 1,2,-1
 65 655 l 1,3,-1
 120 655 l 1,4,-1
 120 540 l 1,5,-1
 229 540 l 2,6,7
 282 540 282 540 323.5 517 c 128,-1,8
 365 494 365 494 386 457.5 c 128,-1,9
 407 421 407 421 416 376.5 c 128,-1,10
 425 332 425 332 414.5 288 c 128,-1,11
 404 244 404 244 382 207.5 c 128,-1,12
 360 171 360 171 319 148 c 128,-1,13
 278 125 278 125 227 125 c 2,14,-1
 120 125 l 1,0,-1
229 490 m 2,15,-1
 120 490 l 1,16,-1
 120 175 l 1,17,-1
 227 175 l 2,18,19
 263 175 263 175 292 192.5 c 128,-1,20
 321 210 321 210 336 237.5 c 128,-1,21
 351 265 351 265 358 298.5 c 128,-1,22
 365 332 365 332 358.5 366 c 128,-1,23
 352 400 352 400 337 427.5 c 128,-1,24
 322 455 322 455 293.5 472.5 c 128,-1,25
 265 490 265 490 229 490 c 2,15,-1
EndSplineSet
Substitution2: "'calt' Contextual Alternates in Latin lookup 0 subtable" Thorn.calt
EndChar

StartChar: germandbls
Encoding: 223 223 149
Width: 500
GlyphClass: 2
Flags: W
LayerCount: 2
Fore
SplineSet
69 0 m 1,0,-1
 69 469 l 2,1,2
 69 561 69 561 114 613 c 128,-1,3
 159 665 159 665 243.5 665 c 128,-1,4
 328 665 328 665 369.5 622.5 c 128,-1,5
 411 580 411 580 411 519 c 2,6,-1
 411 435 l 1,7,8
 350 429 350 429 312.5 421 c 128,-1,9
 275 413 275 413 262 397 c 128,-1,10
 249 381 249 381 249 351.5 c 128,-1,11
 249 322 249 322 267.5 304.5 c 128,-1,12
 286 287 286 287 350.5 266 c 128,-1,13
 415 245 415 245 439 218 c 128,-1,14
 463 191 463 191 463 135 c 0,15,16
 463 -9 463 -9 317 -9 c 0,17,18
 268 -9 268 -9 190 17 c 1,19,-1
 204 69 l 1,20,21
 279 42 279 42 321 42 c 0,22,23
 409 42 409 42 409 133 c 0,24,25
 409 168 409 168 392.5 185 c 128,-1,26
 376 202 376 202 313.5 221.5 c 128,-1,27
 251 241 251 241 223 270 c 128,-1,28
 195 299 195 299 195 349 c 0,29,30
 195 454 195 454 309 469 c 1,31,-1
 358 475 l 1,32,-1
 358 507 l 2,33,34
 358 615 358 615 240 615 c 0,35,36
 182 615 182 615 152 577 c 128,-1,37
 122 539 122 539 122 466 c 2,38,-1
 122 0 l 1,39,-1
 69 0 l 1,0,-1
EndSplineSet
EndChar

StartChar: agrave
Encoding: 224 224 150
Width: 500
GlyphClass: 2
Flags: W
LayerCount: 2
Fore
SplineSet
218 43 m 0,0,1
 255 43 255 43 298.5 66.5 c 128,-1,2
 342 90 342 90 362 110 c 1,3,-1
 362 229 l 1,4,5
 296 234 296 234 236 234 c 128,-1,6
 176 234 176 234 146 208.5 c 128,-1,7
 116 183 116 183 116 140 c 0,8,9
 116 43 116 43 218 43 c 0,0,1
217 -9 m 0,10,11
 144 -9 144 -9 102 28.5 c 128,-1,12
 60 66 60 66 60 135 c 128,-1,13
 60 204 60 204 106 242 c 0,14,15
 152 281 152 281 228 281 c 128,-1,16
 304 281 304 281 362 275 c 1,17,18
 362 364 362 364 340 396.5 c 128,-1,19
 318 429 318 429 251 429 c 128,-1,20
 184 429 184 429 93 397 c 1,21,-1
 78 447 l 1,22,23
 171 481 171 481 246 481 c 0,24,25
 345 481 345 481 380 437 c 128,-1,26
 415 393 415 393 415 283 c 2,27,-1
 415 73 l 1,28,-1
 423 -3 l 1,29,-1
 372 -8 l 1,30,-1
 362 52 l 1,31,32
 339 32 339 32 297 11.5 c 128,-1,33
 255 -9 255 -9 217 -9 c 0,10,11
171 717 m 1,34,-1
 352 617 l 1,35,-1
 331 578 l 1,36,-1
 148 668 l 1,37,-1
 171 717 l 1,34,-1
EndSplineSet
Substitution2: "'smcp' Lowercase to Small Capitals in Latin lookup 3 subtable" agrave.sc
EndChar

StartChar: aacute
Encoding: 225 225 151
Width: 500
GlyphClass: 2
Flags: W
LayerCount: 2
Fore
SplineSet
218 43 m 0,0,1
 255 43 255 43 298.5 66.5 c 128,-1,2
 342 90 342 90 362 110 c 1,3,-1
 362 229 l 1,4,5
 296 234 296 234 236 234 c 128,-1,6
 176 234 176 234 146 208.5 c 128,-1,7
 116 183 116 183 116 140 c 0,8,9
 116 43 116 43 218 43 c 0,0,1
217 -9 m 0,10,11
 144 -9 144 -9 102 28.5 c 128,-1,12
 60 66 60 66 60 135 c 128,-1,13
 60 204 60 204 106 242 c 0,14,15
 152 281 152 281 228 281 c 128,-1,16
 304 281 304 281 362 275 c 1,17,18
 362 364 362 364 340 396.5 c 128,-1,19
 318 429 318 429 251 429 c 128,-1,20
 184 429 184 429 93 397 c 1,21,-1
 78 447 l 1,22,23
 171 481 171 481 246 481 c 0,24,25
 345 481 345 481 380 437 c 128,-1,26
 415 393 415 393 415 283 c 2,27,-1
 415 73 l 1,28,-1
 423 -3 l 1,29,-1
 372 -8 l 1,30,-1
 362 52 l 1,31,32
 339 32 339 32 297 11.5 c 128,-1,33
 255 -9 255 -9 217 -9 c 0,10,11
135 617 m 1,34,-1
 316 717 l 1,35,-1
 339 668 l 1,36,-1
 156 578 l 1,37,-1
 135 617 l 1,34,-1
EndSplineSet
Substitution2: "'smcp' Lowercase to Small Capitals in Latin lookup 3 subtable" aacute.sc
EndChar

StartChar: acircumflex
Encoding: 226 226 152
Width: 500
GlyphClass: 2
Flags: W
LayerCount: 2
Fore
SplineSet
218 43 m 0,0,1
 255 43 255 43 298.5 66.5 c 128,-1,2
 342 90 342 90 362 110 c 1,3,-1
 362 229 l 1,4,5
 296 234 296 234 236 234 c 128,-1,6
 176 234 176 234 146 208.5 c 128,-1,7
 116 183 116 183 116 140 c 0,8,9
 116 43 116 43 218 43 c 0,0,1
217 -9 m 0,10,11
 144 -9 144 -9 102 28.5 c 128,-1,12
 60 66 60 66 60 135 c 128,-1,13
 60 204 60 204 106 242 c 0,14,15
 152 281 152 281 228 281 c 128,-1,16
 304 281 304 281 362 275 c 1,17,18
 362 364 362 364 340 396.5 c 128,-1,19
 318 429 318 429 251 429 c 128,-1,20
 184 429 184 429 93 397 c 1,21,-1
 78 447 l 1,22,23
 171 481 171 481 246 481 c 0,24,25
 345 481 345 481 380 437 c 128,-1,26
 415 393 415 393 415 283 c 2,27,-1
 415 73 l 1,28,-1
 423 -3 l 1,29,-1
 372 -8 l 1,30,-1
 362 52 l 1,31,32
 339 32 339 32 297 11.5 c 128,-1,33
 255 -9 255 -9 217 -9 c 0,10,11
273 750 m 1,34,-1
 401 588 l 1,35,-1
 343 588 l 1,36,-1
 250 710 l 1,37,-1
 157 588 l 1,38,-1
 99 588 l 1,39,-1
 227 750 l 1,40,-1
 273 750 l 1,34,-1
EndSplineSet
Substitution2: "'smcp' Lowercase to Small Capitals in Latin lookup 3 subtable" acircumflex.sc
EndChar

StartChar: atilde
Encoding: 227 227 153
Width: 500
GlyphClass: 2
Flags: W
LayerCount: 2
Fore
SplineSet
218 43 m 0,0,1
 255 43 255 43 298.5 66.5 c 128,-1,2
 342 90 342 90 362 110 c 1,3,-1
 362 229 l 1,4,5
 296 234 296 234 236 234 c 128,-1,6
 176 234 176 234 146 208.5 c 128,-1,7
 116 183 116 183 116 140 c 0,8,9
 116 43 116 43 218 43 c 0,0,1
217 -9 m 0,10,11
 144 -9 144 -9 102 28.5 c 128,-1,12
 60 66 60 66 60 135 c 128,-1,13
 60 204 60 204 106 242 c 0,14,15
 152 281 152 281 228 281 c 128,-1,16
 304 281 304 281 362 275 c 1,17,18
 362 364 362 364 340 396.5 c 128,-1,19
 318 429 318 429 251 429 c 128,-1,20
 184 429 184 429 93 397 c 1,21,-1
 78 447 l 1,22,23
 171 481 171 481 246 481 c 0,24,25
 345 481 345 481 380 437 c 128,-1,26
 415 393 415 393 415 283 c 2,27,-1
 415 73 l 1,28,-1
 423 -3 l 1,29,-1
 372 -8 l 1,30,-1
 362 52 l 1,31,32
 339 32 339 32 297 11.5 c 128,-1,33
 255 -9 255 -9 217 -9 c 0,10,11
367 694 m 1,34,-1
 392 661 l 1,35,36
 342 606 342 606 308 606 c 128,-1,37
 274 606 274 606 236 633 c 256,38,39
 198 660 198 660 176 660 c 128,-1,40
 154 660 154 660 111 619 c 1,41,-1
 83 653 l 1,42,43
 140 707 140 707 176 707 c 128,-1,44
 212 707 212 707 250 680.5 c 128,-1,45
 288 654 288 654 306 654 c 128,-1,46
 324 654 324 654 367 694 c 1,34,-1
EndSplineSet
Substitution2: "'smcp' Lowercase to Small Capitals in Latin lookup 3 subtable" atilde.sc
EndChar

StartChar: adieresis
Encoding: 228 228 154
Width: 500
GlyphClass: 2
Flags: W
LayerCount: 2
Fore
SplineSet
218 43 m 0,0,1
 255 43 255 43 298.5 66.5 c 128,-1,2
 342 90 342 90 362 110 c 1,3,-1
 362 229 l 1,4,5
 296 234 296 234 236 234 c 128,-1,6
 176 234 176 234 146 208.5 c 128,-1,7
 116 183 116 183 116 140 c 0,8,9
 116 43 116 43 218 43 c 0,0,1
217 -9 m 0,10,11
 144 -9 144 -9 102 28.5 c 128,-1,12
 60 66 60 66 60 135 c 128,-1,13
 60 204 60 204 106 242 c 0,14,15
 152 281 152 281 228 281 c 128,-1,16
 304 281 304 281 362 275 c 1,17,18
 362 364 362 364 340 396.5 c 128,-1,19
 318 429 318 429 251 429 c 128,-1,20
 184 429 184 429 93 397 c 1,21,-1
 78 447 l 1,22,23
 171 481 171 481 246 481 c 0,24,25
 345 481 345 481 380 437 c 128,-1,26
 415 393 415 393 415 283 c 2,27,-1
 415 73 l 1,28,-1
 423 -3 l 1,29,-1
 372 -8 l 1,30,-1
 362 52 l 1,31,32
 339 32 339 32 297 11.5 c 128,-1,33
 255 -9 255 -9 217 -9 c 0,10,11
117 647 m 128,-1,35
 117 662 117 662 127 673 c 128,-1,36
 137 684 137 684 153 684 c 128,-1,37
 169 684 169 684 179 673 c 128,-1,38
 189 662 189 662 189 647 c 128,-1,39
 189 632 189 632 179 621 c 128,-1,40
 169 610 169 610 153 610 c 128,-1,41
 137 610 137 610 127 621 c 128,-1,34
 117 632 117 632 117 647 c 128,-1,35
310 647 m 128,-1,43
 310 662 310 662 320 673 c 256,44,45
 330 684 330 684 346 684 c 128,-1,46
 362 684 362 684 372.5 673 c 128,-1,47
 383 662 383 662 383 647 c 128,-1,48
 383 632 383 632 372.5 621 c 128,-1,49
 362 610 362 610 346 610 c 128,-1,50
 330 610 330 610 320 621 c 128,-1,42
 310 632 310 632 310 647 c 128,-1,43
EndSplineSet
Substitution2: "'smcp' Lowercase to Small Capitals in Latin lookup 3 subtable" adieresis.sc
EndChar

StartChar: aring
Encoding: 229 229 155
Width: 500
GlyphClass: 2
Flags: W
LayerCount: 2
Fore
SplineSet
218 43 m 0,0,1
 255 43 255 43 298.5 66.5 c 128,-1,2
 342 90 342 90 362 110 c 1,3,-1
 362 229 l 1,4,5
 297 234 297 234 236.5 234 c 128,-1,6
 176 234 176 234 146 208.5 c 128,-1,7
 116 183 116 183 116 140 c 0,8,9
 116 43 116 43 218 43 c 0,0,1
217 -9 m 0,10,11
 144 -9 144 -9 102 28.5 c 128,-1,12
 60 66 60 66 60 135 c 128,-1,13
 60 204 60 204 105.5 242.5 c 128,-1,14
 151 281 151 281 227.5 281 c 128,-1,15
 304 281 304 281 362 275 c 1,16,17
 362 364 362 364 340 396.5 c 128,-1,18
 318 429 318 429 251 429 c 128,-1,19
 184 429 184 429 93 397 c 1,20,-1
 78 447 l 1,21,22
 171 481 171 481 246 481 c 0,23,24
 345 481 345 481 380 437 c 128,-1,25
 415 393 415 393 415 283 c 2,26,-1
 415 73 l 1,27,-1
 423 -3 l 1,28,-1
 372 -8 l 1,29,-1
 362 52 l 1,30,31
 339 32 339 32 297 11.5 c 128,-1,32
 255 -9 255 -9 217 -9 c 0,10,11
325.5 698.5 m 128,-1,34
 354 673 354 673 354 628.5 c 128,-1,35
 354 584 354 584 325.5 558.5 c 128,-1,36
 297 533 297 533 249.5 533 c 128,-1,37
 202 533 202 533 173.5 558.5 c 128,-1,38
 145 584 145 584 145 628.5 c 128,-1,39
 145 673 145 673 173.5 698.5 c 128,-1,40
 202 724 202 724 249.5 724 c 128,-1,33
 297 724 297 724 325.5 698.5 c 128,-1,34
187 628 m 0,41,42
 187 601 187 601 203.5 586 c 128,-1,43
 220 571 220 571 249 571 c 128,-1,44
 278 571 278 571 294.5 586 c 128,-1,45
 311 601 311 601 311 628 c 0,46,47
 311 685 311 685 249 685 c 128,-1,48
 187 685 187 685 187 628 c 0,41,42
EndSplineSet
Substitution2: "'smcp' Lowercase to Small Capitals in Latin lookup 3 subtable" aring.sc
EndChar

StartChar: ae
Encoding: 230 230 156
Width: 500
GlyphClass: 2
Flags: W
LayerCount: 2
Fore
SplineSet
135 -10 m 0,0,1
 82 -10 82 -10 50.5 28.5 c 128,-1,2
 19 67 19 67 19 131.5 c 128,-1,3
 19 196 19 196 55.5 232.5 c 128,-1,4
 92 269 92 269 156 269 c 2,5,-1
 221 269 l 1,6,7
 221 370 221 370 215.5 383.5 c 128,-1,8
 210 397 210 397 204 407 c 0,9,10
 194 423 194 423 155 423 c 128,-1,11
 116 423 116 423 52 392 c 1,12,-1
 34 440 l 1,13,14
 106 475 106 475 154.5 475 c 128,-1,15
 203 475 203 475 225.5 461.5 c 128,-1,16
 248 448 248 448 259 415 c 1,17,18
 286 480 286 480 355.5 480 c 128,-1,19
 425 480 425 480 455 429.5 c 128,-1,20
 485 379 485 379 485 269 c 1,21,-1
 482 217 l 1,22,-1
 274 217 l 1,23,24
 284 84 284 84 324 54 c 0,25,26
 342 40 342 40 363 41 c 0,27,28
 396 42 396 42 448 58 c 1,29,-1
 466 63 l 1,30,-1
 481 15 l 1,31,32
 416 -10 416 -10 372.5 -10 c 128,-1,33
 329 -10 329 -10 302 6.5 c 128,-1,34
 275 23 275 23 255 60 c 1,35,36
 217 -10 217 -10 135 -10 c 0,0,1
221 92 m 1,37,-1
 221 218 l 1,38,-1
 156 218 l 2,39,40
 118 218 118 218 96.5 196 c 128,-1,41
 75 174 75 174 75 134 c 0,42,43
 75 41 75 41 140 41 c 1,44,45
 180 42 180 42 208 74 c 0,46,47
 214 82 214 82 221 92 c 1,37,-1
412.5 388.5 m 128,-1,49
 397 428 397 428 354 428 c 128,-1,50
 311 428 311 428 293.5 390 c 128,-1,51
 276 352 276 352 274 267 c 1,52,-1
 428 267 l 1,53,48
 428 349 428 349 412.5 388.5 c 128,-1,49
EndSplineSet
Substitution2: "'smcp' Lowercase to Small Capitals in Latin lookup 3 subtable" ae.sc
EndChar

StartChar: ccedilla
Encoding: 231 231 157
Width: 500
GlyphClass: 2
Flags: W
LayerCount: 2
Fore
SplineSet
359 320 m 1,0,-1
 359 419 l 1,1,2
 310 430 310 430 281 430 c 0,3,4
 209 430 209 430 173.5 379 c 128,-1,5
 138 328 138 328 138 238 c 128,-1,6
 138 148 138 148 174 95.5 c 128,-1,7
 210 43 210 43 281 43 c 0,8,9
 326 43 326 43 406 71 c 1,10,-1
 421 21 l 1,11,12
 342 -9 342 -9 282 -9 c 0,13,14
 184 -9 184 -9 132.5 56.5 c 128,-1,15
 81 122 81 122 81 239 c 128,-1,16
 81 356 81 356 132 418.5 c 128,-1,17
 183 481 183 481 282 481 c 0,18,19
 348 481 348 481 413 460 c 1,20,-1
 413 320 l 1,21,-1
 359 320 l 1,0,-1
337.5 -80.5 m 128,-1,23
 363 -104 363 -104 363 -148.5 c 128,-1,24
 363 -193 363 -193 337.5 -217.5 c 128,-1,25
 312 -242 312 -242 270 -242 c 0,26,27
 247 -242 247 -242 207 -235 c 1,28,-1
 212 -192 l 1,29,30
 232 -197 232 -197 259 -197 c 0,31,32
 312 -197 312 -197 312 -148 c 0,33,34
 312 -101 312 -101 259 -101 c 0,35,36
 241 -101 241 -101 216 -106 c 1,37,-1
 210 -65 l 1,38,39
 242 -57 242 -57 277 -57 c 128,-1,22
 312 -57 312 -57 337.5 -80.5 c 128,-1,23
EndSplineSet
Substitution2: "'smcp' Lowercase to Small Capitals in Latin lookup 3 subtable" ccedilla.sc
EndChar

StartChar: egrave
Encoding: 232 232 158
Width: 500
GlyphClass: 2
Flags: W
LayerCount: 2
Fore
SplineSet
114.5 416.5 m 128,-1,1
 162 481 162 481 253 481 c 128,-1,2
 344 481 344 481 388.5 421 c 128,-1,3
 433 361 433 361 433 261 c 1,4,-1
 430 211 l 1,5,-1
 124 211 l 1,6,7
 129 136 129 136 164 89.5 c 128,-1,8
 199 43 199 43 260.5 43 c 128,-1,9
 322 43 322 43 405 72 c 1,10,-1
 420 22 l 1,11,12
 339 -9 339 -9 268 -9 c 0,13,14
 170 -9 170 -9 118.5 56.5 c 128,-1,15
 67 122 67 122 67 237 c 128,-1,0
 67 352 67 352 114.5 416.5 c 128,-1,1
257 430 m 0,16,17
 131 430 131 430 124 261 c 1,18,-1
 376 261 l 1,19,20
 376 430 376 430 257 430 c 0,16,17
171 717 m 1,21,-1
 352 617 l 1,22,-1
 331 578 l 1,23,-1
 148 668 l 1,24,-1
 171 717 l 1,21,-1
EndSplineSet
Substitution2: "'smcp' Lowercase to Small Capitals in Latin lookup 3 subtable" egrave.sc
EndChar

StartChar: eacute
Encoding: 233 233 159
Width: 500
GlyphClass: 2
Flags: W
LayerCount: 2
Fore
SplineSet
114.5 416.5 m 128,-1,1
 162 481 162 481 253 481 c 128,-1,2
 344 481 344 481 388.5 421 c 128,-1,3
 433 361 433 361 433 261 c 1,4,-1
 430 211 l 1,5,-1
 124 211 l 1,6,7
 129 136 129 136 164 89.5 c 128,-1,8
 199 43 199 43 260.5 43 c 128,-1,9
 322 43 322 43 405 72 c 1,10,-1
 420 22 l 1,11,12
 339 -9 339 -9 268 -9 c 0,13,14
 170 -9 170 -9 118.5 56.5 c 128,-1,15
 67 122 67 122 67 237 c 128,-1,0
 67 352 67 352 114.5 416.5 c 128,-1,1
257 430 m 0,16,17
 131 430 131 430 124 261 c 1,18,-1
 376 261 l 1,19,20
 376 430 376 430 257 430 c 0,16,17
143 617 m 1,21,-1
 324 717 l 1,22,-1
 347 668 l 1,23,-1
 164 578 l 1,24,-1
 143 617 l 1,21,-1
EndSplineSet
Substitution2: "'smcp' Lowercase to Small Capitals in Latin lookup 3 subtable" eacute.sc
EndChar

StartChar: ecircumflex
Encoding: 234 234 160
Width: 500
GlyphClass: 2
Flags: W
LayerCount: 2
Fore
SplineSet
114.5 416.5 m 128,-1,1
 162 481 162 481 253 481 c 128,-1,2
 344 481 344 481 388.5 421 c 128,-1,3
 433 361 433 361 433 261 c 1,4,-1
 430 211 l 1,5,-1
 124 211 l 1,6,7
 129 136 129 136 164 89.5 c 128,-1,8
 199 43 199 43 260.5 43 c 128,-1,9
 322 43 322 43 405 72 c 1,10,-1
 420 22 l 1,11,12
 339 -9 339 -9 268 -9 c 0,13,14
 170 -9 170 -9 118.5 56.5 c 128,-1,15
 67 122 67 122 67 237 c 128,-1,0
 67 352 67 352 114.5 416.5 c 128,-1,1
257 430 m 0,16,17
 131 430 131 430 124 261 c 1,18,-1
 376 261 l 1,19,20
 376 430 376 430 257 430 c 0,16,17
273 750 m 1,21,-1
 401 588 l 1,22,-1
 343 588 l 1,23,-1
 250 710 l 1,24,-1
 157 588 l 1,25,-1
 99 588 l 1,26,-1
 227 750 l 1,27,-1
 273 750 l 1,21,-1
EndSplineSet
Substitution2: "'smcp' Lowercase to Small Capitals in Latin lookup 3 subtable" ecircumflex.sc
EndChar

StartChar: edieresis
Encoding: 235 235 161
Width: 500
GlyphClass: 2
Flags: W
LayerCount: 2
Fore
SplineSet
114.5 416.5 m 128,-1,1
 162 481 162 481 253 481 c 128,-1,2
 344 481 344 481 388.5 421 c 128,-1,3
 433 361 433 361 433 261 c 1,4,-1
 430 211 l 1,5,-1
 124 211 l 1,6,7
 129 136 129 136 164 89.5 c 128,-1,8
 199 43 199 43 260.5 43 c 128,-1,9
 322 43 322 43 405 72 c 1,10,-1
 420 22 l 1,11,12
 339 -9 339 -9 268 -9 c 0,13,14
 170 -9 170 -9 118.5 56.5 c 128,-1,15
 67 122 67 122 67 237 c 128,-1,0
 67 352 67 352 114.5 416.5 c 128,-1,1
257 430 m 0,16,17
 131 430 131 430 124 261 c 1,18,-1
 376 261 l 1,19,20
 376 430 376 430 257 430 c 0,16,17
117 647 m 128,-1,22
 117 662 117 662 127 673 c 128,-1,23
 137 684 137 684 153 684 c 128,-1,24
 169 684 169 684 179 673 c 128,-1,25
 189 662 189 662 189 647 c 128,-1,26
 189 632 189 632 179 621 c 128,-1,27
 169 610 169 610 153 610 c 128,-1,28
 137 610 137 610 127 621 c 128,-1,21
 117 632 117 632 117 647 c 128,-1,22
310 647 m 128,-1,30
 310 662 310 662 320.5 673 c 128,-1,31
 331 684 331 684 346.5 684 c 128,-1,32
 362 684 362 684 372.5 673 c 128,-1,33
 383 662 383 662 383 647 c 128,-1,34
 383 632 383 632 372.5 621 c 128,-1,35
 362 610 362 610 346.5 610 c 128,-1,36
 331 610 331 610 320.5 621 c 128,-1,29
 310 632 310 632 310 647 c 128,-1,30
EndSplineSet
Substitution2: "'smcp' Lowercase to Small Capitals in Latin lookup 3 subtable" edieresis.sc
EndChar

StartChar: igrave
Encoding: 236 236 162
Width: 500
GlyphClass: 2
Flags: W
LayerCount: 2
Fore
SplineSet
154 617 m 1,0,-1
 335 717 l 1,1,-1
 358 668 l 1,2,-1
 175 578 l 1,3,-1
 154 617 l 1,0,-1
123 425 m 1,4,-1
 123 475 l 1,5,-1
 292 475 l 1,6,-1
 292 50 l 1,7,-1
 408 50 l 1,8,-1
 408 0 l 1,9,-1
 115 0 l 1,10,-1
 115 50 l 1,11,-1
 239 50 l 1,12,-1
 239 425 l 1,13,-1
 123 425 l 1,4,-1
EndSplineSet
Substitution2: "'smcp' Lowercase to Small Capitals in Latin lookup 3 subtable" igrave.sc
EndChar

StartChar: iacute
Encoding: 237 237 163
Width: 500
GlyphClass: 2
Flags: W
LayerCount: 2
Fore
SplineSet
123 425 m 1,0,-1
 123 475 l 1,1,-1
 292 475 l 1,2,-1
 292 50 l 1,3,-1
 408 50 l 1,4,-1
 408 0 l 1,5,-1
 115 0 l 1,6,-1
 115 50 l 1,7,-1
 239 50 l 1,8,-1
 239 425 l 1,9,-1
 123 425 l 1,0,-1
148 617 m 1,10,-1
 329 717 l 1,11,-1
 352 668 l 1,12,-1
 169 578 l 1,13,-1
 148 617 l 1,10,-1
EndSplineSet
Substitution2: "'smcp' Lowercase to Small Capitals in Latin lookup 3 subtable" iacute.sc
EndChar

StartChar: icircumflex
Encoding: 238 238 164
Width: 500
GlyphClass: 2
Flags: W
LayerCount: 2
Fore
SplineSet
123 425 m 1,0,-1
 123 475 l 1,1,-1
 292 475 l 1,2,-1
 292 50 l 1,3,-1
 408 50 l 1,4,-1
 408 0 l 1,5,-1
 115 0 l 1,6,-1
 115 50 l 1,7,-1
 239 50 l 1,8,-1
 239 425 l 1,9,-1
 123 425 l 1,0,-1
273 750 m 1,10,-1
 401 588 l 1,11,-1
 343 588 l 1,12,-1
 250 710 l 1,13,-1
 157 588 l 1,14,-1
 99 588 l 1,15,-1
 227 750 l 1,16,-1
 273 750 l 1,10,-1
EndSplineSet
Substitution2: "'smcp' Lowercase to Small Capitals in Latin lookup 3 subtable" icircumflex.sc
EndChar

StartChar: idieresis
Encoding: 239 239 165
Width: 500
GlyphClass: 2
Flags: W
LayerCount: 2
Fore
SplineSet
127 647 m 128,-1,1
 127 662 127 662 137 673 c 128,-1,2
 147 684 147 684 163 684 c 128,-1,3
 179 684 179 684 189 673 c 128,-1,4
 199 662 199 662 199 647 c 128,-1,5
 199 632 199 632 189 621 c 128,-1,6
 179 610 179 610 163 610 c 128,-1,7
 147 610 147 610 137 621 c 128,-1,0
 127 632 127 632 127 647 c 128,-1,1
310 647 m 128,-1,9
 310 662 310 662 320 673 c 256,10,11
 330 684 330 684 346 684 c 128,-1,12
 362 684 362 684 372.5 673 c 128,-1,13
 383 662 383 662 383 647 c 128,-1,14
 383 632 383 632 372.5 621 c 128,-1,15
 362 610 362 610 346 610 c 128,-1,16
 330 610 330 610 320 621 c 128,-1,8
 310 632 310 632 310 647 c 128,-1,9
123 425 m 1,17,-1
 123 475 l 1,18,-1
 292 475 l 1,19,-1
 292 50 l 1,20,-1
 408 50 l 1,21,-1
 408 0 l 1,22,-1
 115 0 l 1,23,-1
 115 50 l 1,24,-1
 239 50 l 1,25,-1
 239 425 l 1,26,-1
 123 425 l 1,17,-1
EndSplineSet
Substitution2: "'smcp' Lowercase to Small Capitals in Latin lookup 3 subtable" idieresis.sc
EndChar

StartChar: eth
Encoding: 240 240 166
Width: 500
GlyphClass: 2
Flags: W
LayerCount: 2
Fore
SplineSet
267 589 m 1,0,-1
 167 519 l 1,1,-1
 142 555 l 1,2,-1
 230 617 l 1,3,4
 202 637 202 637 140 671 c 1,5,-1
 163 715 l 1,6,7
 221 687 221 687 274 647 c 1,8,-1
 366 712 l 1,9,-1
 391 676 l 1,10,-1
 309 618 l 1,11,12
 380 554 380 554 410.5 469.5 c 128,-1,13
 441 385 441 385 441 270 c 1,14,15
 445 126 445 126 398 58.5 c 128,-1,16
 351 -9 351 -9 250 -9 c 0,17,18
 59 -9 59 -9 59 236 c 128,-1,19
 59 481 59 481 250 481 c 0,20,21
 317 481 317 481 365 448 c 1,22,23
 339 527 339 527 267 589 c 1,0,-1
116 236 m 128,-1,25
 116 43 116 43 250 43 c 0,26,27
 320 43 320 43 351.5 90.5 c 128,-1,28
 383 138 383 138 385 238 c 128,-1,29
 387 338 387 338 356.5 383.5 c 128,-1,30
 326 429 326 429 250 429 c 0,31,24
 116 429 116 429 116 236 c 128,-1,25
EndSplineSet
Substitution2: "'smcp' Lowercase to Small Capitals in Latin lookup 3 subtable" eth.sc
Substitution2: "'calt' Contextual Alternates in Latin lookup 0 subtable" eth.calt
EndChar

StartChar: ntilde
Encoding: 241 241 167
Width: 500
GlyphClass: 2
Flags: W
LayerCount: 2
Fore
SplineSet
129 475 m 1,0,-1
 131 435 l 1,1,2
 228 481 228 481 292 481 c 128,-1,3
 356 481 356 481 392.5 437 c 128,-1,4
 429 393 429 393 429 317 c 2,5,-1
 429 0 l 1,6,-1
 376 0 l 1,7,-1
 376 317 l 2,8,9
 376 366 376 366 352 398 c 0,10,11
 328 429 328 429 280 429 c 128,-1,12
 232 429 232 429 131 385 c 1,13,-1
 131 0 l 1,14,-1
 78 0 l 1,15,-1
 78 475 l 1,16,-1
 129 475 l 1,0,-1
380 694 m 1,17,-1
 405 661 l 1,18,19
 354 606 354 606 320 606 c 128,-1,20
 286 606 286 606 249 633 c 128,-1,21
 212 660 212 660 190 660 c 128,-1,22
 168 660 168 660 124 619 c 1,23,-1
 96 653 l 1,24,25
 152 707 152 707 188 707 c 128,-1,26
 224 707 224 707 262 680.5 c 128,-1,27
 300 654 300 654 319 654 c 128,-1,28
 338 654 338 654 380 694 c 1,17,-1
EndSplineSet
Substitution2: "'smcp' Lowercase to Small Capitals in Latin lookup 3 subtable" ntilde.sc
EndChar

StartChar: ograve
Encoding: 242 242 168
Width: 500
GlyphClass: 2
Flags: W
LayerCount: 2
Fore
SplineSet
250 481 m 128,-1,1
 441 481 441 481 441 236 c 128,-1,2
 441 -9 441 -9 250 -9 c 128,-1,3
 59 -9 59 -9 59 236 c 128,-1,0
 59 481 59 481 250 481 c 128,-1,1
116 236 m 128,-1,5
 116 43 116 43 250 43 c 128,-1,6
 384 43 384 43 384 236 c 128,-1,7
 384 429 384 429 250 429 c 128,-1,4
 116 429 116 429 116 236 c 128,-1,5
171 717 m 1,8,-1
 352 617 l 1,9,-1
 331 578 l 1,10,-1
 148 668 l 1,11,-1
 171 717 l 1,8,-1
EndSplineSet
Substitution2: "'smcp' Lowercase to Small Capitals in Latin lookup 3 subtable" ograve.sc
EndChar

StartChar: oacute
Encoding: 243 243 169
Width: 500
GlyphClass: 2
Flags: W
LayerCount: 2
Fore
SplineSet
250 481 m 128,-1,1
 441 481 441 481 441 236 c 128,-1,2
 441 -9 441 -9 250 -9 c 128,-1,3
 59 -9 59 -9 59 236 c 128,-1,0
 59 481 59 481 250 481 c 128,-1,1
116 236 m 128,-1,5
 116 43 116 43 250 43 c 128,-1,6
 384 43 384 43 384 236 c 128,-1,7
 384 429 384 429 250 429 c 128,-1,4
 116 429 116 429 116 236 c 128,-1,5
151 617 m 1,8,-1
 332 717 l 1,9,-1
 355 668 l 1,10,-1
 172 578 l 1,11,-1
 151 617 l 1,8,-1
EndSplineSet
Substitution2: "'smcp' Lowercase to Small Capitals in Latin lookup 3 subtable" oacute.sc
EndChar

StartChar: ocircumflex
Encoding: 244 244 170
Width: 500
GlyphClass: 2
Flags: W
LayerCount: 2
Fore
SplineSet
250 481 m 128,-1,1
 441 481 441 481 441 236 c 128,-1,2
 441 -9 441 -9 250 -9 c 128,-1,3
 59 -9 59 -9 59 236 c 128,-1,0
 59 481 59 481 250 481 c 128,-1,1
116 236 m 128,-1,5
 116 43 116 43 250 43 c 128,-1,6
 384 43 384 43 384 236 c 128,-1,7
 384 429 384 429 250 429 c 128,-1,4
 116 429 116 429 116 236 c 128,-1,5
273 750 m 1,8,-1
 401 588 l 1,9,-1
 343 588 l 1,10,-1
 250 710 l 1,11,-1
 157 588 l 1,12,-1
 99 588 l 1,13,-1
 227 750 l 1,14,-1
 273 750 l 1,8,-1
EndSplineSet
Substitution2: "'smcp' Lowercase to Small Capitals in Latin lookup 3 subtable" ocircumflex.sc
EndChar

StartChar: otilde
Encoding: 245 245 171
Width: 500
GlyphClass: 2
Flags: W
LayerCount: 2
Fore
SplineSet
250 481 m 128,-1,1
 441 481 441 481 441 236 c 128,-1,2
 441 -9 441 -9 250 -9 c 128,-1,3
 59 -9 59 -9 59 236 c 128,-1,0
 59 481 59 481 250 481 c 128,-1,1
116 236 m 128,-1,5
 116 43 116 43 250 43 c 128,-1,6
 384 43 384 43 384 236 c 128,-1,7
 384 429 384 429 250 429 c 128,-1,4
 116 429 116 429 116 236 c 128,-1,5
381 694 m 1,8,-1
 406 661 l 1,9,10
 356 606 356 606 322 606 c 128,-1,11
 288 606 288 606 250 633 c 256,12,13
 212 660 212 660 190 660 c 128,-1,14
 168 660 168 660 125 619 c 1,15,-1
 97 653 l 1,16,17
 154 707 154 707 190 707 c 128,-1,18
 226 707 226 707 264 680.5 c 128,-1,19
 302 654 302 654 320 654 c 128,-1,20
 338 654 338 654 381 694 c 1,8,-1
EndSplineSet
Substitution2: "'smcp' Lowercase to Small Capitals in Latin lookup 3 subtable" otilde.sc
EndChar

StartChar: odieresis
Encoding: 246 246 172
Width: 500
GlyphClass: 2
Flags: W
LayerCount: 2
Fore
SplineSet
250 481 m 128,-1,1
 441 481 441 481 441 236 c 128,-1,2
 441 -9 441 -9 250 -9 c 128,-1,3
 59 -9 59 -9 59 236 c 128,-1,0
 59 481 59 481 250 481 c 128,-1,1
116 236 m 128,-1,5
 116 43 116 43 250 43 c 128,-1,6
 384 43 384 43 384 236 c 128,-1,7
 384 429 384 429 250 429 c 128,-1,4
 116 429 116 429 116 236 c 128,-1,5
117 647 m 128,-1,9
 117 662 117 662 127 673 c 128,-1,10
 137 684 137 684 153 684 c 128,-1,11
 169 684 169 684 179 673 c 128,-1,12
 189 662 189 662 189 647 c 128,-1,13
 189 632 189 632 179 621 c 128,-1,14
 169 610 169 610 153 610 c 128,-1,15
 137 610 137 610 127 621 c 128,-1,8
 117 632 117 632 117 647 c 128,-1,9
310 647 m 128,-1,17
 310 662 310 662 320 673 c 256,18,19
 330 684 330 684 346 684 c 128,-1,20
 362 684 362 684 372.5 673 c 128,-1,21
 383 662 383 662 383 647 c 128,-1,22
 383 632 383 632 372.5 621 c 128,-1,23
 362 610 362 610 346 610 c 128,-1,24
 330 610 330 610 320 621 c 128,-1,16
 310 632 310 632 310 647 c 128,-1,17
EndSplineSet
Substitution2: "'smcp' Lowercase to Small Capitals in Latin lookup 3 subtable" odieresis.sc
EndChar

StartChar: divide
Encoding: 247 247 173
Width: 500
GlyphClass: 2
Flags: W
LayerCount: 2
Fore
SplineSet
247 92 m 128,-1,1
 206 92 206 92 206 137 c 128,-1,2
 206 182 206 182 247 182 c 128,-1,3
 288 182 288 182 288 137 c 128,-1,0
 288 92 288 92 247 92 c 128,-1,1
247 380 m 128,-1,5
 206 380 206 380 206 425 c 128,-1,6
 206 470 206 470 247 470 c 128,-1,7
 288 470 288 470 288 425 c 128,-1,4
 288 380 288 380 247 380 c 128,-1,5
35 261 m 1,8,-1
 35 307 l 1,9,-1
 465 307 l 1,10,-1
 465 261 l 1,11,-1
 35 261 l 1,8,-1
EndSplineSet
Substitution2: "'calt' Contextual Alternates in Latin lookup 0 subtable" divide.calt
EndChar

StartChar: oslash
Encoding: 248 248 174
Width: 500
GlyphClass: 2
Flags: W
LayerCount: 2
Fore
SplineSet
250 481 m 0,0,1
 308 481 308 481 348 458 c 1,2,-1
 381 515 l 1,3,-1
 424 489 l 1,4,-1
 388 425 l 1,5,6
 441 365 441 365 441 236 c 0,7,8
 441 -9 441 -9 250 -9 c 0,9,10
 194 -9 194 -9 153 13 c 1,11,-1
 121 -43 l 1,12,-1
 79 -17 l 1,13,-1
 114 44 l 1,14,15
 59 105 59 105 59 236 c 0,16,17
 59 481 59 481 250 481 c 0,0,1
116 236 m 0,18,19
 116 144 116 144 144 98 c 1,20,-1
 321 410 l 1,21,22
 291 429 291 429 250 429 c 0,23,24
 116 429 116 429 116 236 c 0,18,19
384 236 m 0,25,26
 384 325 384 325 357 372 c 1,27,-1
 180 61 l 1,28,29
 207 43 207 43 250 43 c 0,30,31
 384 43 384 43 384 236 c 0,25,26
EndSplineSet
Substitution2: "'smcp' Lowercase to Small Capitals in Latin lookup 3 subtable" oslash.sc
EndChar

StartChar: ugrave
Encoding: 249 249 175
Width: 500
GlyphClass: 2
Flags: W
LayerCount: 2
Fore
SplineSet
374 0 m 1,0,-1
 372 41 l 1,1,2
 276 -9 276 -9 212 -9 c 128,-1,3
 148 -9 148 -9 111 35 c 128,-1,4
 74 79 74 79 74 155 c 2,5,-1
 74 475 l 1,6,-1
 127 475 l 1,7,-1
 127 155 l 2,8,9
 127 106 127 106 150.5 74.5 c 128,-1,10
 174 43 174 43 222 43 c 128,-1,11
 270 43 270 43 372 93 c 1,12,-1
 372 475 l 1,13,-1
 425 475 l 1,14,-1
 425 0 l 1,15,-1
 374 0 l 1,0,-1
171 717 m 1,16,-1
 352 617 l 1,17,-1
 331 578 l 1,18,-1
 148 668 l 1,19,-1
 171 717 l 1,16,-1
EndSplineSet
Substitution2: "'smcp' Lowercase to Small Capitals in Latin lookup 3 subtable" ugrave.sc
EndChar

StartChar: uacute
Encoding: 250 250 176
Width: 500
GlyphClass: 2
Flags: W
LayerCount: 2
Fore
SplineSet
374 0 m 1,0,-1
 372 41 l 1,1,2
 276 -9 276 -9 212 -9 c 128,-1,3
 148 -9 148 -9 111 35 c 128,-1,4
 74 79 74 79 74 155 c 2,5,-1
 74 475 l 1,6,-1
 127 475 l 1,7,-1
 127 155 l 2,8,9
 127 106 127 106 150.5 74.5 c 128,-1,10
 174 43 174 43 222 43 c 128,-1,11
 270 43 270 43 372 93 c 1,12,-1
 372 475 l 1,13,-1
 425 475 l 1,14,-1
 425 0 l 1,15,-1
 374 0 l 1,0,-1
157 617 m 1,16,-1
 338 717 l 1,17,-1
 361 668 l 1,18,-1
 178 578 l 1,19,-1
 157 617 l 1,16,-1
EndSplineSet
Substitution2: "'smcp' Lowercase to Small Capitals in Latin lookup 3 subtable" uacute.sc
EndChar

StartChar: ucircumflex
Encoding: 251 251 177
Width: 500
GlyphClass: 2
Flags: W
LayerCount: 2
Fore
SplineSet
374 0 m 1,0,-1
 372 41 l 1,1,2
 276 -9 276 -9 212 -9 c 128,-1,3
 148 -9 148 -9 111 35 c 128,-1,4
 74 79 74 79 74 155 c 2,5,-1
 74 475 l 1,6,-1
 127 475 l 1,7,-1
 127 155 l 2,8,9
 127 106 127 106 150.5 74.5 c 128,-1,10
 174 43 174 43 222 43 c 128,-1,11
 270 43 270 43 372 93 c 1,12,-1
 372 475 l 1,13,-1
 425 475 l 1,14,-1
 425 0 l 1,15,-1
 374 0 l 1,0,-1
273 750 m 1,16,-1
 401 588 l 1,17,-1
 343 588 l 1,18,-1
 250 710 l 1,19,-1
 157 588 l 1,20,-1
 99 588 l 1,21,-1
 227 750 l 1,22,-1
 273 750 l 1,16,-1
EndSplineSet
Substitution2: "'smcp' Lowercase to Small Capitals in Latin lookup 3 subtable" ucircumflex.sc
EndChar

StartChar: udieresis
Encoding: 252 252 178
Width: 500
GlyphClass: 2
Flags: W
LayerCount: 2
Fore
SplineSet
374 0 m 1,0,-1
 372 41 l 1,1,2
 276 -9 276 -9 212 -9 c 128,-1,3
 148 -9 148 -9 111 35 c 128,-1,4
 74 79 74 79 74 155 c 2,5,-1
 74 475 l 1,6,-1
 127 475 l 1,7,-1
 127 155 l 2,8,9
 127 106 127 106 150.5 74.5 c 128,-1,10
 174 43 174 43 222 43 c 128,-1,11
 270 43 270 43 372 93 c 1,12,-1
 372 475 l 1,13,-1
 425 475 l 1,14,-1
 425 0 l 1,15,-1
 374 0 l 1,0,-1
117 647 m 128,-1,17
 117 662 117 662 127 673 c 128,-1,18
 137 684 137 684 153 684 c 128,-1,19
 169 684 169 684 179 673 c 128,-1,20
 189 662 189 662 189 647 c 128,-1,21
 189 632 189 632 179 621 c 128,-1,22
 169 610 169 610 153 610 c 128,-1,23
 137 610 137 610 127 621 c 128,-1,16
 117 632 117 632 117 647 c 128,-1,17
310 647 m 128,-1,25
 310 662 310 662 320 673 c 256,26,27
 330 684 330 684 346 684 c 128,-1,28
 362 684 362 684 372.5 673 c 128,-1,29
 383 662 383 662 383 647 c 128,-1,30
 383 632 383 632 372.5 621 c 128,-1,31
 362 610 362 610 346 610 c 128,-1,32
 330 610 330 610 320 621 c 128,-1,24
 310 632 310 632 310 647 c 128,-1,25
EndSplineSet
Substitution2: "'smcp' Lowercase to Small Capitals in Latin lookup 3 subtable" udieresis.sc
EndChar

StartChar: yacute
Encoding: 253 253 179
Width: 500
GlyphClass: 2
Flags: W
LayerCount: 2
Fore
SplineSet
53 475 m 1,0,-1
 113 475 l 1,1,-1
 254 71 l 1,2,-1
 262 71 l 1,3,-1
 388 475 l 1,4,-1
 448 475 l 1,5,-1
 264 -81 l 2,6,7
 238 -160 238 -160 209.5 -182 c 128,-1,8
 181 -204 181 -204 94 -206 c 1,9,-1
 94 -155 l 1,10,11
 150 -154 150 -154 169 -139 c 128,-1,12
 188 -124 188 -124 204 -76 c 2,13,-1
 227 -7 l 1,14,-1
 53 475 l 1,0,-1
148 617 m 1,15,-1
 329 717 l 1,16,-1
 352 668 l 1,17,-1
 169 578 l 1,18,-1
 148 617 l 1,15,-1
EndSplineSet
Substitution2: "'smcp' Lowercase to Small Capitals in Latin lookup 3 subtable" yacute.sc
EndChar

StartChar: thorn
Encoding: 254 254 180
Width: 500
GlyphClass: 2
Flags: W
LayerCount: 2
Fore
SplineSet
77 -192 m 1,0,-1
 77 655 l 1,1,-1
 127 655 l 1,2,-1
 127 428 l 1,3,4
 200 481 200 481 266 481 c 0,5,6
 355 481 355 481 403.5 416 c 128,-1,7
 452 351 452 351 452 236.5 c 128,-1,8
 452 122 452 122 398.5 56.5 c 128,-1,9
 345 -9 345 -9 249 -9 c 0,10,11
 193 -9 193 -9 130 18 c 1,12,-1
 130 -192 l 1,13,-1
 77 -192 l 1,0,-1
363 377 m 128,-1,15
 328 430 328 430 265 430 c 128,-1,16
 202 430 202 430 130 372 c 1,17,-1
 130 72 l 1,18,19
 151 62 151 62 187.5 52 c 128,-1,20
 224 42 224 42 247 42 c 0,21,22
 318 42 318 42 358 95 c 128,-1,23
 398 148 398 148 398 236 c 128,-1,14
 398 324 398 324 363 377 c 128,-1,15
EndSplineSet
Substitution2: "'smcp' Lowercase to Small Capitals in Latin lookup 3 subtable" thorn.sc
EndChar

StartChar: ydieresis
Encoding: 255 255 181
Width: 500
GlyphClass: 2
Flags: W
LayerCount: 2
Fore
SplineSet
53 475 m 1,0,-1
 113 475 l 1,1,-1
 254 71 l 1,2,-1
 262 71 l 1,3,-1
 388 475 l 1,4,-1
 448 475 l 1,5,-1
 264 -81 l 2,6,7
 238 -160 238 -160 209.5 -182 c 128,-1,8
 181 -204 181 -204 94 -206 c 1,9,-1
 94 -155 l 1,10,11
 150 -154 150 -154 169 -139 c 128,-1,12
 188 -124 188 -124 204 -76 c 2,13,-1
 227 -7 l 1,14,-1
 53 475 l 1,0,-1
117 647 m 128,-1,16
 117 662 117 662 127 673 c 128,-1,17
 137 684 137 684 153 684 c 128,-1,18
 169 684 169 684 179 673 c 128,-1,19
 189 662 189 662 189 647 c 128,-1,20
 189 632 189 632 179 621 c 128,-1,21
 169 610 169 610 153 610 c 128,-1,22
 137 610 137 610 127 621 c 128,-1,15
 117 632 117 632 117 647 c 128,-1,16
310 647 m 128,-1,24
 310 662 310 662 320 673 c 256,25,26
 330 684 330 684 346 684 c 128,-1,27
 362 684 362 684 372.5 673 c 128,-1,28
 383 662 383 662 383 647 c 128,-1,29
 383 632 383 632 372.5 621 c 128,-1,30
 362 610 362 610 346 610 c 128,-1,31
 330 610 330 610 320 621 c 128,-1,23
 310 632 310 632 310 647 c 128,-1,24
EndSplineSet
Substitution2: "'smcp' Lowercase to Small Capitals in Latin lookup 3 subtable" ydieresis.sc
EndChar

StartChar: Amacron
Encoding: 256 256 182
Width: 500
GlyphClass: 2
Flags: W
LayerCount: 2
Fore
SplineSet
104 834 m 1,0,-1
 397 834 l 1,1,-1
 397 789 l 1,2,-1
 104 789 l 1,3,-1
 104 834 l 1,0,-1
17 0 m 1,4,-1
 205 655 l 1,5,-1
 301 655 l 1,6,-1
 482 0 l 1,7,-1
 423 0 l 1,8,-1
 382 151 l 1,9,-1
 117 151 l 1,10,-1
 75 0 l 1,11,-1
 17 0 l 1,4,-1
369 201 m 1,12,-1
 261 605 l 1,13,-1
 244 605 l 1,14,-1
 131 201 l 1,15,-1
 369 201 l 1,12,-1
EndSplineSet
EndChar

StartChar: amacron
Encoding: 257 257 183
Width: 500
GlyphClass: 2
Flags: W
LayerCount: 2
Fore
SplineSet
218 43 m 0,0,1
 255 43 255 43 298.5 66.5 c 128,-1,2
 342 90 342 90 362 110 c 1,3,-1
 362 229 l 1,4,5
 296 234 296 234 236 234 c 128,-1,6
 176 234 176 234 146 208.5 c 128,-1,7
 116 183 116 183 116 140 c 0,8,9
 116 43 116 43 218 43 c 0,0,1
217 -9 m 0,10,11
 144 -9 144 -9 102 28.5 c 128,-1,12
 60 66 60 66 60 135 c 128,-1,13
 60 204 60 204 106 242 c 0,14,15
 152 281 152 281 228 281 c 128,-1,16
 304 281 304 281 362 275 c 1,17,18
 362 364 362 364 340 396.5 c 128,-1,19
 318 429 318 429 251 429 c 128,-1,20
 184 429 184 429 93 397 c 1,21,-1
 78 447 l 1,22,23
 171 481 171 481 246 481 c 0,24,25
 345 481 345 481 380 437 c 128,-1,26
 415 393 415 393 415 283 c 2,27,-1
 415 73 l 1,28,-1
 423 -3 l 1,29,-1
 372 -8 l 1,30,-1
 362 52 l 1,31,32
 339 32 339 32 297 11.5 c 128,-1,33
 255 -9 255 -9 217 -9 c 0,10,11
104 669 m 1,34,-1
 397 669 l 1,35,-1
 397 624 l 1,36,-1
 104 624 l 1,37,-1
 104 669 l 1,34,-1
EndSplineSet
Substitution2: "'smcp' Lowercase to Small Capitals in Latin lookup 3 subtable" amacron.sc
EndChar

StartChar: Abreve
Encoding: 258 258 184
Width: 500
GlyphClass: 2
Flags: W
LayerCount: 2
Fore
SplineSet
250 754 m 128,-1,1
 128 754 128 754 114 875 c 1,2,-1
 160 875 l 1,3,4
 166 834 166 834 186.5 815 c 128,-1,5
 207 796 207 796 250 796 c 128,-1,6
 293 796 293 796 313 814.5 c 128,-1,7
 333 833 333 833 339 875 c 1,8,-1
 386 875 l 1,9,0
 372 754 372 754 250 754 c 128,-1,1
17 0 m 1,10,-1
 205 655 l 1,11,-1
 301 655 l 1,12,-1
 482 0 l 1,13,-1
 423 0 l 1,14,-1
 382 151 l 1,15,-1
 117 151 l 1,16,-1
 75 0 l 1,17,-1
 17 0 l 1,10,-1
369 201 m 1,18,-1
 261 605 l 1,19,-1
 244 605 l 1,20,-1
 131 201 l 1,21,-1
 369 201 l 1,18,-1
EndSplineSet
EndChar

StartChar: abreve
Encoding: 259 259 185
Width: 500
GlyphClass: 2
Flags: W
LayerCount: 2
Fore
SplineSet
218 43 m 0,0,1
 255 43 255 43 298.5 66.5 c 128,-1,2
 342 90 342 90 362 110 c 1,3,-1
 362 229 l 1,4,5
 296 234 296 234 236 234 c 128,-1,6
 176 234 176 234 146 208.5 c 128,-1,7
 116 183 116 183 116 140 c 0,8,9
 116 43 116 43 218 43 c 0,0,1
217 -9 m 0,10,11
 144 -9 144 -9 102 28.5 c 128,-1,12
 60 66 60 66 60 135 c 128,-1,13
 60 204 60 204 106 242 c 0,14,15
 152 281 152 281 228 281 c 128,-1,16
 304 281 304 281 362 275 c 1,17,18
 362 364 362 364 340 396.5 c 128,-1,19
 318 429 318 429 251 429 c 128,-1,20
 184 429 184 429 93 397 c 1,21,-1
 78 447 l 1,22,23
 171 481 171 481 246 481 c 0,24,25
 345 481 345 481 380 437 c 128,-1,26
 415 393 415 393 415 283 c 2,27,-1
 415 73 l 1,28,-1
 423 -3 l 1,29,-1
 372 -8 l 1,30,-1
 362 52 l 1,31,32
 339 32 339 32 297 11.5 c 128,-1,33
 255 -9 255 -9 217 -9 c 0,10,11
250 579 m 128,-1,35
 128 579 128 579 114 700 c 1,36,-1
 160 700 l 1,37,38
 166 659 166 659 186.5 640 c 128,-1,39
 207 621 207 621 250 621 c 128,-1,40
 293 621 293 621 313 639.5 c 128,-1,41
 333 658 333 658 339 700 c 1,42,-1
 386 700 l 1,43,34
 372 579 372 579 250 579 c 128,-1,35
EndSplineSet
Substitution2: "'smcp' Lowercase to Small Capitals in Latin lookup 3 subtable" abreve.sc
EndChar

StartChar: Aogonek
Encoding: 260 260 186
Width: 500
GlyphClass: 2
Flags: W
LayerCount: 2
Fore
SplineSet
472 -239 m 1,0,1
 430 -249 430 -249 390.5 -248.5 c 128,-1,2
 351 -248 351 -248 324.5 -219 c 128,-1,3
 298 -190 298 -190 298 -143 c 128,-1,4
 298 -96 298 -96 333 -57 c 128,-1,5
 368 -18 368 -18 451 33 c 1,6,-1
 481 0 l 1,7,8
 407 -48 407 -48 378.5 -80 c 128,-1,9
 350 -112 350 -112 350 -141 c 0,10,11
 350 -203 350 -203 408 -203 c 0,12,13
 439 -203 439 -203 466 -197 c 1,14,-1
 472 -239 l 1,0,1
17 0 m 1,15,-1
 205 655 l 1,16,-1
 301 655 l 1,17,-1
 482 0 l 1,18,-1
 423 0 l 1,19,-1
 382 151 l 1,20,-1
 117 151 l 1,21,-1
 75 0 l 1,22,-1
 17 0 l 1,15,-1
369 201 m 1,23,-1
 261 605 l 1,24,-1
 244 605 l 1,25,-1
 131 201 l 1,26,-1
 369 201 l 1,23,-1
EndSplineSet
EndChar

StartChar: aogonek
Encoding: 261 261 187
Width: 500
GlyphClass: 2
Flags: W
LayerCount: 2
Fore
SplineSet
414 -239 m 1,0,1
 364 -249 364 -249 328.5 -248.5 c 128,-1,2
 293 -248 293 -248 266.5 -219 c 128,-1,3
 240 -190 240 -190 240 -145.5 c 128,-1,4
 240 -101 240 -101 270.5 -66 c 128,-1,5
 301 -31 301 -31 372 14 c 1,6,-1
 366 52 l 1,7,8
 344 33 344 33 299.5 12 c 128,-1,9
 255 -9 255 -9 217 -9 c 0,10,11
 144 -9 144 -9 102 28.5 c 128,-1,12
 60 66 60 66 60 135 c 128,-1,13
 60 204 60 204 105.5 242.5 c 128,-1,14
 151 281 151 281 227.5 281 c 128,-1,15
 304 281 304 281 362 275 c 1,16,17
 362 364 362 364 340 396.5 c 128,-1,18
 318 429 318 429 251 429 c 128,-1,19
 184 429 184 429 93 397 c 1,20,-1
 78 447 l 1,21,22
 171 481 171 481 246 481 c 0,23,24
 345 481 345 481 380 437 c 128,-1,25
 415 393 415 393 415 283 c 2,26,-1
 415 73 l 1,27,-1
 423 -3 l 1,28,29
 348 -52 348 -52 320 -82 c 128,-1,30
 292 -112 292 -112 292 -141 c 0,31,32
 292 -203 292 -203 350 -203 c 0,33,34
 381 -203 381 -203 408 -197 c 1,35,-1
 414 -239 l 1,0,1
218 43 m 0,36,37
 255 43 255 43 298.5 66.5 c 128,-1,38
 342 90 342 90 362 110 c 1,39,-1
 362 229 l 1,40,41
 297 234 297 234 236.5 234 c 128,-1,42
 176 234 176 234 146 208.5 c 128,-1,43
 116 183 116 183 116 140 c 0,44,45
 116 43 116 43 218 43 c 0,36,37
EndSplineSet
Substitution2: "'smcp' Lowercase to Small Capitals in Latin lookup 3 subtable" aogonek.sc
EndChar

StartChar: Cacute
Encoding: 262 262 188
Width: 500
GlyphClass: 2
Flags: W
LayerCount: 2
Fore
SplineSet
164 794 m 1,0,-1
 368 882 l 1,1,-1
 387 836 l 1,2,-1
 181 752 l 1,3,-1
 164 794 l 1,0,-1
111 70 m 128,-1,5
 55 150 55 150 55 327 c 128,-1,6
 55 504 55 504 109 584.5 c 128,-1,7
 163 665 163 665 282 665 c 0,8,9
 360 665 360 665 439 640 c 1,10,-1
 439 508 l 1,11,-1
 384 508 l 1,12,-1
 384 597 l 1,13,14
 340 613 340 613 282 613 c 0,15,16
 192 613 192 613 153 546 c 128,-1,17
 114 479 114 479 114 329 c 128,-1,18
 114 179 114 179 156 111 c 128,-1,19
 198 43 198 43 282 43 c 0,20,21
 345 43 345 43 432 70 c 1,22,-1
 445 18 l 1,23,24
 363 -10 363 -10 281 -10 c 0,25,4
 167 -10 167 -10 111 70 c 128,-1,5
EndSplineSet
EndChar

StartChar: cacute
Encoding: 263 263 189
Width: 500
GlyphClass: 2
Flags: W
LayerCount: 2
Fore
SplineSet
359 320 m 1,0,-1
 359 419 l 1,1,2
 310 430 310 430 281 430 c 0,3,4
 209 430 209 430 173.5 379 c 128,-1,5
 138 328 138 328 138 238 c 128,-1,6
 138 148 138 148 174 95.5 c 128,-1,7
 210 43 210 43 281 43 c 0,8,9
 326 43 326 43 406 71 c 1,10,-1
 421 21 l 1,11,12
 342 -9 342 -9 282 -9 c 0,13,14
 184 -9 184 -9 132.5 56.5 c 128,-1,15
 81 122 81 122 81 239 c 128,-1,16
 81 356 81 356 132 418.5 c 128,-1,17
 183 481 183 481 282 481 c 0,18,19
 348 481 348 481 413 460 c 1,20,-1
 413 320 l 1,21,-1
 359 320 l 1,0,-1
148 617 m 1,22,-1
 329 717 l 1,23,-1
 352 668 l 1,24,-1
 169 578 l 1,25,-1
 148 617 l 1,22,-1
EndSplineSet
Substitution2: "'smcp' Lowercase to Small Capitals in Latin lookup 3 subtable" cacute.sc
EndChar

StartChar: Ccircumflex
Encoding: 264 264 190
Width: 500
GlyphClass: 2
Flags: W
LayerCount: 2
Fore
SplineSet
122 752 m 1,0,-1
 248 882 l 1,1,-1
 288 882 l 1,2,-1
 414 752 l 1,3,-1
 356 752 l 1,4,-1
 268 842 l 1,5,-1
 180 752 l 1,6,-1
 122 752 l 1,0,-1
111 70 m 128,-1,8
 55 150 55 150 55 327 c 128,-1,9
 55 504 55 504 109 584.5 c 128,-1,10
 163 665 163 665 282 665 c 0,11,12
 360 665 360 665 439 640 c 1,13,-1
 439 508 l 1,14,-1
 384 508 l 1,15,-1
 384 597 l 1,16,17
 340 613 340 613 282 613 c 0,18,19
 192 613 192 613 153 546 c 128,-1,20
 114 479 114 479 114 329 c 128,-1,21
 114 179 114 179 156 111 c 128,-1,22
 198 43 198 43 282 43 c 0,23,24
 345 43 345 43 432 70 c 1,25,-1
 445 18 l 1,26,27
 363 -10 363 -10 281 -10 c 0,28,7
 167 -10 167 -10 111 70 c 128,-1,8
EndSplineSet
EndChar

StartChar: ccircumflex
Encoding: 265 265 191
Width: 500
GlyphClass: 2
Flags: W
LayerCount: 2
Fore
SplineSet
359 320 m 1,0,-1
 359 419 l 1,1,2
 310 430 310 430 281 430 c 0,3,4
 209 430 209 430 173.5 379 c 128,-1,5
 138 328 138 328 138 238 c 128,-1,6
 138 148 138 148 174 95.5 c 128,-1,7
 210 43 210 43 281 43 c 0,8,9
 326 43 326 43 406 71 c 1,10,-1
 421 21 l 1,11,12
 342 -9 342 -9 282 -9 c 0,13,14
 184 -9 184 -9 132.5 56.5 c 128,-1,15
 81 122 81 122 81 239 c 128,-1,16
 81 356 81 356 132 418.5 c 128,-1,17
 183 481 183 481 282 481 c 0,18,19
 348 481 348 481 413 460 c 1,20,-1
 413 320 l 1,21,-1
 359 320 l 1,0,-1
273 750 m 1,22,-1
 401 588 l 1,23,-1
 343 588 l 1,24,-1
 250 710 l 1,25,-1
 157 588 l 1,26,-1
 99 588 l 1,27,-1
 227 750 l 1,28,-1
 273 750 l 1,22,-1
EndSplineSet
Substitution2: "'smcp' Lowercase to Small Capitals in Latin lookup 3 subtable" ccircumflex.sc
EndChar

StartChar: Cdotaccent
Encoding: 266 266 192
Width: 500
GlyphClass: 2
Flags: W
LayerCount: 2
Fore
SplineSet
243 812 m 128,-1,1
 243 827 243 827 253.5 838 c 128,-1,2
 264 849 264 849 279.5 849 c 128,-1,3
 295 849 295 849 305.5 838 c 128,-1,4
 316 827 316 827 316 812 c 128,-1,5
 316 797 316 797 305.5 786 c 128,-1,6
 295 775 295 775 279.5 775 c 128,-1,7
 264 775 264 775 253.5 786 c 128,-1,0
 243 797 243 797 243 812 c 128,-1,1
111 70 m 128,-1,9
 55 150 55 150 55 327 c 128,-1,10
 55 504 55 504 109 584.5 c 128,-1,11
 163 665 163 665 282 665 c 0,12,13
 360 665 360 665 439 640 c 1,14,-1
 439 508 l 1,15,-1
 384 508 l 1,16,-1
 384 597 l 1,17,18
 340 613 340 613 282 613 c 0,19,20
 192 613 192 613 153 546 c 128,-1,21
 114 479 114 479 114 329 c 128,-1,22
 114 179 114 179 156 111 c 128,-1,23
 198 43 198 43 282 43 c 0,24,25
 345 43 345 43 432 70 c 1,26,-1
 445 18 l 1,27,28
 363 -10 363 -10 281 -10 c 0,29,8
 167 -10 167 -10 111 70 c 128,-1,9
EndSplineSet
EndChar

StartChar: cdotaccent
Encoding: 267 267 193
Width: 500
GlyphClass: 2
Flags: W
LayerCount: 2
Fore
SplineSet
359 320 m 1,0,-1
 359 419 l 1,1,2
 310 430 310 430 281 430 c 0,3,4
 209 430 209 430 173.5 379 c 128,-1,5
 138 328 138 328 138 238 c 128,-1,6
 138 148 138 148 174 95.5 c 128,-1,7
 210 43 210 43 281 43 c 0,8,9
 326 43 326 43 406 71 c 1,10,-1
 421 21 l 1,11,12
 342 -9 342 -9 282 -9 c 0,13,14
 184 -9 184 -9 132.5 56.5 c 128,-1,15
 81 122 81 122 81 239 c 128,-1,16
 81 356 81 356 132 418.5 c 128,-1,17
 183 481 183 481 282 481 c 0,18,19
 348 481 348 481 413 460 c 1,20,-1
 413 320 l 1,21,-1
 359 320 l 1,0,-1
223 647 m 128,-1,23
 223 662 223 662 233.5 673 c 128,-1,24
 244 684 244 684 260 684 c 128,-1,25
 276 684 276 684 286 673 c 128,-1,26
 296 662 296 662 296 647 c 128,-1,27
 296 632 296 632 286 621 c 256,28,29
 276 610 276 610 260 610 c 128,-1,30
 244 610 244 610 233.5 621 c 128,-1,22
 223 632 223 632 223 647 c 128,-1,23
EndSplineSet
Substitution2: "'smcp' Lowercase to Small Capitals in Latin lookup 3 subtable" cdotaccent.sc
EndChar

StartChar: Ccaron
Encoding: 268 268 194
Width: 500
GlyphClass: 2
Flags: W
LayerCount: 2
Fore
SplineSet
414 882 m 1,0,-1
 288 752 l 1,1,-1
 248 752 l 1,2,-1
 122 882 l 1,3,-1
 181 882 l 1,4,-1
 268 793 l 1,5,-1
 355 882 l 1,6,-1
 414 882 l 1,0,-1
111 70 m 128,-1,8
 55 150 55 150 55 327 c 128,-1,9
 55 504 55 504 109 584.5 c 128,-1,10
 163 665 163 665 282 665 c 0,11,12
 360 665 360 665 439 640 c 1,13,-1
 439 508 l 1,14,-1
 384 508 l 1,15,-1
 384 597 l 1,16,17
 340 613 340 613 282 613 c 0,18,19
 192 613 192 613 153 546 c 128,-1,20
 114 479 114 479 114 329 c 128,-1,21
 114 179 114 179 156 111 c 128,-1,22
 198 43 198 43 282 43 c 0,23,24
 345 43 345 43 432 70 c 1,25,-1
 445 18 l 1,26,27
 363 -10 363 -10 281 -10 c 0,28,7
 167 -10 167 -10 111 70 c 128,-1,8
EndSplineSet
EndChar

StartChar: ccaron
Encoding: 269 269 195
Width: 500
GlyphClass: 2
Flags: W
LayerCount: 2
Fore
SplineSet
359 320 m 1,0,-1
 359 419 l 1,1,2
 310 430 310 430 281 430 c 0,3,4
 209 430 209 430 173.5 379 c 128,-1,5
 138 328 138 328 138 238 c 128,-1,6
 138 148 138 148 174 95.5 c 128,-1,7
 210 43 210 43 281 43 c 0,8,9
 326 43 326 43 406 71 c 1,10,-1
 421 21 l 1,11,12
 342 -9 342 -9 282 -9 c 0,13,14
 184 -9 184 -9 132.5 56.5 c 128,-1,15
 81 122 81 122 81 239 c 128,-1,16
 81 356 81 356 132 418.5 c 128,-1,17
 183 481 183 481 282 481 c 0,18,19
 348 481 348 481 413 460 c 1,20,-1
 413 320 l 1,21,-1
 359 320 l 1,0,-1
396 722 m 1,22,-1
 270 592 l 1,23,-1
 230 592 l 1,24,-1
 104 722 l 1,25,-1
 163 722 l 1,26,-1
 250 633 l 1,27,-1
 337 722 l 1,28,-1
 396 722 l 1,22,-1
EndSplineSet
Substitution2: "'smcp' Lowercase to Small Capitals in Latin lookup 3 subtable" ccaron.sc
EndChar

StartChar: Dcaron
Encoding: 270 270 196
Width: 500
GlyphClass: 2
Flags: W
LayerCount: 2
Fore
SplineSet
374 882 m 1,0,-1
 248 752 l 1,1,-1
 208 752 l 1,2,-1
 82 882 l 1,3,-1
 141 882 l 1,4,-1
 228 793 l 1,5,-1
 315 882 l 1,6,-1
 374 882 l 1,0,-1
60 0 m 1,7,-1
 60 655 l 1,8,-1
 194 655 l 2,9,10
 268 655 268 655 315.5 640.5 c 128,-1,11
 363 626 363 626 396 589 c 128,-1,12
 429 552 429 552 443.5 488.5 c 128,-1,13
 458 425 458 425 458 327.5 c 128,-1,14
 458 230 458 230 442 165.5 c 128,-1,15
 426 101 426 101 391 65 c 128,-1,16
 356 29 356 29 309 14.5 c 128,-1,17
 262 0 262 0 192 0 c 2,18,-1
 60 0 l 1,7,-1
376.5 154.5 m 128,-1,20
 399 215 399 215 399 327.5 c 128,-1,21
 399 440 399 440 377 500.5 c 128,-1,22
 355 561 355 561 313 583 c 128,-1,23
 271 605 271 605 194 605 c 2,24,-1
 115 605 l 1,25,-1
 115 50 l 1,26,-1
 192 50 l 2,27,28
 269 50 269 50 311.5 72 c 128,-1,19
 354 94 354 94 376.5 154.5 c 128,-1,20
EndSplineSet
EndChar

StartChar: dcaron
Encoding: 271 271 197
Width: 500
GlyphClass: 2
Flags: W
LayerCount: 2
Fore
SplineSet
358 664 m 1,0,-1
 358 83 l 1,1,-1
 367 -4 l 1,2,-1
 318 -10 l 1,3,-1
 309 43 l 1,4,5
 243 -9 243 -9 185 -9 c 0,6,7
 105 -9 105 -9 60.5 57 c 128,-1,8
 16 123 16 123 16 236.5 c 128,-1,9
 16 350 16 350 65.5 415.5 c 128,-1,10
 115 481 115 481 200 481 c 0,11,12
 251 481 251 481 307 454 c 1,13,-1
 307 664 l 1,14,-1
 358 664 l 1,0,-1
98.5 96.5 m 128,-1,16
 130 43 130 43 188 43 c 128,-1,17
 246 43 246 43 307 100 c 1,18,-1
 307 400 l 1,19,20
 289 410 289 410 256 419.5 c 128,-1,21
 223 429 223 429 202 429 c 0,22,23
 138 429 138 429 102.5 377.5 c 128,-1,24
 67 326 67 326 67 238 c 128,-1,15
 67 150 67 150 98.5 96.5 c 128,-1,16
415 599 m 1,25,-1
 415 682 l 1,26,-1
 489 682 l 1,27,-1
 489 623 l 2,28,29
 489 552 489 552 428 485 c 1,30,-1
 407 505 l 1,31,32
 445 560 445 560 447 599 c 1,33,-1
 415 599 l 1,25,-1
EndSplineSet
Substitution2: "'smcp' Lowercase to Small Capitals in Latin lookup 3 subtable" dcaron.sc
EndChar

StartChar: Dcroat
Encoding: 272 272 198
Width: 500
GlyphClass: 2
Flags: W
LayerCount: 2
Fore
SplineSet
65 0 m 1,0,-1
 65 309 l 1,1,-1
 0 309 l 1,2,-1
 0 356 l 1,3,-1
 65 356 l 1,4,-1
 65 655 l 1,5,-1
 199 655 l 2,6,7
 273 655 273 655 320.5 640.5 c 128,-1,8
 368 626 368 626 401 589 c 128,-1,9
 434 552 434 552 448.5 488.5 c 128,-1,10
 463 425 463 425 463 327.5 c 128,-1,11
 463 230 463 230 447 165.5 c 128,-1,12
 431 101 431 101 396 65 c 128,-1,13
 361 29 361 29 314 14.5 c 128,-1,14
 267 0 267 0 197 0 c 2,15,-1
 65 0 l 1,0,-1
199 605 m 2,16,-1
 120 605 l 1,17,-1
 120 356 l 1,18,-1
 255 356 l 1,19,-1
 255 309 l 1,20,-1
 120 309 l 1,21,-1
 120 50 l 1,22,-1
 197 50 l 2,23,24
 274 50 274 50 316 72 c 0,25,26
 404 117 404 117 404 327 c 0,27,28
 404 538 404 538 318 583 c 0,29,30
 276 605 276 605 199 605 c 2,16,-1
EndSplineSet
EndChar

StartChar: dcroat
Encoding: 273 273 199
Width: 500
GlyphClass: 2
Flags: W
LayerCount: 2
Fore
SplineSet
247 587 m 1,0,-1
 500 587 l 1,1,-1
 500 546 l 1,2,-1
 247 546 l 1,3,-1
 247 587 l 1,0,-1
428 664 m 1,4,-1
 428 83 l 1,5,-1
 438 -4 l 1,6,-1
 387 -10 l 1,7,-1
 377 43 l 1,8,9
 302 -9 302 -9 239 -9 c 0,10,11
 150 -9 150 -9 100.5 57 c 128,-1,12
 51 123 51 123 51 236.5 c 128,-1,13
 51 350 51 350 106 415.5 c 128,-1,14
 161 481 161 481 256 481 c 0,15,16
 312 481 312 481 375 454 c 1,17,-1
 375 664 l 1,18,-1
 428 664 l 1,4,-1
142.5 96.5 m 128,-1,20
 177 43 177 43 242 43 c 128,-1,21
 307 43 307 43 375 100 c 1,22,-1
 375 400 l 1,23,24
 354 410 354 410 317.5 419.5 c 128,-1,25
 281 429 281 429 258 429 c 0,26,27
 187 429 187 429 147.5 377.5 c 128,-1,28
 108 326 108 326 108 238 c 128,-1,19
 108 150 108 150 142.5 96.5 c 128,-1,20
EndSplineSet
Substitution2: "'smcp' Lowercase to Small Capitals in Latin lookup 3 subtable" dcroat.sc
EndChar

StartChar: Emacron
Encoding: 274 274 200
Width: 500
GlyphClass: 2
Flags: W
LayerCount: 2
Fore
SplineSet
104 834 m 1,0,-1
 397 834 l 1,1,-1
 397 789 l 1,2,-1
 104 789 l 1,3,-1
 104 834 l 1,0,-1
82 0 m 1,4,-1
 82 655 l 1,5,-1
 423 655 l 1,6,-1
 423 606 l 1,7,-1
 137 606 l 1,8,-1
 137 358 l 1,9,-1
 396 358 l 1,10,-1
 396 309 l 1,11,-1
 137 309 l 1,12,-1
 137 49 l 1,13,-1
 426 49 l 1,14,-1
 426 0 l 1,15,-1
 82 0 l 1,4,-1
EndSplineSet
EndChar

StartChar: emacron
Encoding: 275 275 201
Width: 500
GlyphClass: 2
Flags: W
LayerCount: 2
Fore
SplineSet
114.5 416.5 m 128,-1,1
 162 481 162 481 253 481 c 128,-1,2
 344 481 344 481 388.5 421 c 128,-1,3
 433 361 433 361 433 261 c 1,4,-1
 430 211 l 1,5,-1
 124 211 l 1,6,7
 129 136 129 136 164 89.5 c 128,-1,8
 199 43 199 43 260.5 43 c 128,-1,9
 322 43 322 43 405 72 c 1,10,-1
 420 22 l 1,11,12
 339 -9 339 -9 268 -9 c 0,13,14
 170 -9 170 -9 118.5 56.5 c 128,-1,15
 67 122 67 122 67 237 c 128,-1,0
 67 352 67 352 114.5 416.5 c 128,-1,1
257 430 m 0,16,17
 131 430 131 430 124 261 c 1,18,-1
 376 261 l 1,19,20
 376 430 376 430 257 430 c 0,16,17
104 669 m 1,21,-1
 397 669 l 1,22,-1
 397 624 l 1,23,-1
 104 624 l 1,24,-1
 104 669 l 1,21,-1
EndSplineSet
Substitution2: "'smcp' Lowercase to Small Capitals in Latin lookup 3 subtable" emacron.sc
EndChar

StartChar: Ebreve
Encoding: 276 276 202
Width: 500
GlyphClass: 2
Flags: W
LayerCount: 2
Fore
SplineSet
250 754 m 128,-1,1
 128 754 128 754 114 875 c 1,2,-1
 160 875 l 1,3,4
 166 834 166 834 186.5 815 c 128,-1,5
 207 796 207 796 250 796 c 128,-1,6
 293 796 293 796 313 814.5 c 128,-1,7
 333 833 333 833 339 875 c 1,8,-1
 386 875 l 1,9,0
 372 754 372 754 250 754 c 128,-1,1
82 0 m 1,10,-1
 82 655 l 1,11,-1
 423 655 l 1,12,-1
 423 606 l 1,13,-1
 137 606 l 1,14,-1
 137 358 l 1,15,-1
 396 358 l 1,16,-1
 396 309 l 1,17,-1
 137 309 l 1,18,-1
 137 49 l 1,19,-1
 426 49 l 1,20,-1
 426 0 l 1,21,-1
 82 0 l 1,10,-1
EndSplineSet
EndChar

StartChar: ebreve
Encoding: 277 277 203
Width: 500
GlyphClass: 2
Flags: W
LayerCount: 2
Fore
SplineSet
114.5 416.5 m 128,-1,1
 162 481 162 481 253 481 c 128,-1,2
 344 481 344 481 388.5 421 c 128,-1,3
 433 361 433 361 433 261 c 1,4,-1
 430 211 l 1,5,-1
 124 211 l 1,6,7
 129 136 129 136 164 89.5 c 128,-1,8
 199 43 199 43 260.5 43 c 128,-1,9
 322 43 322 43 405 72 c 1,10,-1
 420 22 l 1,11,12
 339 -9 339 -9 268 -9 c 0,13,14
 170 -9 170 -9 118.5 56.5 c 128,-1,15
 67 122 67 122 67 237 c 128,-1,0
 67 352 67 352 114.5 416.5 c 128,-1,1
257 430 m 0,16,17
 131 430 131 430 124 261 c 1,18,-1
 376 261 l 1,19,20
 376 430 376 430 257 430 c 0,16,17
250 579 m 128,-1,22
 128 579 128 579 114 700 c 1,23,-1
 160 700 l 1,24,25
 166 659 166 659 186.5 640 c 128,-1,26
 207 621 207 621 250 621 c 128,-1,27
 293 621 293 621 313 639.5 c 128,-1,28
 333 658 333 658 339 700 c 1,29,-1
 386 700 l 1,30,21
 372 579 372 579 250 579 c 128,-1,22
EndSplineSet
Substitution2: "'smcp' Lowercase to Small Capitals in Latin lookup 3 subtable" ebreve.sc
EndChar

StartChar: Edotaccent
Encoding: 278 278 204
Width: 500
GlyphClass: 2
Flags: W
LayerCount: 2
Fore
SplineSet
213 812 m 128,-1,1
 213 827 213 827 223.5 838 c 128,-1,2
 234 849 234 849 250 849 c 128,-1,3
 266 849 266 849 276 838 c 128,-1,4
 286 827 286 827 286 812 c 128,-1,5
 286 797 286 797 276 786 c 256,6,7
 266 775 266 775 250 775 c 128,-1,8
 234 775 234 775 223.5 786 c 128,-1,0
 213 797 213 797 213 812 c 128,-1,1
82 0 m 1,9,-1
 82 655 l 1,10,-1
 423 655 l 1,11,-1
 423 606 l 1,12,-1
 137 606 l 1,13,-1
 137 358 l 1,14,-1
 396 358 l 1,15,-1
 396 309 l 1,16,-1
 137 309 l 1,17,-1
 137 49 l 1,18,-1
 426 49 l 1,19,-1
 426 0 l 1,20,-1
 82 0 l 1,9,-1
EndSplineSet
EndChar

StartChar: edotaccent
Encoding: 279 279 205
Width: 500
GlyphClass: 2
Flags: W
LayerCount: 2
Fore
SplineSet
114.5 416.5 m 128,-1,1
 162 481 162 481 253 481 c 128,-1,2
 344 481 344 481 388.5 421 c 128,-1,3
 433 361 433 361 433 261 c 1,4,-1
 430 211 l 1,5,-1
 124 211 l 1,6,7
 129 136 129 136 164 89.5 c 128,-1,8
 199 43 199 43 260.5 43 c 128,-1,9
 322 43 322 43 405 72 c 1,10,-1
 420 22 l 1,11,12
 339 -9 339 -9 268 -9 c 0,13,14
 170 -9 170 -9 118.5 56.5 c 128,-1,15
 67 122 67 122 67 237 c 128,-1,0
 67 352 67 352 114.5 416.5 c 128,-1,1
257 430 m 0,16,17
 131 430 131 430 124 261 c 1,18,-1
 376 261 l 1,19,20
 376 430 376 430 257 430 c 0,16,17
213 647 m 128,-1,22
 213 662 213 662 223.5 673 c 128,-1,23
 234 684 234 684 249.5 684 c 128,-1,24
 265 684 265 684 275.5 673 c 128,-1,25
 286 662 286 662 286 647 c 128,-1,26
 286 632 286 632 275.5 621 c 128,-1,27
 265 610 265 610 249.5 610 c 128,-1,28
 234 610 234 610 223.5 621 c 128,-1,21
 213 632 213 632 213 647 c 128,-1,22
EndSplineSet
Substitution2: "'smcp' Lowercase to Small Capitals in Latin lookup 3 subtable" edotaccent.sc
EndChar

StartChar: Eogonek
Encoding: 280 280 206
Width: 500
GlyphClass: 2
Flags: W
LayerCount: 2
Fore
SplineSet
417 -236 m 1,0,1
 367 -246 367 -246 331.5 -245.5 c 128,-1,2
 296 -245 296 -245 269.5 -216 c 128,-1,3
 243 -187 243 -187 243 -142 c 0,4,5
 243 -69 243 -69 327 -15 c 1,6,-1
 396 40 l 1,7,-1
 426 0 l 1,8,-1
 360 -45 l 1,9,10
 328 -69 328 -69 310 -90.5 c 128,-1,11
 292 -112 292 -112 292 -139.5 c 128,-1,12
 292 -167 292 -167 307.5 -184.5 c 128,-1,13
 323 -202 323 -202 353.5 -202 c 128,-1,14
 384 -202 384 -202 411 -196 c 1,15,-1
 417 -236 l 1,0,1
82 0 m 1,16,-1
 82 655 l 1,17,-1
 423 655 l 1,18,-1
 423 606 l 1,19,-1
 137 606 l 1,20,-1
 137 358 l 1,21,-1
 396 358 l 1,22,-1
 396 309 l 1,23,-1
 137 309 l 1,24,-1
 137 49 l 1,25,-1
 426 49 l 1,26,-1
 426 0 l 1,27,-1
 82 0 l 1,16,-1
EndSplineSet
EndChar

StartChar: eogonek
Encoding: 281 281 207
Width: 500
GlyphClass: 2
Flags: W
LayerCount: 2
Fore
SplineSet
378 -236 m 1,0,1
 328 -246 328 -246 292.5 -245.5 c 128,-1,2
 257 -245 257 -245 230.5 -216 c 128,-1,3
 204 -187 204 -187 204 -141 c 128,-1,4
 204 -95 204 -95 231.5 -62 c 128,-1,5
 259 -29 259 -29 310 -1 c 1,6,7
 288 -4 288 -4 268 -4 c 0,8,9
 170 -4 170 -4 118.5 59 c 128,-1,10
 67 122 67 122 67 237 c 128,-1,11
 67 352 67 352 114.5 416.5 c 128,-1,12
 162 481 162 481 253 481 c 128,-1,13
 344 481 344 481 388.5 421 c 128,-1,14
 433 361 433 361 433 261 c 1,15,-1
 430 211 l 1,16,-1
 124 211 l 1,17,18
 129 136 129 136 164 89.5 c 128,-1,19
 199 43 199 43 265.5 43 c 128,-1,20
 332 43 332 43 389 60 c 1,21,-1
 404 11 l 1,22,-1
 362 -16 l 2,23,24
 284 -67 284 -67 270 -87 c 0,25,26
 252 -114 252 -114 252.5 -140.5 c 128,-1,27
 253 -167 253 -167 268.5 -184.5 c 128,-1,28
 284 -202 284 -202 314.5 -202 c 128,-1,29
 345 -202 345 -202 372 -196 c 1,30,-1
 378 -236 l 1,0,1
257 430 m 0,31,32
 131 430 131 430 124 261 c 1,33,-1
 376 261 l 1,34,35
 376 430 376 430 257 430 c 0,31,32
EndSplineSet
Substitution2: "'smcp' Lowercase to Small Capitals in Latin lookup 3 subtable" eogonek.sc
EndChar

StartChar: Ecaron
Encoding: 282 282 208
Width: 500
GlyphClass: 2
Flags: W
LayerCount: 2
Fore
SplineSet
399 882 m 1,0,-1
 273 752 l 1,1,-1
 233 752 l 1,2,-1
 107 882 l 1,3,-1
 166 882 l 1,4,-1
 253 793 l 1,5,-1
 340 882 l 1,6,-1
 399 882 l 1,0,-1
82 0 m 1,7,-1
 82 655 l 1,8,-1
 423 655 l 1,9,-1
 423 606 l 1,10,-1
 137 606 l 1,11,-1
 137 358 l 1,12,-1
 396 358 l 1,13,-1
 396 309 l 1,14,-1
 137 309 l 1,15,-1
 137 49 l 1,16,-1
 426 49 l 1,17,-1
 426 0 l 1,18,-1
 82 0 l 1,7,-1
EndSplineSet
EndChar

StartChar: ecaron
Encoding: 283 283 209
Width: 500
GlyphClass: 2
Flags: W
LayerCount: 2
Fore
SplineSet
114.5 416.5 m 128,-1,1
 162 481 162 481 253 481 c 128,-1,2
 344 481 344 481 388.5 421 c 128,-1,3
 433 361 433 361 433 261 c 1,4,-1
 430 211 l 1,5,-1
 124 211 l 1,6,7
 129 136 129 136 164 89.5 c 128,-1,8
 199 43 199 43 260.5 43 c 128,-1,9
 322 43 322 43 405 72 c 1,10,-1
 420 22 l 1,11,12
 339 -9 339 -9 268 -9 c 0,13,14
 170 -9 170 -9 118.5 56.5 c 128,-1,15
 67 122 67 122 67 237 c 128,-1,0
 67 352 67 352 114.5 416.5 c 128,-1,1
257 430 m 0,16,17
 131 430 131 430 124 261 c 1,18,-1
 376 261 l 1,19,20
 376 430 376 430 257 430 c 0,16,17
396 722 m 1,21,-1
 270 592 l 1,22,-1
 230 592 l 1,23,-1
 104 722 l 1,24,-1
 163 722 l 1,25,-1
 250 633 l 1,26,-1
 337 722 l 1,27,-1
 396 722 l 1,21,-1
EndSplineSet
Substitution2: "'smcp' Lowercase to Small Capitals in Latin lookup 3 subtable" ecaron.sc
EndChar

StartChar: Gcircumflex
Encoding: 284 284 210
Width: 500
GlyphClass: 2
Flags: W
LayerCount: 2
Fore
SplineSet
117 752 m 1,0,-1
 243 882 l 1,1,-1
 283 882 l 1,2,-1
 409 752 l 1,3,-1
 351 752 l 1,4,-1
 263 842 l 1,5,-1
 175 752 l 1,6,-1
 117 752 l 1,0,-1
94 70 m 128,-1,8
 38 150 38 150 38 327.5 c 128,-1,9
 38 505 38 505 93 585 c 128,-1,10
 148 665 148 665 272 665 c 0,11,12
 353 665 353 665 442 633 c 1,13,-1
 428 582 l 1,14,15
 337 613 337 613 272 613 c 0,16,17
 178 613 178 613 137.5 546.5 c 128,-1,18
 97 480 97 480 97 329.5 c 128,-1,19
 97 179 97 179 139 110.5 c 128,-1,20
 181 42 181 42 266 42 c 0,21,22
 317 42 317 42 389 66 c 1,23,-1
 389 266 l 1,24,-1
 276 266 l 1,25,-1
 276 315 l 1,26,-1
 444 315 l 1,27,-1
 444 27 l 1,28,29
 341 -10 341 -10 266 -10 c 0,30,7
 150 -10 150 -10 94 70 c 128,-1,8
EndSplineSet
EndChar

StartChar: gcircumflex
Encoding: 285 285 211
Width: 500
GlyphClass: 2
Flags: W
LayerCount: 2
Fore
SplineSet
428 115 m 1,0,-1
 431 -23 l 1,1,2
 431 -112 431 -112 377.5 -156 c 128,-1,3
 324 -200 324 -200 245 -200 c 128,-1,4
 166 -200 166 -200 65 -160 c 1,5,-1
 83 -110 l 1,6,7
 182 -148 182 -148 240.5 -148 c 128,-1,8
 299 -148 299 -148 338.5 -117.5 c 128,-1,9
 378 -87 378 -87 378 -24 c 0,10,11
 378 -16 378 -16 376.5 11.5 c 128,-1,12
 375 39 375 39 375 52 c 1,13,14
 302 1 302 1 239 1 c 0,15,16
 149 1 149 1 100.5 62.5 c 128,-1,17
 52 124 52 124 52 237.5 c 128,-1,18
 52 351 52 351 106 416 c 128,-1,19
 160 481 160 481 256 481 c 0,20,21
 309 481 309 481 375 446 c 1,22,-1
 377 475 l 1,23,-1
 428 475 l 1,24,-1
 428 115 l 1,0,-1
143 102 m 128,-1,26
 177 53 177 53 242 53 c 128,-1,27
 307 53 307 53 375 110 c 1,28,-1
 375 390 l 1,29,30
 313 429 313 429 258 429 c 0,31,32
 187 429 187 429 148 377.5 c 128,-1,33
 109 326 109 326 109 238.5 c 128,-1,25
 109 151 109 151 143 102 c 128,-1,26
273 750 m 1,34,-1
 401 588 l 1,35,-1
 343 588 l 1,36,-1
 250 710 l 1,37,-1
 157 588 l 1,38,-1
 99 588 l 1,39,-1
 227 750 l 1,40,-1
 273 750 l 1,34,-1
EndSplineSet
Substitution2: "'smcp' Lowercase to Small Capitals in Latin lookup 3 subtable" gcircumflex.sc
EndChar

StartChar: Gbreve
Encoding: 286 286 212
Width: 500
GlyphClass: 2
Flags: W
LayerCount: 2
Fore
SplineSet
260 754 m 128,-1,1
 138 754 138 754 124 875 c 1,2,-1
 170 875 l 1,3,4
 176 834 176 834 196.5 815 c 128,-1,5
 217 796 217 796 260 796 c 128,-1,6
 303 796 303 796 323 814.5 c 128,-1,7
 343 833 343 833 349 875 c 1,8,-1
 396 875 l 1,9,0
 382 754 382 754 260 754 c 128,-1,1
94 70 m 128,-1,11
 38 150 38 150 38 327.5 c 128,-1,12
 38 505 38 505 93 585 c 128,-1,13
 148 665 148 665 272 665 c 0,14,15
 353 665 353 665 442 633 c 1,16,-1
 428 582 l 1,17,18
 337 613 337 613 272 613 c 0,19,20
 178 613 178 613 137.5 546.5 c 128,-1,21
 97 480 97 480 97 329.5 c 128,-1,22
 97 179 97 179 139 110.5 c 128,-1,23
 181 42 181 42 266 42 c 0,24,25
 317 42 317 42 389 66 c 1,26,-1
 389 266 l 1,27,-1
 276 266 l 1,28,-1
 276 315 l 1,29,-1
 444 315 l 1,30,-1
 444 27 l 1,31,32
 341 -10 341 -10 266 -10 c 0,33,10
 150 -10 150 -10 94 70 c 128,-1,11
EndSplineSet
EndChar

StartChar: gbreve
Encoding: 287 287 213
Width: 500
GlyphClass: 2
Flags: W
LayerCount: 2
Fore
SplineSet
428 115 m 1,0,-1
 431 -23 l 1,1,2
 431 -112 431 -112 377.5 -156 c 128,-1,3
 324 -200 324 -200 245 -200 c 128,-1,4
 166 -200 166 -200 65 -160 c 1,5,-1
 83 -110 l 1,6,7
 182 -148 182 -148 240.5 -148 c 128,-1,8
 299 -148 299 -148 338.5 -117.5 c 128,-1,9
 378 -87 378 -87 378 -24 c 0,10,11
 378 -16 378 -16 376.5 11.5 c 128,-1,12
 375 39 375 39 375 52 c 1,13,14
 302 1 302 1 239 1 c 0,15,16
 149 1 149 1 100.5 62.5 c 128,-1,17
 52 124 52 124 52 237.5 c 128,-1,18
 52 351 52 351 106 416 c 128,-1,19
 160 481 160 481 256 481 c 0,20,21
 309 481 309 481 375 446 c 1,22,-1
 377 475 l 1,23,-1
 428 475 l 1,24,-1
 428 115 l 1,0,-1
143 102 m 128,-1,26
 177 53 177 53 242 53 c 128,-1,27
 307 53 307 53 375 110 c 1,28,-1
 375 390 l 1,29,30
 313 429 313 429 258 429 c 0,31,32
 187 429 187 429 148 377.5 c 128,-1,33
 109 326 109 326 109 238.5 c 128,-1,25
 109 151 109 151 143 102 c 128,-1,26
250 579 m 128,-1,35
 128 579 128 579 114 700 c 1,36,-1
 160 700 l 1,37,38
 166 659 166 659 186.5 640 c 128,-1,39
 207 621 207 621 250 621 c 128,-1,40
 293 621 293 621 313 639.5 c 128,-1,41
 333 658 333 658 339 700 c 1,42,-1
 386 700 l 1,43,34
 372 579 372 579 250 579 c 128,-1,35
EndSplineSet
Substitution2: "'smcp' Lowercase to Small Capitals in Latin lookup 3 subtable" gbreve.sc
EndChar

StartChar: Gdotaccent
Encoding: 288 288 214
Width: 500
GlyphClass: 2
Flags: W
LayerCount: 2
Fore
SplineSet
233 812 m 128,-1,1
 233 827 233 827 243.5 838 c 128,-1,2
 254 849 254 849 269.5 849 c 128,-1,3
 285 849 285 849 295.5 838 c 128,-1,4
 306 827 306 827 306 812 c 128,-1,5
 306 797 306 797 295.5 786 c 128,-1,6
 285 775 285 775 269.5 775 c 128,-1,7
 254 775 254 775 243.5 786 c 128,-1,0
 233 797 233 797 233 812 c 128,-1,1
94 70 m 128,-1,9
 38 150 38 150 38 327.5 c 128,-1,10
 38 505 38 505 93 585 c 128,-1,11
 148 665 148 665 272 665 c 0,12,13
 353 665 353 665 442 633 c 1,14,-1
 428 582 l 1,15,16
 337 613 337 613 272 613 c 0,17,18
 178 613 178 613 137.5 546.5 c 128,-1,19
 97 480 97 480 97 329.5 c 128,-1,20
 97 179 97 179 139 110.5 c 128,-1,21
 181 42 181 42 266 42 c 0,22,23
 317 42 317 42 389 66 c 1,24,-1
 389 266 l 1,25,-1
 276 266 l 1,26,-1
 276 315 l 1,27,-1
 444 315 l 1,28,-1
 444 27 l 1,29,30
 341 -10 341 -10 266 -10 c 0,31,8
 150 -10 150 -10 94 70 c 128,-1,9
EndSplineSet
EndChar

StartChar: gdotaccent
Encoding: 289 289 215
Width: 500
GlyphClass: 2
Flags: W
LayerCount: 2
Fore
SplineSet
428 115 m 1,0,-1
 431 -23 l 1,1,2
 431 -112 431 -112 377.5 -156 c 128,-1,3
 324 -200 324 -200 245 -200 c 128,-1,4
 166 -200 166 -200 65 -160 c 1,5,-1
 83 -110 l 1,6,7
 182 -148 182 -148 240.5 -148 c 128,-1,8
 299 -148 299 -148 338.5 -117.5 c 128,-1,9
 378 -87 378 -87 378 -24 c 0,10,11
 378 -16 378 -16 376.5 11.5 c 128,-1,12
 375 39 375 39 375 52 c 1,13,14
 302 1 302 1 239 1 c 0,15,16
 149 1 149 1 100.5 62.5 c 128,-1,17
 52 124 52 124 52 237.5 c 128,-1,18
 52 351 52 351 106 416 c 128,-1,19
 160 481 160 481 256 481 c 0,20,21
 309 481 309 481 375 446 c 1,22,-1
 377 475 l 1,23,-1
 428 475 l 1,24,-1
 428 115 l 1,0,-1
143 102 m 128,-1,26
 177 53 177 53 242 53 c 128,-1,27
 307 53 307 53 375 110 c 1,28,-1
 375 390 l 1,29,30
 313 429 313 429 258 429 c 0,31,32
 187 429 187 429 148 377.5 c 128,-1,33
 109 326 109 326 109 238.5 c 128,-1,25
 109 151 109 151 143 102 c 128,-1,26
228 647 m 128,-1,35
 228 662 228 662 238.5 673 c 128,-1,36
 249 684 249 684 264.5 684 c 128,-1,37
 280 684 280 684 290.5 673 c 128,-1,38
 301 662 301 662 301 647 c 128,-1,39
 301 632 301 632 290.5 621 c 128,-1,40
 280 610 280 610 264.5 610 c 128,-1,41
 249 610 249 610 238.5 621 c 128,-1,34
 228 632 228 632 228 647 c 128,-1,35
EndSplineSet
Substitution2: "'smcp' Lowercase to Small Capitals in Latin lookup 3 subtable" gdotaccent.sc
EndChar

StartChar: Gcommaaccent
Encoding: 290 290 216
Width: 500
GlyphClass: 2
Flags: W
LayerCount: 2
Fore
SplineSet
236 -207 m 1,0,1
 261 -182 261 -182 261 -158 c 2,2,-1
 261 -150 l 1,3,-1
 237 -150 l 1,4,-1
 237 -72 l 1,5,-1
 304 -72 l 1,6,-1
 304 -123 l 2,7,8
 304 -162 304 -162 295.5 -184 c 128,-1,9
 287 -206 287 -206 258 -229 c 1,10,-1
 236 -207 l 1,0,1
94 70 m 128,-1,12
 38 150 38 150 38 327.5 c 128,-1,13
 38 505 38 505 93 585 c 128,-1,14
 148 665 148 665 272 665 c 0,15,16
 353 665 353 665 442 633 c 1,17,-1
 428 582 l 1,18,19
 337 613 337 613 272 613 c 0,20,21
 178 613 178 613 137.5 546.5 c 128,-1,22
 97 480 97 480 97 329.5 c 128,-1,23
 97 179 97 179 139 110.5 c 128,-1,24
 181 42 181 42 266 42 c 0,25,26
 317 42 317 42 389 66 c 1,27,-1
 389 266 l 1,28,-1
 276 266 l 1,29,-1
 276 315 l 1,30,-1
 444 315 l 1,31,-1
 444 27 l 1,32,33
 341 -10 341 -10 266 -10 c 0,34,11
 150 -10 150 -10 94 70 c 128,-1,12
EndSplineSet
EndChar

StartChar: gcommaaccent
Encoding: 291 291 217
Width: 500
GlyphClass: 2
Flags: W
LayerCount: 2
Fore
SplineSet
294 722 m 1,0,1
 269 697 269 697 269 673 c 2,2,-1
 269 665 l 1,3,-1
 293 665 l 1,4,-1
 293 587 l 1,5,-1
 226 587 l 1,6,-1
 226 638 l 2,7,8
 226 677 226 677 234.5 699 c 128,-1,9
 243 721 243 721 272 744 c 1,10,-1
 294 722 l 1,0,1
428 115 m 1,11,-1
 431 -23 l 1,12,13
 431 -112 431 -112 377.5 -156 c 128,-1,14
 324 -200 324 -200 245 -200 c 128,-1,15
 166 -200 166 -200 65 -160 c 1,16,-1
 83 -110 l 1,17,18
 182 -148 182 -148 240.5 -148 c 128,-1,19
 299 -148 299 -148 338.5 -117.5 c 128,-1,20
 378 -87 378 -87 378 -24 c 0,21,22
 378 -16 378 -16 376.5 11.5 c 128,-1,23
 375 39 375 39 375 52 c 1,24,25
 302 1 302 1 239 1 c 0,26,27
 149 1 149 1 100.5 62.5 c 128,-1,28
 52 124 52 124 52 237.5 c 128,-1,29
 52 351 52 351 106 416 c 128,-1,30
 160 481 160 481 256 481 c 0,31,32
 309 481 309 481 375 446 c 1,33,-1
 377 475 l 1,34,-1
 428 475 l 1,35,-1
 428 115 l 1,11,-1
143 102 m 128,-1,37
 177 53 177 53 242 53 c 128,-1,38
 307 53 307 53 375 110 c 1,39,-1
 375 390 l 1,40,41
 313 429 313 429 258 429 c 0,42,43
 187 429 187 429 148 377.5 c 128,-1,44
 109 326 109 326 109 238.5 c 128,-1,36
 109 151 109 151 143 102 c 128,-1,37
EndSplineSet
Substitution2: "'smcp' Lowercase to Small Capitals in Latin lookup 3 subtable" gcommaaccent.sc
EndChar

StartChar: Hcircumflex
Encoding: 292 292 218
Width: 500
GlyphClass: 2
Flags: W
LayerCount: 2
Fore
SplineSet
104 752 m 1,0,-1
 230 882 l 1,1,-1
 270 882 l 1,2,-1
 396 752 l 1,3,-1
 338 752 l 1,4,-1
 250 842 l 1,5,-1
 162 752 l 1,6,-1
 104 752 l 1,0,-1
54 0 m 1,7,-1
 54 655 l 1,8,-1
 109 655 l 1,9,-1
 109 351 l 1,10,-1
 391 351 l 1,11,-1
 391 655 l 1,12,-1
 446 655 l 1,13,-1
 446 0 l 1,14,-1
 391 0 l 1,15,-1
 391 300 l 1,16,-1
 109 300 l 1,17,-1
 109 0 l 1,18,-1
 54 0 l 1,7,-1
EndSplineSet
EndChar

StartChar: hcircumflex
Encoding: 293 293 219
Width: 500
GlyphClass: 2
Flags: W
LayerCount: 2
Fore
SplineSet
131 388 m 1,0,-1
 131 0 l 1,1,-1
 78 0 l 1,2,-1
 78 664 l 1,3,-1
 131 664 l 1,4,-1
 131 439 l 1,5,6
 225 481 225 481 286 481 c 0,7,8
 429 481 429 481 429 317 c 2,9,-1
 429 0 l 1,10,-1
 376 0 l 1,11,-1
 376 317 l 2,12,13
 376 368 376 368 354 398.5 c 128,-1,14
 332 429 332 429 278 429 c 128,-1,15
 224 429 224 429 131 388 c 1,0,-1
273 914 m 1,16,-1
 401 752 l 1,17,-1
 343 752 l 1,18,-1
 250 874 l 1,19,-1
 157 752 l 1,20,-1
 99 752 l 1,21,-1
 227 914 l 1,22,-1
 273 914 l 1,16,-1
EndSplineSet
Substitution2: "'smcp' Lowercase to Small Capitals in Latin lookup 3 subtable" hcircumflex.sc
EndChar

StartChar: Hbar
Encoding: 294 294 220
Width: 500
GlyphClass: 2
Flags: W
LayerCount: 2
Fore
SplineSet
0 513 m 1,0,-1
 500 513 l 1,1,-1
 500 472 l 1,2,-1
 0 472 l 1,3,-1
 0 513 l 1,0,-1
54 0 m 1,4,-1
 54 655 l 1,5,-1
 109 655 l 1,6,-1
 109 351 l 1,7,-1
 391 351 l 1,8,-1
 391 655 l 1,9,-1
 446 655 l 1,10,-1
 446 0 l 1,11,-1
 391 0 l 1,12,-1
 391 300 l 1,13,-1
 109 300 l 1,14,-1
 109 0 l 1,15,-1
 54 0 l 1,4,-1
EndSplineSet
EndChar

StartChar: hbar
Encoding: 295 295 221
Width: 500
GlyphClass: 2
Flags: W
LayerCount: 2
Fore
SplineSet
0 587 m 1,0,-1
 283 587 l 1,1,-1
 283 546 l 1,2,-1
 0 546 l 1,3,-1
 0 587 l 1,0,-1
131 388 m 1,4,-1
 131 0 l 1,5,-1
 78 0 l 1,6,-1
 78 664 l 1,7,-1
 131 664 l 1,8,-1
 131 439 l 1,9,10
 225 481 225 481 286 481 c 0,11,12
 429 481 429 481 429 317 c 2,13,-1
 429 0 l 1,14,-1
 376 0 l 1,15,-1
 376 317 l 2,16,17
 376 368 376 368 354 398.5 c 128,-1,18
 332 429 332 429 278 429 c 128,-1,19
 224 429 224 429 131 388 c 1,4,-1
EndSplineSet
Substitution2: "'smcp' Lowercase to Small Capitals in Latin lookup 3 subtable" hbar.sc
EndChar

StartChar: Itilde
Encoding: 296 296 222
Width: 500
GlyphClass: 2
Flags: W
LayerCount: 2
Fore
SplineSet
379 859 m 1,0,-1
 404 826 l 1,1,2
 354 771 354 771 320 771 c 128,-1,3
 286 771 286 771 248 798 c 256,4,5
 210 825 210 825 188 825 c 128,-1,6
 166 825 166 825 123 784 c 1,7,-1
 95 818 l 1,8,9
 152 872 152 872 188 872 c 128,-1,10
 224 872 224 872 262 845.5 c 128,-1,11
 300 819 300 819 318 819 c 128,-1,12
 336 819 336 819 379 859 c 1,0,-1
111 0 m 1,13,-1
 111 50 l 1,14,-1
 224 50 l 1,15,-1
 224 605 l 1,16,-1
 111 605 l 1,17,-1
 111 655 l 1,18,-1
 390 655 l 1,19,-1
 390 605 l 1,20,-1
 279 605 l 1,21,-1
 279 50 l 1,22,-1
 390 50 l 1,23,-1
 390 0 l 1,24,-1
 111 0 l 1,13,-1
EndSplineSet
EndChar

StartChar: itilde
Encoding: 297 297 223
Width: 500
GlyphClass: 2
Flags: W
LayerCount: 2
Fore
SplineSet
123 425 m 1,0,-1
 123 475 l 1,1,-1
 292 475 l 1,2,-1
 292 50 l 1,3,-1
 408 50 l 1,4,-1
 408 0 l 1,5,-1
 115 0 l 1,6,-1
 115 50 l 1,7,-1
 239 50 l 1,8,-1
 239 425 l 1,9,-1
 123 425 l 1,0,-1
379 694 m 1,10,-1
 404 661 l 1,11,12
 354 606 354 606 320 606 c 128,-1,13
 286 606 286 606 248 633 c 256,14,15
 210 660 210 660 188 660 c 128,-1,16
 166 660 166 660 123 619 c 1,17,-1
 95 653 l 1,18,19
 152 707 152 707 188 707 c 128,-1,20
 224 707 224 707 262 680.5 c 128,-1,21
 300 654 300 654 318 654 c 128,-1,22
 336 654 336 654 379 694 c 1,10,-1
EndSplineSet
Substitution2: "'smcp' Lowercase to Small Capitals in Latin lookup 3 subtable" itilde.sc
EndChar

StartChar: imacron
Encoding: 299 299 224
Width: 500
GlyphClass: 2
Flags: W
LayerCount: 2
Fore
SplineSet
123 425 m 1,0,-1
 123 475 l 1,1,-1
 292 475 l 1,2,-1
 292 50 l 1,3,-1
 408 50 l 1,4,-1
 408 0 l 1,5,-1
 115 0 l 1,6,-1
 115 50 l 1,7,-1
 239 50 l 1,8,-1
 239 425 l 1,9,-1
 123 425 l 1,0,-1
104 669 m 1,10,-1
 397 669 l 1,11,-1
 397 624 l 1,12,-1
 104 624 l 1,13,-1
 104 669 l 1,10,-1
EndSplineSet
Substitution2: "'smcp' Lowercase to Small Capitals in Latin lookup 3 subtable" imacron.sc
EndChar

StartChar: Ibreve
Encoding: 300 300 225
Width: 500
GlyphClass: 2
Flags: W
LayerCount: 2
Fore
SplineSet
251 754 m 128,-1,1
 129 754 129 754 115 875 c 1,2,-1
 161 875 l 1,3,4
 167 834 167 834 187.5 815 c 128,-1,5
 208 796 208 796 251 796 c 128,-1,6
 294 796 294 796 314 814.5 c 128,-1,7
 334 833 334 833 340 875 c 1,8,-1
 387 875 l 1,9,0
 373 754 373 754 251 754 c 128,-1,1
111 0 m 1,10,-1
 111 50 l 1,11,-1
 224 50 l 1,12,-1
 224 605 l 1,13,-1
 111 605 l 1,14,-1
 111 655 l 1,15,-1
 390 655 l 1,16,-1
 390 605 l 1,17,-1
 279 605 l 1,18,-1
 279 50 l 1,19,-1
 390 50 l 1,20,-1
 390 0 l 1,21,-1
 111 0 l 1,10,-1
EndSplineSet
EndChar

StartChar: Iogonek
Encoding: 302 302 226
Width: 500
GlyphClass: 2
Flags: W
LayerCount: 2
Fore
SplineSet
381 -236 m 1,0,1
 331 -246 331 -246 295.5 -245.5 c 128,-1,2
 260 -245 260 -245 233.5 -216 c 128,-1,3
 207 -187 207 -187 207 -142 c 0,4,5
 207 -69 207 -69 291 -15 c 1,6,-1
 360 40 l 1,7,-1
 390 0 l 1,8,-1
 324 -45 l 1,9,10
 292 -69 292 -69 274 -90.5 c 128,-1,11
 256 -112 256 -112 256 -139.5 c 128,-1,12
 256 -167 256 -167 271.5 -184.5 c 128,-1,13
 287 -202 287 -202 317.5 -202 c 128,-1,14
 348 -202 348 -202 375 -196 c 1,15,-1
 381 -236 l 1,0,1
111 0 m 1,16,-1
 111 50 l 1,17,-1
 224 50 l 1,18,-1
 224 605 l 1,19,-1
 111 605 l 1,20,-1
 111 655 l 1,21,-1
 390 655 l 1,22,-1
 390 605 l 1,23,-1
 279 605 l 1,24,-1
 279 50 l 1,25,-1
 390 50 l 1,26,-1
 390 0 l 1,27,-1
 111 0 l 1,16,-1
EndSplineSet
EndChar

StartChar: iogonek
Encoding: 303 303 227
Width: 500
GlyphClass: 2
Flags: W
LayerCount: 2
Fore
SplineSet
399 -239 m 1,0,1
 357 -249 357 -249 317.5 -248.5 c 128,-1,2
 278 -248 278 -248 251.5 -219 c 128,-1,3
 225 -190 225 -190 225 -143 c 128,-1,4
 225 -96 225 -96 260.5 -56.5 c 128,-1,5
 296 -17 296 -17 378 34 c 1,6,-1
 408 0 l 1,7,8
 334 -48 334 -48 305.5 -80 c 128,-1,9
 277 -112 277 -112 277 -141 c 0,10,11
 277 -203 277 -203 335 -203 c 0,12,13
 366 -203 366 -203 393 -197 c 1,14,-1
 399 -239 l 1,0,1
123 425 m 1,15,-1
 123 475 l 1,16,-1
 292 475 l 1,17,-1
 292 50 l 1,18,-1
 408 50 l 1,19,-1
 408 0 l 1,20,-1
 115 0 l 1,21,-1
 115 50 l 1,22,-1
 239 50 l 1,23,-1
 239 425 l 1,24,-1
 123 425 l 1,15,-1
230.5 583.5 m 128,-1,26
 218 596 218 596 218 615.5 c 128,-1,27
 218 635 218 635 230.5 646.5 c 128,-1,28
 243 658 243 658 261 658 c 128,-1,29
 279 658 279 658 290.5 647 c 128,-1,30
 302 636 302 636 302 616 c 128,-1,31
 302 596 302 596 290.5 583.5 c 128,-1,32
 279 571 279 571 261 571 c 128,-1,25
 243 571 243 571 230.5 583.5 c 128,-1,26
EndSplineSet
Substitution2: "'smcp' Lowercase to Small Capitals in Latin lookup 3 subtable" iogonek.sc
EndChar

StartChar: Idotaccent
Encoding: 304 304 228
Width: 500
GlyphClass: 2
Flags: W
LayerCount: 2
Fore
SplineSet
213 812 m 128,-1,1
 213 827 213 827 223.5 838 c 128,-1,2
 234 849 234 849 250 849 c 128,-1,3
 266 849 266 849 276 838 c 128,-1,4
 286 827 286 827 286 812 c 128,-1,5
 286 797 286 797 276 786 c 256,6,7
 266 775 266 775 250 775 c 128,-1,8
 234 775 234 775 223.5 786 c 128,-1,0
 213 797 213 797 213 812 c 128,-1,1
111 0 m 1,9,-1
 111 50 l 1,10,-1
 224 50 l 1,11,-1
 224 605 l 1,12,-1
 111 605 l 1,13,-1
 111 655 l 1,14,-1
 390 655 l 1,15,-1
 390 605 l 1,16,-1
 279 605 l 1,17,-1
 279 50 l 1,18,-1
 390 50 l 1,19,-1
 390 0 l 1,20,-1
 111 0 l 1,9,-1
EndSplineSet
EndChar

StartChar: dotlessi
Encoding: 305 305 229
Width: 500
GlyphClass: 2
Flags: W
LayerCount: 2
Fore
SplineSet
123 425 m 1,0,-1
 123 475 l 1,1,-1
 292 475 l 1,2,-1
 292 50 l 1,3,-1
 408 50 l 1,4,-1
 408 0 l 1,5,-1
 115 0 l 1,6,-1
 115 50 l 1,7,-1
 239 50 l 1,8,-1
 239 425 l 1,9,-1
 123 425 l 1,0,-1
EndSplineSet
EndChar

StartChar: I_J
Encoding: 306 306 230
Width: 500
GlyphClass: 3
Flags: W
LayerCount: 2
Fore
SplineSet
146 237 m 1,0,-1
 146 609 l 1,1,-1
 43 609 l 1,2,-1
 43 655 l 1,3,-1
 292 655 l 1,4,-1
 292 609 l 1,5,-1
 199 609 l 1,6,-1
 199 237 l 1,7,-1
 292 237 l 1,8,-1
 292 191 l 1,9,-1
 43 191 l 1,10,-1
 43 237 l 1,11,-1
 146 237 l 1,0,-1
414 655 m 1,12,-1
 469 655 l 1,13,-1
 469 178 l 2,14,15
 469 82 469 82 404.5 44.5 c 128,-1,16
 340 7 340 7 178 -10 c 1,17,-1
 171 42 l 1,18,19
 310 57 310 57 362 83.5 c 128,-1,20
 414 110 414 110 414 178 c 2,21,-1
 414 655 l 1,12,-1
EndSplineSet
Ligature2: "'dlig' Discretionary Ligatures in Latin lookup 4 subtable" I J
EndChar

StartChar: Jcircumflex
Encoding: 308 308 231
Width: 500
GlyphClass: 2
Flags: W
LayerCount: 2
Fore
SplineSet
90 752 m 1,0,-1
 216 882 l 1,1,-1
 256 882 l 1,2,-1
 382 752 l 1,3,-1
 324 752 l 1,4,-1
 236 842 l 1,5,-1
 148 752 l 1,6,-1
 90 752 l 1,0,-1
312 605 m 1,7,-1
 312 215 l 2,8,9
 312 79 312 79 288.5 34.5 c 128,-1,10
 265 -10 265 -10 178 -11 c 0,11,12
 161 -11 161 -11 119 -5 c 128,-1,13
 77 1 77 1 58 6 c 1,14,-1
 69 58 l 1,15,16
 137 41 137 41 183 41 c 128,-1,17
 229 41 229 41 243 71.5 c 128,-1,18
 257 102 257 102 257 218 c 2,19,-1
 257 605 l 1,20,-1
 96 605 l 1,21,-1
 96 655 l 1,22,-1
 363 655 l 1,23,-1
 363 605 l 1,24,-1
 312 605 l 1,7,-1
EndSplineSet
EndChar

StartChar: jcircumflex
Encoding: 309 309 232
Width: 500
GlyphClass: 2
Flags: W
LayerCount: 2
Fore
SplineSet
332 475 m 1,0,-1
 332 -10 l 2,1,2
 332 -104 332 -104 284.5 -138 c 128,-1,3
 237 -172 237 -172 117 -188 c 1,4,-1
 111 -136 l 1,5,6
 210 -122 210 -122 244.5 -98.5 c 128,-1,7
 279 -75 279 -75 279 -10 c 2,8,-1
 279 426 l 1,9,-1
 152 426 l 1,10,-1
 152 475 l 1,11,-1
 332 475 l 1,0,-1
273 750 m 1,12,-1
 401 588 l 1,13,-1
 343 588 l 1,14,-1
 250 710 l 1,15,-1
 157 588 l 1,16,-1
 99 588 l 1,17,-1
 227 750 l 1,18,-1
 273 750 l 1,12,-1
EndSplineSet
Substitution2: "'smcp' Lowercase to Small Capitals in Latin lookup 3 subtable" jcircumflex.sc
EndChar

StartChar: Kcommaaccent
Encoding: 310 310 233
Width: 500
GlyphClass: 2
Flags: W
LayerCount: 2
Fore
SplineSet
216 -207 m 1,0,1
 241 -182 241 -182 241 -158 c 2,2,-1
 241 -150 l 1,3,-1
 217 -150 l 1,4,-1
 217 -72 l 1,5,-1
 284 -72 l 1,6,-1
 284 -123 l 2,7,8
 284 -162 284 -162 275.5 -184 c 128,-1,9
 267 -206 267 -206 238 -229 c 1,10,-1
 216 -207 l 1,0,1
390 655 m 1,11,-1
 453 655 l 1,12,13
 353 455 353 455 274 337 c 1,14,15
 304 292 304 292 350 208 c 1,16,17
 350 208 350 208 460 0 c 1,18,-1
 393 0 l 1,19,20
 281 219 281 219 227 305 c 1,21,-1
 126 295 l 1,22,-1
 126 0 l 1,23,-1
 71 0 l 1,24,-1
 71 655 l 1,25,-1
 126 655 l 1,26,-1
 126 346 l 1,27,-1
 223 356 l 1,28,29
 294 464 294 464 364 604 c 1,30,-1
 390 655 l 1,11,-1
EndSplineSet
EndChar

StartChar: kcommaaccent
Encoding: 311 311 234
Width: 500
GlyphClass: 2
Flags: W
LayerCount: 2
Fore
SplineSet
359 475 m 1,0,-1
 419 475 l 1,1,2
 343 353 343 353 260 253 c 1,3,4
 332 151 332 151 428 0 c 1,5,-1
 365 0 l 1,6,7
 285 130 285 130 220 221 c 1,8,-1
 150 212 l 1,9,-1
 150 0 l 1,10,-1
 97 0 l 1,11,-1
 97 664 l 1,12,-1
 150 664 l 1,13,-1
 150 260 l 1,14,-1
 215 270 l 1,15,16
 286 362 286 362 359 475 c 1,0,-1
218 -207 m 1,17,18
 243 -182 243 -182 243 -158 c 2,19,-1
 243 -150 l 1,20,-1
 219 -150 l 1,21,-1
 219 -72 l 1,22,-1
 286 -72 l 1,23,-1
 286 -123 l 2,24,25
 286 -162 286 -162 277.5 -184 c 128,-1,26
 269 -206 269 -206 240 -229 c 1,27,-1
 218 -207 l 1,17,18
EndSplineSet
Substitution2: "'smcp' Lowercase to Small Capitals in Latin lookup 3 subtable" kcommaaccent.sc
EndChar

StartChar: Lacute
Encoding: 313 313 235
Width: 500
GlyphClass: 2
Flags: W
LayerCount: 2
Fore
SplineSet
144 794 m 1,0,-1
 348 882 l 1,1,-1
 367 836 l 1,2,-1
 161 752 l 1,3,-1
 144 794 l 1,0,-1
419 51 m 1,4,-1
 419 0 l 1,5,-1
 91 0 l 1,6,-1
 91 655 l 1,7,-1
 146 655 l 1,8,-1
 146 51 l 1,9,-1
 419 51 l 1,4,-1
EndSplineSet
EndChar

StartChar: lacute
Encoding: 314 314 236
Width: 500
GlyphClass: 2
Flags: W
LayerCount: 2
Fore
SplineSet
109 614 m 1,0,-1
 108 663 l 1,1,-1
 281 664 l 1,2,-1
 281 50 l 1,3,-1
 403 50 l 1,4,-1
 403 0 l 1,5,-1
 105 0 l 1,6,-1
 105 50 l 1,7,-1
 228 50 l 1,8,-1
 228 615 l 1,9,-1
 109 614 l 1,0,-1
158 762 m 1,10,-1
 339 862 l 1,11,-1
 362 813 l 1,12,-1
 179 723 l 1,13,-1
 158 762 l 1,10,-1
EndSplineSet
Substitution2: "'smcp' Lowercase to Small Capitals in Latin lookup 3 subtable" lacute.sc
EndChar

StartChar: Lcommaaccent
Encoding: 315 315 237
Width: 500
GlyphClass: 2
Flags: W
LayerCount: 2
Fore
SplineSet
216 -207 m 1,0,1
 241 -182 241 -182 241 -158 c 2,2,-1
 241 -150 l 1,3,-1
 217 -150 l 1,4,-1
 217 -72 l 1,5,-1
 284 -72 l 1,6,-1
 284 -123 l 2,7,8
 284 -162 284 -162 275.5 -184 c 128,-1,9
 267 -206 267 -206 238 -229 c 1,10,-1
 216 -207 l 1,0,1
419 51 m 1,11,-1
 419 0 l 1,12,-1
 91 0 l 1,13,-1
 91 655 l 1,14,-1
 146 655 l 1,15,-1
 146 51 l 1,16,-1
 419 51 l 1,11,-1
EndSplineSet
EndChar

StartChar: lcommaaccent
Encoding: 316 316 238
Width: 500
GlyphClass: 2
Flags: W
LayerCount: 2
Fore
SplineSet
109 614 m 1,0,-1
 108 663 l 1,1,-1
 281 664 l 1,2,-1
 281 50 l 1,3,-1
 403 50 l 1,4,-1
 403 0 l 1,5,-1
 105 0 l 1,6,-1
 105 50 l 1,7,-1
 228 50 l 1,8,-1
 228 615 l 1,9,-1
 109 614 l 1,0,-1
223 -207 m 1,10,11
 248 -182 248 -182 248 -158 c 2,12,-1
 248 -150 l 1,13,-1
 224 -150 l 1,14,-1
 224 -72 l 1,15,-1
 291 -72 l 1,16,-1
 291 -123 l 2,17,18
 291 -162 291 -162 282.5 -184 c 128,-1,19
 274 -206 274 -206 245 -229 c 1,20,-1
 223 -207 l 1,10,11
EndSplineSet
Substitution2: "'smcp' Lowercase to Small Capitals in Latin lookup 3 subtable" lcommaaccent.sc
EndChar

StartChar: Lcaron
Encoding: 317 317 239
Width: 500
GlyphClass: 2
Flags: W
LayerCount: 2
Fore
SplineSet
315 599 m 1,0,-1
 315 682 l 1,1,-1
 389 682 l 1,2,-1
 389 623 l 2,3,4
 389 557 389 557 328 490 c 1,5,-1
 307 510 l 1,6,7
 307 510 307 510 328 542 c 0,8,9
 345 567 345 567 347 599 c 1,10,-1
 315 599 l 1,0,-1
419 51 m 1,11,-1
 419 0 l 1,12,-1
 91 0 l 1,13,-1
 91 655 l 1,14,-1
 146 655 l 1,15,-1
 146 51 l 1,16,-1
 419 51 l 1,11,-1
EndSplineSet
EndChar

StartChar: lcaron
Encoding: 318 318 240
Width: 500
GlyphClass: 2
Flags: W
LayerCount: 2
Fore
SplineSet
388 599 m 1,0,-1
 388 682 l 1,1,-1
 462 682 l 1,2,-1
 462 623 l 2,3,4
 462 552 462 552 401 485 c 1,5,-1
 380 505 l 1,6,7
 418 560 418 560 420 599 c 1,8,-1
 388 599 l 1,0,-1
109 614 m 1,9,-1
 108 663 l 1,10,-1
 281 664 l 1,11,-1
 281 50 l 1,12,-1
 403 50 l 1,13,-1
 403 0 l 1,14,-1
 105 0 l 1,15,-1
 105 50 l 1,16,-1
 228 50 l 1,17,-1
 228 615 l 1,18,-1
 109 614 l 1,9,-1
EndSplineSet
Substitution2: "'smcp' Lowercase to Small Capitals in Latin lookup 3 subtable" lcaron.sc
EndChar

StartChar: Lslash
Encoding: 321 321 241
Width: 500
GlyphClass: 2
Flags: W
LayerCount: 2
Fore
SplineSet
308 344 m 1,0,-1
 10 272 l 1,1,-1
 10 323 l 1,2,-1
 308 395 l 1,3,-1
 308 344 l 1,0,-1
419 51 m 1,4,-1
 419 0 l 1,5,-1
 91 0 l 1,6,-1
 91 655 l 1,7,-1
 146 655 l 1,8,-1
 146 51 l 1,9,-1
 419 51 l 1,4,-1
EndSplineSet
EndChar

StartChar: lslash
Encoding: 322 322 242
Width: 500
GlyphClass: 2
Flags: W
LayerCount: 2
Fore
SplineSet
403 344 m 1,0,-1
 105 272 l 1,1,-1
 105 323 l 1,2,-1
 403 395 l 1,3,-1
 403 344 l 1,0,-1
109 614 m 1,4,-1
 108 663 l 1,5,-1
 281 664 l 1,6,-1
 281 50 l 1,7,-1
 403 50 l 1,8,-1
 403 0 l 1,9,-1
 105 0 l 1,10,-1
 105 50 l 1,11,-1
 228 50 l 1,12,-1
 228 615 l 1,13,-1
 109 614 l 1,4,-1
EndSplineSet
Substitution2: "'smcp' Lowercase to Small Capitals in Latin lookup 3 subtable" lslash.sc
EndChar

StartChar: Nacute
Encoding: 323 323 243
Width: 500
GlyphClass: 2
Flags: W
LayerCount: 2
Fore
SplineSet
144 794 m 1,0,-1
 348 882 l 1,1,-1
 367 836 l 1,2,-1
 161 752 l 1,3,-1
 144 794 l 1,0,-1
394 0 m 1,4,-1
 394 103 l 1,5,-1
 109 551 l 1,6,-1
 106 551 l 1,7,-1
 106 0 l 1,8,-1
 51 0 l 1,9,-1
 51 655 l 1,10,-1
 105 655 l 1,11,-1
 391 202 l 1,12,-1
 394 202 l 1,13,-1
 394 655 l 1,14,-1
 449 655 l 1,15,-1
 449 0 l 1,16,-1
 394 0 l 1,4,-1
EndSplineSet
EndChar

StartChar: nacute
Encoding: 324 324 244
Width: 500
GlyphClass: 2
Flags: W
LayerCount: 2
Fore
SplineSet
127 475 m 1,0,-1
 129 435 l 1,1,2
 226 481 226 481 290 481 c 128,-1,3
 354 481 354 481 390.5 437 c 128,-1,4
 427 393 427 393 427 317 c 2,5,-1
 427 0 l 1,6,-1
 374 0 l 1,7,-1
 374 317 l 2,8,9
 374 366 374 366 350 398 c 0,10,11
 326 429 326 429 278 429 c 128,-1,12
 230 429 230 429 129 385 c 1,13,-1
 129 0 l 1,14,-1
 76 0 l 1,15,-1
 76 475 l 1,16,-1
 127 475 l 1,0,-1
148 617 m 1,17,-1
 329 717 l 1,18,-1
 352 668 l 1,19,-1
 169 578 l 1,20,-1
 148 617 l 1,17,-1
EndSplineSet
Substitution2: "'smcp' Lowercase to Small Capitals in Latin lookup 3 subtable" nacute.sc
EndChar

StartChar: Ncommaaccent
Encoding: 325 325 245
Width: 500
GlyphClass: 2
Flags: W
LayerCount: 2
Fore
SplineSet
216 -207 m 1,0,1
 241 -182 241 -182 241 -158 c 2,2,-1
 241 -150 l 1,3,-1
 217 -150 l 1,4,-1
 217 -72 l 1,5,-1
 284 -72 l 1,6,-1
 284 -123 l 2,7,8
 284 -162 284 -162 275.5 -184 c 128,-1,9
 267 -206 267 -206 238 -229 c 1,10,-1
 216 -207 l 1,0,1
394 0 m 1,11,-1
 394 103 l 1,12,-1
 109 551 l 1,13,-1
 106 551 l 1,14,-1
 106 0 l 1,15,-1
 51 0 l 1,16,-1
 51 655 l 1,17,-1
 105 655 l 1,18,-1
 391 202 l 1,19,-1
 394 202 l 1,20,-1
 394 655 l 1,21,-1
 449 655 l 1,22,-1
 449 0 l 1,23,-1
 394 0 l 1,11,-1
EndSplineSet
EndChar

StartChar: ncommaaccent
Encoding: 326 326 246
Width: 500
GlyphClass: 2
Flags: W
LayerCount: 2
Fore
SplineSet
127 475 m 1,0,-1
 129 435 l 1,1,2
 227 481 227 481 290.5 481 c 128,-1,3
 354 481 354 481 390.5 437 c 128,-1,4
 427 393 427 393 427 317 c 2,5,-1
 427 0 l 1,6,-1
 374 0 l 1,7,-1
 374 317 l 2,8,9
 374 366 374 366 350.5 397.5 c 128,-1,10
 327 429 327 429 278.5 429 c 128,-1,11
 230 429 230 429 129 385 c 1,12,-1
 129 0 l 1,13,-1
 76 0 l 1,14,-1
 76 475 l 1,15,-1
 127 475 l 1,0,-1
218 -207 m 1,16,17
 243 -182 243 -182 243 -158 c 2,18,-1
 243 -150 l 1,19,-1
 219 -150 l 1,20,-1
 219 -72 l 1,21,-1
 286 -72 l 1,22,-1
 286 -123 l 2,23,24
 286 -162 286 -162 277.5 -184 c 128,-1,25
 269 -206 269 -206 240 -229 c 1,26,-1
 218 -207 l 1,16,17
EndSplineSet
Substitution2: "'smcp' Lowercase to Small Capitals in Latin lookup 3 subtable" ncommaaccent.sc
EndChar

StartChar: Ncaron
Encoding: 327 327 247
Width: 500
GlyphClass: 2
Flags: W
LayerCount: 2
Fore
SplineSet
399 882 m 1,0,-1
 273 752 l 1,1,-1
 233 752 l 1,2,-1
 107 882 l 1,3,-1
 166 882 l 1,4,-1
 253 793 l 1,5,-1
 340 882 l 1,6,-1
 399 882 l 1,0,-1
394 0 m 1,7,-1
 394 103 l 1,8,-1
 109 551 l 1,9,-1
 106 551 l 1,10,-1
 106 0 l 1,11,-1
 51 0 l 1,12,-1
 51 655 l 1,13,-1
 105 655 l 1,14,-1
 391 202 l 1,15,-1
 394 202 l 1,16,-1
 394 655 l 1,17,-1
 449 655 l 1,18,-1
 449 0 l 1,19,-1
 394 0 l 1,7,-1
EndSplineSet
EndChar

StartChar: ncaron
Encoding: 328 328 248
Width: 500
GlyphClass: 2
Flags: W
LayerCount: 2
Fore
SplineSet
127 475 m 1,0,-1
 129 435 l 1,1,2
 226 481 226 481 290 481 c 128,-1,3
 354 481 354 481 390.5 437 c 128,-1,4
 427 393 427 393 427 317 c 2,5,-1
 427 0 l 1,6,-1
 374 0 l 1,7,-1
 374 317 l 2,8,9
 374 366 374 366 350 398 c 0,10,11
 326 429 326 429 278 429 c 128,-1,12
 230 429 230 429 129 385 c 1,13,-1
 129 0 l 1,14,-1
 76 0 l 1,15,-1
 76 475 l 1,16,-1
 127 475 l 1,0,-1
396 722 m 1,17,-1
 270 592 l 1,18,-1
 230 592 l 1,19,-1
 104 722 l 1,20,-1
 163 722 l 1,21,-1
 250 633 l 1,22,-1
 337 722 l 1,23,-1
 396 722 l 1,17,-1
EndSplineSet
Substitution2: "'smcp' Lowercase to Small Capitals in Latin lookup 3 subtable" ncaron.sc
EndChar

StartChar: Eng
Encoding: 330 330 249
Width: 500
GlyphClass: 2
Flags: W
LayerCount: 2
Fore
SplineSet
449 655 m 1,0,-1
 449 -10 l 2,1,2
 449 -60 449 -60 437 -91.5 c 128,-1,3
 425 -123 425 -123 395 -142 c 128,-1,4
 365 -161 365 -161 329.5 -170.5 c 128,-1,5
 294 -180 294 -180 233 -188 c 1,6,-1
 227 -136 l 1,7,8
 326 -122 326 -122 360 -98.5 c 128,-1,9
 394 -75 394 -75 394 -10 c 2,10,-1
 394 103 l 1,11,-1
 106 557 l 1,12,-1
 106 0 l 1,13,-1
 51 0 l 1,14,-1
 51 655 l 1,15,-1
 105 655 l 1,16,-1
 394 196 l 1,17,-1
 394 655 l 1,18,-1
 449 655 l 1,0,-1
EndSplineSet
EndChar

StartChar: eng
Encoding: 331 331 250
Width: 500
GlyphClass: 2
Flags: W
LayerCount: 2
Fore
SplineSet
427 317 m 2,0,-1
 427 -10 l 2,1,2
 427 -104 427 -104 379.5 -138 c 128,-1,3
 332 -172 332 -172 212 -188 c 1,4,-1
 206 -136 l 1,5,6
 305 -122 305 -122 339.5 -98.5 c 128,-1,7
 374 -75 374 -75 374 -10 c 2,8,-1
 374 317 l 2,9,10
 374 366 374 366 350 398 c 0,11,12
 326 429 326 429 278 429 c 128,-1,13
 230 429 230 429 129 385 c 1,14,-1
 129 0 l 1,15,-1
 76 0 l 1,16,-1
 76 475 l 1,17,-1
 127 475 l 1,18,-1
 129 435 l 1,19,20
 226 481 226 481 290 481 c 128,-1,21
 354 481 354 481 390.5 437 c 128,-1,22
 427 393 427 393 427 317 c 2,0,-1
EndSplineSet
Substitution2: "'smcp' Lowercase to Small Capitals in Latin lookup 3 subtable" eng.sc
EndChar

StartChar: Omacron
Encoding: 332 332 251
Width: 500
GlyphClass: 2
Flags: W
LayerCount: 2
Fore
SplineSet
104 834 m 1,0,-1
 397 834 l 1,1,-1
 397 789 l 1,2,-1
 104 789 l 1,3,-1
 104 834 l 1,0,-1
40 334 m 0,4,5
 40 412 40 412 50 469 c 256,6,7
 60 526 60 526 82 572 c 0,8,9
 127 665 127 665 250 665 c 0,10,11
 390 664 390 664 434 534 c 0,12,13
 460 459 460 459 460 357.5 c 128,-1,14
 460 256 460 256 450 196 c 128,-1,15
 440 136 440 136 418 88 c 0,16,17
 372 -10 372 -10 250 -10 c 0,18,19
 130 -10 130 -10 83 88 c 0,20,21
 40 177 40 177 40 334 c 0,4,5
401 326 m 0,22,23
 401 380 401 380 398.5 413 c 128,-1,24
 396 446 396 446 387 486 c 128,-1,25
 378 526 378 526 362.5 552 c 128,-1,26
 347 578 347 578 318.5 595.5 c 128,-1,27
 290 613 290 613 250 613 c 128,-1,28
 210 613 210 613 181.5 595.5 c 128,-1,29
 153 578 153 578 137.5 552 c 128,-1,30
 122 526 122 526 113 486 c 0,31,32
 99 424 99 424 99 348.5 c 128,-1,33
 99 273 99 273 104.5 226.5 c 128,-1,34
 110 180 110 180 125 135 c 0,35,36
 156 42 156 42 250 42 c 0,37,38
 346 42 346 42 376 136 c 0,39,40
 402 216 402 216 401 326 c 0,22,23
EndSplineSet
EndChar

StartChar: omacron
Encoding: 333 333 252
Width: 500
GlyphClass: 2
Flags: W
LayerCount: 2
Fore
SplineSet
250 481 m 128,-1,1
 441 481 441 481 441 236 c 128,-1,2
 441 -9 441 -9 250 -9 c 128,-1,3
 59 -9 59 -9 59 236 c 128,-1,0
 59 481 59 481 250 481 c 128,-1,1
116 236 m 128,-1,5
 116 43 116 43 250 43 c 128,-1,6
 384 43 384 43 384 236 c 128,-1,7
 384 429 384 429 250 429 c 128,-1,4
 116 429 116 429 116 236 c 128,-1,5
104 669 m 1,8,-1
 397 669 l 1,9,-1
 397 624 l 1,10,-1
 104 624 l 1,11,-1
 104 669 l 1,8,-1
EndSplineSet
Substitution2: "'smcp' Lowercase to Small Capitals in Latin lookup 3 subtable" omacron.sc
EndChar

StartChar: Obreve
Encoding: 334 334 253
Width: 500
GlyphClass: 2
Flags: W
LayerCount: 2
Fore
SplineSet
251 754 m 128,-1,1
 129 754 129 754 115 875 c 1,2,-1
 161 875 l 1,3,4
 167 834 167 834 187.5 815 c 128,-1,5
 208 796 208 796 251 796 c 128,-1,6
 294 796 294 796 314 814.5 c 128,-1,7
 334 833 334 833 340 875 c 1,8,-1
 387 875 l 1,9,0
 373 754 373 754 251 754 c 128,-1,1
40 334 m 0,10,11
 40 412 40 412 50 469 c 256,12,13
 60 526 60 526 82 572 c 0,14,15
 127 665 127 665 250 665 c 0,16,17
 390 664 390 664 434 534 c 0,18,19
 460 459 460 459 460 357.5 c 128,-1,20
 460 256 460 256 450 196 c 128,-1,21
 440 136 440 136 418 88 c 0,22,23
 372 -10 372 -10 250 -10 c 0,24,25
 130 -10 130 -10 83 88 c 0,26,27
 40 177 40 177 40 334 c 0,10,11
401 326 m 0,28,29
 401 380 401 380 398.5 413 c 128,-1,30
 396 446 396 446 387 486 c 128,-1,31
 378 526 378 526 362.5 552 c 128,-1,32
 347 578 347 578 318.5 595.5 c 128,-1,33
 290 613 290 613 250 613 c 128,-1,34
 210 613 210 613 181.5 595.5 c 128,-1,35
 153 578 153 578 137.5 552 c 128,-1,36
 122 526 122 526 113 486 c 0,37,38
 99 424 99 424 99 348.5 c 128,-1,39
 99 273 99 273 104.5 226.5 c 128,-1,40
 110 180 110 180 125 135 c 0,41,42
 156 42 156 42 250 42 c 0,43,44
 346 42 346 42 376 136 c 0,45,46
 402 216 402 216 401 326 c 0,28,29
EndSplineSet
EndChar

StartChar: obreve
Encoding: 335 335 254
Width: 500
GlyphClass: 2
Flags: W
LayerCount: 2
Fore
SplineSet
250 481 m 128,-1,1
 441 481 441 481 441 236 c 128,-1,2
 441 -9 441 -9 250 -9 c 128,-1,3
 59 -9 59 -9 59 236 c 128,-1,0
 59 481 59 481 250 481 c 128,-1,1
116 236 m 128,-1,5
 116 43 116 43 250 43 c 128,-1,6
 384 43 384 43 384 236 c 128,-1,7
 384 429 384 429 250 429 c 128,-1,4
 116 429 116 429 116 236 c 128,-1,5
250 579 m 128,-1,9
 128 579 128 579 114 700 c 1,10,-1
 160 700 l 1,11,12
 166 659 166 659 186.5 640 c 128,-1,13
 207 621 207 621 250 621 c 128,-1,14
 293 621 293 621 313 639.5 c 128,-1,15
 333 658 333 658 339 700 c 1,16,-1
 386 700 l 1,17,8
 372 579 372 579 250 579 c 128,-1,9
EndSplineSet
Substitution2: "'smcp' Lowercase to Small Capitals in Latin lookup 3 subtable" obreve.sc
EndChar

StartChar: Ohungarumlaut
Encoding: 336 336 255
Width: 500
GlyphClass: 2
Flags: W
LayerCount: 2
Fore
SplineSet
105 741 m 1,0,-1
 255 865 l 1,1,-1
 288 824 l 1,2,-1
 131 708 l 1,3,-1
 105 741 l 1,0,-1
262 741 m 1,4,-1
 413 864 l 1,5,-1
 445 824 l 1,6,-1
 288 708 l 1,7,-1
 262 741 l 1,4,-1
40 334 m 0,8,9
 40 412 40 412 50 469 c 256,10,11
 60 526 60 526 82 572 c 0,12,13
 127 665 127 665 250 665 c 0,14,15
 390 664 390 664 434 534 c 0,16,17
 460 459 460 459 460 357.5 c 128,-1,18
 460 256 460 256 450 196 c 128,-1,19
 440 136 440 136 418 88 c 0,20,21
 372 -10 372 -10 250 -10 c 0,22,23
 130 -10 130 -10 83 88 c 0,24,25
 40 177 40 177 40 334 c 0,8,9
401 326 m 0,26,27
 401 380 401 380 398.5 413 c 128,-1,28
 396 446 396 446 387 486 c 128,-1,29
 378 526 378 526 362.5 552 c 128,-1,30
 347 578 347 578 318.5 595.5 c 128,-1,31
 290 613 290 613 250 613 c 128,-1,32
 210 613 210 613 181.5 595.5 c 128,-1,33
 153 578 153 578 137.5 552 c 128,-1,34
 122 526 122 526 113 486 c 0,35,36
 99 424 99 424 99 348.5 c 128,-1,37
 99 273 99 273 104.5 226.5 c 128,-1,38
 110 180 110 180 125 135 c 0,39,40
 156 42 156 42 250 42 c 0,41,42
 346 42 346 42 376 136 c 0,43,44
 402 216 402 216 401 326 c 0,26,27
EndSplineSet
EndChar

StartChar: ohungarumlaut
Encoding: 337 337 256
Width: 500
GlyphClass: 2
Flags: W
LayerCount: 2
Fore
SplineSet
250 481 m 128,-1,1
 441 481 441 481 441 236 c 128,-1,2
 441 -9 441 -9 250 -9 c 128,-1,3
 59 -9 59 -9 59 236 c 128,-1,0
 59 481 59 481 250 481 c 128,-1,1
116 236 m 128,-1,5
 116 43 116 43 250 43 c 128,-1,6
 384 43 384 43 384 236 c 128,-1,7
 384 429 384 429 250 429 c 128,-1,4
 116 429 116 429 116 236 c 128,-1,5
105 601 m 1,8,-1
 255 725 l 1,9,-1
 288 684 l 1,10,-1
 131 568 l 1,11,-1
 105 601 l 1,8,-1
262 601 m 1,12,-1
 413 724 l 1,13,-1
 445 684 l 1,14,-1
 288 568 l 1,15,-1
 262 601 l 1,12,-1
EndSplineSet
Substitution2: "'smcp' Lowercase to Small Capitals in Latin lookup 3 subtable" ohungarumlaut.sc
EndChar

